<svg id="svg" xmlns="http://www.w3.org/2000/svg" xmlns:xlink="http://www.w3.org/1999/xlink" width="400" height="218.1818181818182" viewBox="0, 0, 400,218.1818181818182"><g id="svgg"><path id="path0" d="M5.744 25.202 C 5.310 25.520,5.310 192.662,5.744 192.980 C 5.981 193.153,12.203 193.182,49.720 193.182 L 93.420 193.182 94.134 192.507 C 94.526 192.136,97.671 188.979,101.123 185.492 L 107.398 179.152 107.357 140.159 C 107.316 102.044,107.309 101.159,107.045 100.867 L 106.774 100.568 86.965 100.568 L 67.156 100.568 67.235 100.036 C 67.278 99.743,67.413 98.578,67.536 97.447 C 67.965 93.481,68.092 93.066,69.494 91.005 C 72.210 87.014,74.858 84.036,75.967 83.727 C 79.241 82.815,80.227 82.110,80.250 80.662 C 80.258 80.117,80.455 80.079,83.523 80.029 C 89.631 79.929,95.976 81.114,109.872 84.949 C 119.114 87.499,125.677 89.116,129.795 89.856 C 130.848 90.045,133.402 90.580,135.938 91.141 C 136.445 91.254,137.148 91.405,137.500 91.477 C 140.795 92.153,142.280 92.670,148.011 95.140 C 150.463 96.196,154.501 97.657,155.966 98.018 C 156.317 98.105,158.331 98.230,160.440 98.295 C 165.215 98.443,164.879 98.380,172.585 100.567 C 173.718 100.888,174.990 101.243,175.412 101.355 C 175.834 101.467,176.201 101.580,176.228 101.607 C 176.270 101.649,176.740 103.915,177.483 107.663 C 177.624 108.371,177.762 108.666,178.092 108.961 L 178.520 109.343 186.454 109.431 C 190.819 109.480,196.403 109.556,198.864 109.602 C 204.559 109.707,210.253 109.497,215.128 109.003 L 218.963 108.614 220.526 108.928 C 230.148 110.862,238.231 110.144,247.251 106.555 C 249.631 105.608,250.613 105.372,252.699 105.246 C 254.885 105.114,255.907 104.875,256.626 104.326 L 257.128 103.943 260.702 103.903 C 263.221 103.875,265.009 103.775,266.761 103.565 C 269.823 103.198,270.186 103.197,272.660 103.549 C 275.315 103.926,277.068 103.917,278.884 103.518 C 280.647 103.131,281.820 103.118,283.949 103.462 C 286.995 103.955,290.054 103.735,293.466 102.779 C 294.130 102.592,295.313 102.301,296.094 102.131 L 297.514 101.822 299.148 102.156 L 300.781 102.490 300.873 107.673 C 300.923 110.523,301.004 113.494,301.052 114.276 C 301.172 116.207,300.938 118.258,300.331 120.574 C 299.824 122.512,299.823 122.518,299.784 125.994 C 299.750 128.924,299.687 129.823,299.382 131.676 C 298.117 139.373,298.284 144.665,300.142 155.753 C 300.989 160.810,301.736 166.148,302.068 169.531 C 302.274 171.618,302.785 172.890,304.871 176.496 C 305.299 177.235,305.380 177.528,305.464 178.627 C 305.690 181.579,305.964 182.725,307.029 185.156 C 307.440 186.094,307.909 187.390,308.072 188.037 C 308.688 190.477,310.029 191.504,313.423 192.136 C 315.331 192.491,324.745 192.485,327.120 192.127 C 329.703 191.737,331.088 191.824,337.216 192.761 C 341.538 193.422,343.403 193.235,344.593 192.022 L 345.144 191.459 346.233 191.610 C 348.401 191.912,349.304 191.784,350.348 191.030 C 350.703 190.773,351.086 190.625,351.394 190.625 C 353.026 190.625,354.280 188.411,353.428 187.033 C 352.880 186.147,350.911 184.982,347.372 183.450 C 346.513 183.078,345.316 182.527,344.712 182.225 C 342.957 181.348,341.740 181.004,339.773 180.829 C 338.796 180.742,337.294 180.607,336.435 180.529 C 335.210 180.417,330.753 179.514,330.574 179.341 C 330.553 179.321,330.668 179.008,330.829 178.644 L 331.121 177.983 332.945 177.983 C 334.683 177.983,334.909 178.019,337.803 178.752 C 342.271 179.885,343.577 179.927,344.953 178.980 C 345.290 178.748,345.919 178.427,346.351 178.265 C 347.706 177.758,348.295 177.041,348.295 175.899 C 348.295 174.715,347.804 174.324,344.957 173.248 C 344.020 172.893,342.102 172.161,340.696 171.621 C 337.083 170.234,336.426 170.096,332.453 169.889 C 330.337 169.779,329.243 169.644,327.411 169.267 C 325.398 168.852,324.664 168.770,322.159 168.683 C 320.558 168.628,319.221 168.557,319.189 168.526 C 318.732 168.077,320.398 158.953,321.806 154.190 C 324.978 143.467,325.664 137.952,324.734 130.652 C 324.273 127.030,324.287 126.860,325.228 124.737 C 327.084 120.548,328.405 115.595,329.820 107.528 C 329.978 106.630,330.208 105.320,330.331 104.616 C 330.455 103.913,330.714 102.387,330.908 101.225 C 331.319 98.755,331.255 98.902,332.458 97.643 C 334.502 95.505,336.726 92.462,337.692 90.482 C 338.596 88.627,338.783 88.156,339.491 85.938 L 340.148 83.879 340.848 83.618 C 343.028 82.805,346.078 82.544,347.727 83.029 C 348.506 83.257,349.041 83.295,351.143 83.268 C 354.216 83.228,353.896 82.981,355.031 86.266 C 356.912 91.707,357.895 92.918,360.697 93.242 C 361.577 93.344,362.762 92.944,364.111 92.092 L 365.367 91.297 366.242 91.406 C 367.841 91.606,368.542 91.424,369.206 90.639 C 369.428 90.375,369.481 90.369,369.845 90.558 C 370.487 90.893,370.810 90.808,371.815 90.038 L 372.766 89.309 373.777 90.387 C 376.049 92.813,377.412 92.428,379.958 88.643 C 383.334 83.626,383.301 83.657,385.797 83.184 C 388.214 82.725,391.487 80.125,395.016 75.859 C 403.499 65.606,396.259 45.385,382.457 40.785 C 376.563 38.820,369.310 39.783,363.640 43.284 C 361.181 44.802,359.788 46.118,356.541 49.984 C 353.925 53.101,354.084 52.960,352.121 53.886 C 346.620 56.481,343.983 56.167,336.080 51.975 C 331.293 49.436,328.638 48.563,324.919 48.303 C 323.675 48.217,321.410 48.052,319.886 47.938 C 310.142 47.208,308.887 47.237,304.616 48.292 C 303.366 48.600,301.193 49.110,299.787 49.424 C 290.134 51.581,287.641 52.319,275.284 56.671 C 267.456 59.428,265.406 59.891,260.350 60.041 C 257.519 60.125,257.416 60.118,257.330 59.848 C 257.139 59.245,254.846 58.675,252.588 58.668 C 251.467 58.664,250.374 58.301,248.523 57.316 C 246.344 56.158,243.875 55.289,240.696 54.563 C 234.980 53.257,226.679 53.879,220.597 56.069 C 220.167 56.224,219.150 56.588,218.336 56.878 C 217.523 57.169,215.782 57.879,214.468 58.457 C 209.459 60.658,206.943 61.445,203.551 61.868 C 203.121 61.921,202.654 61.987,202.513 62.013 C 202.372 62.039,201.381 62.099,200.311 62.147 C 197.104 62.288,192.783 62.627,188.494 63.074 C 177.525 64.216,177.894 64.155,177.557 64.882 C 177.404 65.210,177.202 65.380,176.847 65.475 C 176.163 65.660,170.574 66.803,167.045 67.480 C 165.444 67.787,163.750 68.119,163.281 68.217 C 161.746 68.538,158.067 68.450,156.818 68.063 C 154.996 67.499,151.093 66.167,150.497 65.907 C 150.185 65.771,149.162 65.368,148.224 65.012 C 147.287 64.657,145.657 64.006,144.602 63.566 C 135.553 59.791,129.398 58.917,120.739 60.177 C 114.979 61.014,101.254 60.638,93.751 59.437 C 90.217 58.871,85.406 57.232,85.589 56.655 C 85.738 56.187,85.370 55.422,84.719 54.850 C 83.589 53.855,73.728 49.007,72.831 49.005 C 72.167 49.003,71.424 48.685,70.182 47.869 C 66.730 45.603,65.196 45.708,63.051 48.358 L 62.359 49.214 61.115 49.216 C 56.621 49.225,52.389 57.052,50.938 68.040 C 50.649 70.229,50.335 71.065,48.265 75.142 C 43.624 84.285,43.068 92.279,46.515 100.320 C 46.614 100.551,46.453 100.568,44.233 100.568 L 41.846 100.568 39.069 102.044 C 35.505 103.938,34.474 104.486,31.960 105.825 C 28.920 107.444,25.671 109.170,22.898 110.638 C 21.547 111.354,20.144 112.125,19.779 112.352 C 19.415 112.578,19.065 112.732,19.001 112.693 C 18.938 112.654,18.890 92.997,18.895 69.011 C 18.903 35.967,18.865 25.351,18.739 25.200 C 18.491 24.901,6.153 24.903,5.744 25.202 M17.188 70.575 C 17.187 112.877,17.197 114.453,17.447 114.679 C 17.687 114.896,20.544 114.917,54.982 114.950 L 92.259 114.986 92.294 153.196 L 92.330 191.406 49.831 191.367 C 26.457 191.346,7.313 191.309,7.289 191.285 C 7.265 191.261,7.229 154.220,7.209 108.973 L 7.173 26.705 12.180 26.705 L 17.188 26.705 17.188 70.575 M378.054 41.682 C 388.918 42.445,398.343 55.541,396.660 67.535 C 396.054 71.850,394.583 74.139,389.098 79.304 C 387.344 80.956,387.240 81.013,385.284 81.401 C 382.557 81.942,382.132 82.303,379.248 86.506 C 376.265 90.855,376.459 90.789,374.103 88.240 C 373.147 87.207,372.640 87.225,371.165 88.343 C 370.580 88.787,370.294 88.917,370.028 88.862 C 368.736 88.595,368.808 88.585,368.224 89.112 L 367.667 89.616 366.381 89.532 C 364.972 89.441,364.671 89.549,362.513 90.919 C 360.885 91.951,359.336 91.497,358.324 89.688 C 357.836 88.814,356.159 84.511,355.791 83.186 C 355.392 81.747,354.358 81.325,351.574 81.464 C 349.918 81.547,349.441 81.518,348.202 81.263 C 345.721 80.752,341.631 81.127,340.215 81.996 L 339.735 82.291 339.860 81.309 C 340.233 78.391,339.932 73.474,339.262 71.558 L 339.077 71.028 340.100 70.138 C 342.414 68.123,343.226 67.012,343.978 64.831 C 344.630 62.939,343.946 62.390,343.239 64.240 C 342.547 66.053,341.835 67.072,340.298 68.447 C 339.102 69.518,338.860 69.896,338.977 70.508 L 339.063 70.952 338.583 70.387 C 338.165 69.895,338.073 69.847,337.873 70.014 C 337.574 70.262,337.582 70.440,337.906 70.801 C 338.526 71.488,338.924 74.037,338.914 77.262 C 338.889 85.202,336.508 90.827,330.493 97.152 C 327.414 100.391,325.662 102.983,326.552 102.983 C 326.629 102.983,327.251 102.248,327.933 101.349 C 329.151 99.747,329.525 99.399,329.347 100.036 C 329.298 100.211,329.094 101.282,328.894 102.415 C 327.431 110.709,326.877 113.536,326.122 116.545 C 325.432 119.297,324.516 122.030,323.671 123.864 L 323.311 124.645 323.319 122.727 C 323.328 120.700,323.107 120.114,322.713 121.119 C 322.495 121.673,322.661 128.438,322.942 130.469 C 323.917 137.515,323.240 142.920,320.000 153.977 C 317.355 163.007,316.144 176.323,317.723 179.027 C 318.463 180.293,320.749 180.844,326.065 181.037 C 329.658 181.168,331.325 181.339,332.842 181.733 C 333.593 181.928,334.868 182.152,335.676 182.231 C 336.484 182.310,337.899 182.447,338.820 182.534 C 339.741 182.621,340.764 182.782,341.093 182.892 C 341.514 183.033,341.564 183.072,341.264 183.026 C 341.030 182.990,339.631 182.894,338.155 182.812 C 336.679 182.730,335.209 182.602,334.888 182.528 C 334.094 182.345,333.134 182.352,333.017 182.543 C 332.629 183.170,334.545 183.595,338.352 183.724 C 341.326 183.825,342.195 184.003,346.023 185.295 C 351.136 187.022,352.753 188.028,351.422 188.655 L 350.926 188.889 350.636 188.372 C 350.288 187.750,349.633 187.461,346.899 186.720 C 345.874 186.442,344.187 185.938,343.150 185.598 C 341.179 184.954,339.623 184.645,337.003 184.380 C 336.143 184.293,335.121 184.163,334.730 184.091 C 332.946 183.761,331.767 183.659,331.663 183.827 C 331.302 184.413,332.164 184.667,336.712 185.317 C 340.457 185.852,341.217 186.021,343.608 186.851 C 344.428 187.135,345.835 187.565,346.733 187.806 C 349.496 188.546,350.200 189.056,349.254 189.632 C 348.426 190.138,345.059 189.910,343.976 189.276 C 343.656 189.089,342.404 188.686,341.193 188.381 C 339.982 188.075,338.422 187.621,337.726 187.371 C 337.016 187.116,335.925 186.854,335.240 186.776 C 333.828 186.614,331.879 186.195,330.504 185.759 C 329.198 185.345,328.686 185.892,329.846 186.463 C 330.447 186.758,333.832 187.618,335.014 187.775 C 335.639 187.858,336.982 188.211,337.997 188.559 C 339.013 188.906,340.643 189.402,341.619 189.659 C 343.164 190.067,343.401 190.168,343.439 190.438 C 343.584 191.456,341.189 191.602,336.648 190.853 C 331.134 189.944,330.118 189.894,326.536 190.355 C 324.461 190.622,323.736 190.646,319.602 190.580 C 312.506 190.466,310.420 189.929,309.944 188.092 C 309.604 186.780,309.182 185.579,308.571 184.181 C 307.847 182.527,307.519 181.037,307.111 177.557 C 306.601 173.202,306.132 170.152,304.839 162.784 C 303.092 152.820,302.996 146.956,304.421 137.216 C 304.656 135.614,304.885 133.553,304.930 132.635 L 305.013 130.966 306.022 130.965 C 307.192 130.964,308.097 130.751,308.097 130.477 C 308.097 130.182,307.758 130.114,306.289 130.114 L 304.930 130.114 305.011 128.374 C 305.066 127.178,305.184 126.348,305.389 125.720 C 306.406 122.598,306.700 114.116,305.970 108.949 C 305.028 102.286,305.759 97.147,308.978 87.784 C 311.157 81.448,311.755 78.772,311.369 77.078 C 311.056 75.703,310.482 76.044,310.425 77.638 C 310.329 80.354,309.092 84.998,308.721 84.033 C 308.672 83.906,308.321 83.798,307.767 83.738 C 302.180 83.138,295.338 81.077,288.423 77.910 C 287.798 77.624,286.999 77.259,286.648 77.099 C 286.296 76.939,284.954 76.284,283.665 75.643 C 279.934 73.790,278.977 73.457,278.977 74.013 C 278.977 74.232,279.182 74.396,279.794 74.666 C 280.243 74.864,281.953 75.685,283.594 76.490 C 288.100 78.702,290.448 79.812,291.548 80.251 C 292.095 80.469,293.214 80.919,294.034 81.250 C 298.218 82.939,301.915 83.995,306.250 84.739 C 306.914 84.853,307.633 84.983,307.848 85.027 C 308.163 85.092,308.222 85.064,308.152 84.883 C 308.058 84.638,308.326 84.584,308.642 84.784 C 308.787 84.876,308.795 84.970,308.678 85.173 C 308.480 85.515,306.222 92.345,305.842 93.750 C 305.356 95.550,304.813 98.582,304.726 99.984 L 304.643 101.317 303.494 101.236 C 302.248 101.147,300.149 100.717,298.799 100.274 C 297.812 99.950,296.923 100.061,293.537 100.932 C 289.257 102.033,286.643 102.192,283.310 101.555 C 281.148 101.142,280.898 101.146,279.261 101.633 C 277.561 102.139,275.513 102.165,272.393 101.722 C 270.210 101.411,268.719 101.443,266.264 101.851 C 265.795 101.929,263.501 102.033,261.166 102.082 L 256.919 102.171 257.004 101.831 C 257.078 101.530,257.329 99.177,257.423 97.893 C 257.456 97.437,257.528 97.382,259.310 96.465 C 262.523 94.812,264.004 93.637,265.410 91.627 C 266.580 89.955,266.097 89.831,264.738 91.454 C 263.854 92.511,262.813 93.480,261.853 94.141 C 261.278 94.537,257.633 96.459,257.572 96.398 C 257.546 96.372,257.587 95.589,257.663 94.659 C 258.433 85.290,258.264 70.287,257.301 62.464 L 257.218 61.790 260.036 61.787 C 265.046 61.782,267.509 61.266,274.929 58.667 C 286.537 54.601,291.417 53.121,298.140 51.632 C 301.145 50.967,304.576 50.153,306.818 49.574 L 308.594 49.115 311.506 49.201 C 314.713 49.295,316.609 49.413,322.017 49.852 C 328.822 50.404,329.368 50.558,335.470 53.653 C 344.272 58.117,346.563 58.346,353.103 55.417 C 354.947 54.591,355.408 54.186,357.719 51.362 C 363.416 44.397,369.803 41.066,376.491 41.570 C 376.726 41.588,377.429 41.638,378.054 41.682 M67.098 48.166 C 67.705 48.334,70.028 49.679,70.028 49.861 C 70.028 49.925,69.807 50.113,69.537 50.280 C 69.025 50.597,67.756 51.926,67.756 52.146 C 67.756 52.543,66.101 52.266,65.642 51.793 C 65.387 51.530,64.832 51.139,64.409 50.925 L 63.639 50.536 63.886 50.115 C 64.771 48.610,66.003 47.862,67.098 48.166 M73.366 51.025 C 73.913 51.194,75.288 51.807,76.420 52.387 C 81.123 54.793,83.462 56.013,83.636 56.150 C 83.980 56.422,80.636 59.233,79.968 59.233 C 79.877 59.233,79.517 58.916,79.168 58.528 C 78.657 57.960,78.124 57.614,76.438 56.761 C 75.286 56.177,73.707 55.324,72.931 54.866 C 71.389 53.956,69.613 53.082,68.999 52.931 C 68.454 52.798,68.497 52.687,69.425 51.838 C 70.887 50.501,71.358 50.404,73.366 51.025 M62.111 51.322 C 63.081 51.674,64.915 52.649,64.914 52.812 C 64.914 52.867,64.563 53.096,64.133 53.320 C 61.712 54.585,60.577 56.877,58.250 65.199 C 57.117 69.249,56.043 71.563,52.751 77.039 C 48.284 84.470,47.423 88.328,48.658 95.357 C 49.290 98.948,51.338 104.106,52.694 105.521 C 53.380 106.237,54.715 107.099,55.141 107.101 C 55.273 107.102,55.418 107.161,55.462 107.234 C 55.687 107.597,53.447 107.010,52.464 106.449 C 50.589 105.378,47.852 99.968,46.829 95.313 C 45.312 88.413,46.198 82.936,50.014 75.615 C 52.027 71.753,52.375 70.779,52.776 67.889 C 53.601 61.942,55.906 55.326,58.008 52.873 C 59.611 51.004,60.406 50.703,62.111 51.322 M313.068 51.804 C 307.743 52.456,300.701 54.949,300.180 56.367 C 300.131 56.498,299.564 57.340,298.919 58.239 C 297.671 59.976,297.099 61.094,297.236 61.525 C 297.357 61.905,297.570 61.851,297.735 61.399 C 298.020 60.616,300.472 57.170,301.122 56.639 C 302.503 55.510,305.134 54.430,308.452 53.630 C 309.311 53.423,310.685 53.092,311.506 52.894 C 313.453 52.426,313.920 52.277,313.920 52.125 C 313.920 51.929,313.461 51.756,313.068 51.804 M319.744 52.477 C 319.744 52.760,319.781 52.776,321.712 53.332 C 323.373 53.810,324.948 54.486,325.465 54.942 C 325.771 55.211,326.066 54.995,325.938 54.595 C 325.658 53.719,319.744 51.697,319.744 52.477 M73.103 56.326 C 78.697 59.192,79.690 59.994,78.213 60.456 C 78.047 60.508,77.737 60.696,77.524 60.875 C 77.310 61.053,76.607 61.395,75.961 61.636 C 70.726 63.582,69.540 65.955,70.957 71.649 C 71.668 74.505,71.621 75.535,70.715 76.989 C 69.977 78.172,69.952 78.251,70.218 78.517 C 70.737 79.036,71.834 77.772,72.370 76.037 C 72.511 75.584,72.636 75.199,72.649 75.181 C 72.714 75.094,73.897 75.499,74.692 75.881 C 75.700 76.366,76.336 77.074,77.461 78.964 C 77.825 79.576,78.219 80.157,78.337 80.255 C 78.894 80.717,78.464 81.183,77.202 81.483 C 73.203 82.432,71.469 83.515,67.527 87.524 C 63.776 91.337,62.515 92.765,62.014 93.767 C 61.551 94.691,61.364 94.844,61.364 94.295 C 61.364 94.127,61.260 94.034,61.072 94.034 C 60.374 94.034,60.067 91.751,60.564 90.255 C 61.068 88.738,63.533 85.118,66.058 82.187 C 66.523 81.648,66.903 81.152,66.903 81.086 C 66.903 79.682,60.539 87.493,59.645 89.995 C 58.887 92.113,59.668 94.808,61.191 95.327 C 61.312 95.368,61.298 95.551,61.141 96.007 C 60.820 96.936,60.535 98.399,60.372 99.959 C 60.052 103.021,59.567 105.041,59.023 105.585 C 56.795 107.814,53.673 106.104,51.807 101.634 C 50.911 99.489,49.942 96.263,49.651 94.460 C 48.822 89.326,49.804 84.215,52.462 79.830 C 55.388 75.003,56.098 73.761,56.971 71.946 C 58.193 69.405,58.869 67.534,59.856 63.971 C 61.584 57.725,62.450 55.970,64.537 54.489 C 66.544 53.064,66.875 53.135,73.103 56.326 M236.790 55.827 C 241.059 56.199,245.174 57.401,248.295 59.188 C 249.638 59.956,251.051 60.307,253.622 60.510 C 256.006 60.698,255.765 60.485,256.031 62.643 C 256.846 69.270,257.225 81.425,256.832 88.352 C 256.591 92.589,256.129 99.030,255.966 100.426 C 255.888 101.090,255.824 101.903,255.824 102.232 C 255.824 103.096,255.211 103.302,251.918 103.546 C 249.823 103.701,249.303 103.826,247.017 104.722 C 240.132 107.420,237.020 108.098,231.540 108.095 C 228.636 108.093,223.753 107.744,221.453 107.374 C 221.411 107.368,222.702 107.085,224.321 106.746 C 227.438 106.093,227.557 106.057,227.557 105.760 C 227.557 105.397,227.137 105.418,224.692 105.909 C 217.703 107.310,204.818 108.191,197.088 107.796 C 195.291 107.705,190.529 107.591,186.506 107.543 L 179.191 107.457 178.665 104.616 C 176.439 92.606,176.023 85.262,176.990 75.075 C 177.308 71.732,177.586 70.074,177.875 69.802 C 178.026 69.660,182.639 68.931,185.014 68.675 C 185.405 68.633,186.140 68.537,186.648 68.462 C 187.156 68.387,189.297 68.165,191.406 67.968 C 203.681 66.824,206.739 65.977,213.849 61.756 C 214.709 61.246,215.636 60.701,215.909 60.545 C 216.183 60.390,216.822 60.024,217.330 59.733 C 220.764 57.765,224.016 56.641,227.983 56.049 C 230.440 55.682,234.078 55.590,236.790 55.827 M84.969 58.590 C 89.046 60.522,94.375 61.633,101.634 62.065 C 110.960 62.619,116.624 62.578,121.089 61.922 C 129.517 60.684,134.659 61.425,144.024 65.229 C 154.053 69.302,157.725 70.417,160.577 70.252 C 162.894 70.118,168.415 69.171,172.230 68.254 C 173.754 67.888,177.418 67.045,177.488 67.045 C 177.784 67.045,177.524 68.629,177.204 68.775 C 177.011 68.863,176.816 69.048,176.773 69.185 C 176.633 69.626,176.390 69.713,173.863 70.228 C 172.496 70.506,170.483 70.921,169.389 71.150 C 158.634 73.402,158.406 73.411,153.125 71.777 C 150.642 71.009,145.654 69.255,143.111 68.256 C 132.394 64.043,126.360 63.214,117.472 64.730 C 114.709 65.201,99.413 64.981,96.335 64.426 C 96.073 64.379,95.025 64.260,93.679 64.124 C 88.526 63.605,80.375 61.439,80.350 60.582 C 80.348 60.504,80.853 60.116,81.473 59.719 C 82.368 59.145,83.053 58.586,83.610 57.973 C 83.619 57.963,84.231 58.241,84.969 58.590 M368.395 59.716 C 363.601 61.236,359.858 68.107,362.994 69.631 C 364.034 70.136,364.537 69.348,363.576 68.718 C 362.750 68.177,362.785 67.315,363.705 65.487 C 365.881 61.168,370.823 59.118,372.276 61.932 C 372.608 62.576,372.618 62.780,372.408 64.758 C 372.292 65.854,373.425 64.780,373.640 63.592 C 374.129 60.886,371.299 58.795,368.395 59.716 M80.300 62.008 C 87.610 65.471,108.195 67.446,118.750 65.697 C 126.408 64.428,131.991 65.234,142.045 69.057 C 143.881 69.756,145.511 70.387,145.668 70.461 C 147.123 71.150,155.054 73.607,156.818 73.915 C 159.094 74.314,162.324 73.957,168.395 72.637 C 175.277 71.140,176.505 70.912,176.353 71.159 C 176.224 71.368,175.751 75.232,175.553 77.699 C 175.326 80.514,175.325 88.818,175.550 91.406 C 175.734 93.522,176.375 98.848,176.512 99.391 C 176.621 99.827,176.671 99.835,173.426 98.914 C 170.731 98.149,170.605 98.097,170.682 97.793 C 170.746 97.538,170.636 97.378,170.138 96.997 C 169.447 96.468,168.485 95.424,167.639 94.284 C 166.093 92.202,164.006 90.954,161.506 90.617 C 160.920 90.538,160.265 90.439,160.050 90.396 C 159.733 90.333,159.659 90.370,159.659 90.589 C 159.659 90.816,159.917 90.923,161.257 91.252 C 164.202 91.975,165.574 92.878,167.433 95.313 C 168.179 96.290,169.000 97.173,169.452 97.483 C 170.034 97.883,169.735 97.871,168.036 97.430 C 165.427 96.752,164.306 96.610,160.781 96.513 C 156.091 96.385,154.492 95.981,148.580 93.433 C 141.652 90.448,140.496 90.122,128.565 87.782 C 125.358 87.153,119.319 85.667,114.418 84.302 C 113.480 84.041,112.202 83.690,111.577 83.524 C 110.952 83.357,108.651 82.740,106.463 82.152 C 94.244 78.872,85.115 77.549,80.540 78.397 C 78.644 78.748,78.729 78.778,77.837 77.455 C 76.519 75.499,75.369 74.666,73.437 74.267 L 72.612 74.096 72.447 73.234 C 72.356 72.760,72.117 71.701,71.916 70.881 C 70.832 66.472,71.886 64.497,76.207 62.836 C 77.252 62.435,78.076 62.023,78.335 61.772 C 78.860 61.266,78.689 61.245,80.300 62.008 M211.577 61.732 C 210.868 62.272,207.287 63.875,205.409 64.491 C 201.988 65.614,198.680 66.137,190.625 66.830 C 187.072 67.135,183.531 67.555,180.926 67.980 C 179.685 68.182,178.642 68.320,178.610 68.288 C 178.414 68.092,179.059 65.895,179.328 65.840 C 180.787 65.543,194.566 64.245,198.153 64.066 C 204.256 63.762,209.309 62.838,211.339 61.653 C 211.715 61.434,211.890 61.492,211.577 61.732 M251.281 62.038 C 251.283 62.331,251.343 62.987,251.416 63.494 C 251.558 64.489,251.786 67.046,251.916 69.105 C 251.960 69.808,252.024 70.671,252.059 71.023 C 252.237 72.839,252.295 81.763,252.145 84.398 C 251.729 91.735,251.583 93.854,251.214 97.940 C 250.913 101.279,250.946 102.323,251.344 101.993 C 251.634 101.753,251.665 101.479,252.280 93.715 C 253.054 83.949,252.958 71.333,252.052 63.849 C 251.788 61.668,251.748 61.506,251.482 61.506 C 251.341 61.506,251.279 61.669,251.281 62.038 M268.466 65.164 C 266.791 65.733,264.093 65.783,262.025 65.285 C 260.170 64.838,260.196 64.839,260.253 65.224 C 260.333 65.770,263.242 66.478,265.408 66.477 C 267.090 66.477,269.927 65.623,269.856 65.139 C 269.799 64.754,269.666 64.756,268.466 65.164 M332.907 64.867 C 332.704 65.071,332.836 65.417,333.402 66.167 C 334.871 68.113,335.744 72.198,335.319 75.139 C 335.167 76.191,335.148 76.680,335.254 76.808 C 335.959 77.657,336.519 73.945,336.088 71.279 C 335.611 68.328,333.567 64.208,332.907 64.867 M78.338 65.975 C 78.260 66.003,78.019 66.065,77.802 66.113 C 77.313 66.221,76.278 67.136,76.278 67.460 C 76.278 68.034,76.593 68.037,77.239 67.468 C 78.321 66.516,78.886 66.548,82.474 67.766 C 84.518 68.460,86.241 68.779,86.416 68.496 C 86.611 68.181,86.326 67.925,85.679 67.833 C 85.314 67.782,83.864 67.367,82.457 66.911 C 80.135 66.158,78.719 65.836,78.338 65.975 M109.794 70.676 C 109.043 71.581,120.043 76.523,126.065 77.986 C 131.192 79.231,138.214 80.072,138.445 79.468 C 138.589 79.094,138.311 79.026,136.248 78.932 C 128.985 78.601,119.367 75.607,111.426 71.204 C 110.104 70.471,109.994 70.435,109.794 70.676 M316.354 70.819 C 315.651 71.712,315.275 74.158,315.284 77.770 L 315.292 80.611 315.822 82.306 C 316.666 85.006,317.759 87.087,319.966 90.199 C 320.492 90.941,321.217 92.110,321.576 92.796 C 322.099 93.792,322.287 94.035,322.514 94.003 C 323.192 93.908,322.662 92.575,321.031 90.270 C 319.749 88.460,318.192 86.108,317.885 85.520 C 317.719 85.201,317.504 84.893,317.406 84.835 C 317.309 84.777,317.164 84.538,317.084 84.304 C 317.004 84.070,316.883 83.888,316.815 83.902 C 316.746 83.915,316.683 83.787,316.674 83.617 C 316.665 83.448,316.592 83.022,316.511 82.670 C 315.926 80.124,315.879 79.638,315.953 76.918 C 316.029 74.150,316.361 72.209,316.967 70.994 C 317.242 70.443,317.243 70.455,316.914 70.455 C 316.763 70.455,316.511 70.618,316.354 70.819 M354.164 71.031 C 353.993 71.096,353.002 71.779,351.962 72.550 C 350.922 73.320,349.592 74.287,349.006 74.698 C 343.256 78.728,342.946 78.983,343.524 79.205 C 344.074 79.416,354.688 71.824,354.688 71.219 C 354.688 70.959,354.518 70.898,354.164 71.031 M359.646 71.612 C 359.302 71.936,358.739 72.463,358.396 72.784 C 357.179 73.922,356.896 74.817,356.845 77.699 C 356.772 81.783,357.224 84.737,357.828 84.132 C 357.946 84.014,357.938 83.646,357.798 82.718 C 357.694 82.024,357.607 80.257,357.604 78.764 C 357.597 74.942,357.687 74.671,359.557 72.831 C 360.735 71.672,360.939 71.408,360.793 71.233 C 360.524 70.909,360.324 70.975,359.646 71.612 M160.938 78.068 C 159.427 78.448,155.461 79.119,154.731 79.119 C 153.874 79.119,153.679 79.310,154.103 79.735 L 154.406 80.037 156.855 79.625 C 161.454 78.851,162.463 78.563,162.276 78.078 C 162.171 77.803,162.000 77.802,160.938 78.068 M288.400 82.138 C 287.099 83.523,286.077 85.374,286.032 86.424 C 285.993 87.364,286.373 87.243,286.772 86.189 C 287.210 85.035,287.809 83.977,288.663 82.848 C 289.041 82.348,289.314 81.880,289.269 81.808 C 289.119 81.565,288.838 81.672,288.400 82.138 M292.767 85.397 C 291.228 87.299,290.463 90.169,291.488 90.197 C 291.533 90.198,291.647 89.781,291.741 89.270 C 291.958 88.093,292.407 87.124,293.316 85.870 C 294.483 84.261,294.014 83.856,292.767 85.397 M69.578 87.749 C 68.712 88.901,67.941 90.019,67.866 90.234 C 67.669 90.791,66.832 91.183,66.515 90.866 C 66.308 90.658,66.347 90.570,66.979 89.815 C 67.623 89.047,70.983 85.653,71.100 85.653 C 71.129 85.653,70.444 86.596,69.578 87.749 M302.699 87.401 C 299.170 88.811,295.749 92.989,296.046 95.526 C 296.107 96.044,296.449 96.180,296.449 95.686 C 296.449 93.416,299.498 89.819,302.966 87.996 C 304.486 87.198,304.292 86.764,302.699 87.401 M146.416 89.654 C 145.181 89.748,144.176 89.985,144.176 90.183 C 144.176 90.664,144.524 90.742,145.739 90.532 C 146.827 90.343,148.313 90.342,150.852 90.528 C 151.469 90.573,151.444 89.813,150.825 89.714 C 150.028 89.586,147.719 89.555,146.416 89.654 M66.548 91.395 C 66.967 91.731,66.970 91.745,66.739 92.140 C 66.405 92.710,66.091 94.371,65.911 96.520 C 65.443 102.093,64.735 103.273,62.301 102.530 C 61.206 102.196,61.252 102.366,61.578 99.858 C 62.098 95.859,62.755 94.286,64.767 92.223 C 66.060 90.897,65.977 90.936,66.548 91.395 M273.917 93.247 C 273.788 93.585,274.019 93.697,275.048 93.793 C 275.529 93.838,276.690 94.139,277.628 94.462 C 280.405 95.419,282.133 95.378,284.257 94.306 C 285.735 93.560,285.185 93.230,283.474 93.836 C 281.671 94.475,279.882 94.432,277.770 93.698 C 275.887 93.043,274.077 92.831,273.917 93.247 M288.519 94.758 C 288.583 95.185,292.513 97.727,293.110 97.727 C 293.841 97.727,293.004 96.976,290.767 95.626 C 289.011 94.566,288.459 94.353,288.519 94.758 M280.399 97.408 C 280.402 99.496,280.685 100.510,281.022 99.633 C 281.166 99.256,281.118 96.590,280.961 96.297 C 280.589 95.603,280.398 95.982,280.399 97.408 M270.111 96.900 C 270.078 97.003,270.013 97.621,269.965 98.273 C 269.917 98.925,269.864 99.522,269.846 99.600 C 269.792 99.848,270.282 100.088,270.466 99.904 C 270.715 99.654,270.961 97.659,270.799 97.198 C 270.652 96.780,270.208 96.588,270.111 96.900 M311.414 98.471 C 310.773 99.508,311.620 102.848,313.132 105.244 C 314.129 106.824,314.601 108.162,314.723 109.749 C 314.874 111.715,315.283 111.296,315.249 109.211 C 315.225 107.799,314.972 107.054,313.636 104.474 C 312.439 102.162,312.097 101.030,312.049 99.219 C 312.029 98.439,311.684 98.034,311.414 98.471 M349.006 99.376 C 346.646 100.530,344.584 101.520,340.625 103.399 C 336.239 105.481,336.084 105.793,338.778 107.134 C 339.677 107.582,340.472 107.969,340.546 107.996 C 340.679 108.044,340.147 109.071,338.948 111.080 C 336.759 114.747,333.406 118.989,329.734 122.739 C 327.866 124.646,327.702 124.962,328.204 125.679 C 328.603 126.249,329.268 126.105,331.541 124.958 C 337.251 122.074,342.655 117.761,346.183 113.271 C 347.053 112.164,346.776 112.097,348.221 113.766 C 349.517 115.264,350.005 115.577,350.586 115.288 C 350.997 115.082,351.020 114.923,351.342 109.943 C 351.471 107.951,351.669 105.138,351.782 103.693 C 352.248 97.738,352.273 97.777,349.006 99.376 M350.217 101.740 C 350.174 102.306,350.075 103.601,349.998 104.616 C 349.921 105.632,349.764 107.798,349.650 109.429 C 349.536 111.060,349.420 112.417,349.393 112.444 C 349.367 112.471,348.983 112.050,348.540 111.508 C 347.060 109.696,346.881 109.703,345.362 111.620 C 342.166 115.653,337.403 119.661,332.244 122.661 C 332.127 122.729,332.631 122.136,333.364 121.342 C 336.530 117.914,340.083 112.948,341.839 109.494 C 343.055 107.101,343.046 107.067,340.965 106.287 C 339.615 105.782,339.537 105.883,342.294 104.551 C 349.157 101.233,350.216 100.723,350.255 100.717 C 350.277 100.713,350.261 101.174,350.217 101.740 M47.956 102.663 C 50.020 106.084,51.957 107.814,54.188 108.226 C 57.408 108.821,59.764 107.798,60.519 105.475 L 60.752 104.759 61.946 104.673 C 63.738 104.544,65.078 103.954,66.082 102.853 L 66.610 102.273 85.537 102.273 L 104.463 102.273 103.829 102.927 C 103.481 103.286,101.374 105.315,99.148 107.436 C 96.921 109.556,94.556 111.818,93.892 112.461 L 92.685 113.631 56.830 113.634 C 37.110 113.635,21.002 113.610,21.035 113.578 C 21.067 113.546,21.915 113.096,22.920 112.578 C 23.924 112.060,25.138 111.424,25.618 111.164 C 26.099 110.905,27.259 110.290,28.196 109.799 C 29.134 109.308,30.156 108.766,30.469 108.595 C 30.968 108.322,35.962 105.678,40.767 103.144 L 42.401 102.282 45.061 102.277 L 47.721 102.273 47.956 102.663 M303.829 102.557 L 304.509 102.557 304.467 104.084 C 304.438 105.100,304.540 106.514,304.769 108.310 C 305.448 113.622,305.368 121.536,304.610 124.077 C 303.850 126.626,303.844 126.669,303.786 130.261 C 303.738 133.207,303.663 134.189,303.291 136.719 C 301.696 147.574,301.831 153.714,303.906 164.560 C 304.647 168.432,305.420 173.155,305.356 173.417 C 305.283 173.717,304.306 171.643,304.112 170.777 C 304.032 170.421,303.779 168.617,303.549 166.767 C 303.144 163.510,302.203 157.206,301.492 152.983 C 300.024 144.266,299.961 139.324,301.219 131.463 C 301.364 130.556,301.465 128.837,301.497 126.705 C 301.555 122.904,301.577 122.684,302.133 120.455 C 302.768 117.905,302.889 116.616,302.787 113.494 C 302.471 103.882,302.490 102.304,302.925 102.471 C 303.048 102.518,303.455 102.557,303.829 102.557 M61.538 103.551 L 62.003 103.834 61.470 103.835 C 61.032 103.835,60.938 103.785,60.938 103.551 C 60.938 103.200,60.963 103.200,61.538 103.551 M105.532 140.874 L 105.525 178.480 99.637 184.441 L 93.750 190.401 93.750 152.538 L 93.750 114.675 95.135 113.347 C 99.235 109.415,103.721 105.071,104.539 104.241 C 105.050 103.722,105.485 103.291,105.504 103.282 C 105.524 103.274,105.536 120.190,105.532 140.874 M280.984 106.122 C 280.622 106.459,280.639 106.419,279.599 109.304 C 277.604 114.836,276.396 122.367,276.825 126.595 C 276.915 127.485,276.989 128.382,276.989 128.589 L 276.989 128.966 274.875 128.879 L 272.762 128.792 272.511 129.175 C 272.059 129.864,272.897 130.947,279.575 138.309 C 282.782 141.843,283.120 142.147,283.652 141.979 C 283.974 141.876,283.854 142.165,285.230 138.210 C 286.217 135.374,288.255 129.601,288.815 128.054 C 289.648 125.756,288.917 125.341,286.185 126.560 C 284.316 127.394,284.516 127.516,283.969 125.213 C 282.778 120.197,282.270 113.959,282.649 108.991 C 282.813 106.837,282.730 106.226,282.239 105.963 C 281.821 105.739,281.327 105.802,280.984 106.122 M319.701 110.334 C 319.667 110.392,319.497 110.888,319.322 111.435 C 318.781 113.125,317.418 115.758,316.244 117.381 C 314.086 120.364,313.642 121.189,314.059 121.447 C 314.349 121.626,314.623 121.460,314.726 121.043 C 314.823 120.654,315.531 119.624,316.547 118.395 C 317.493 117.250,318.158 116.248,318.745 115.083 C 319.369 113.842,320.504 110.564,320.379 110.361 C 320.280 110.202,319.787 110.182,319.701 110.334 M281.172 118.892 C 281.505 121.915,282.592 127.398,283.124 128.741 C 283.444 129.550,284.288 129.459,286.399 128.389 C 287.067 128.051,287.132 127.735,285.741 131.580 C 285.086 133.391,284.213 135.863,283.802 137.074 C 282.894 139.742,282.989 139.628,282.336 138.847 C 282.042 138.495,280.894 137.196,279.786 135.960 C 276.964 132.815,275.105 130.669,275.163 130.626 C 275.191 130.605,275.884 130.638,276.705 130.698 C 278.818 130.853,278.925 130.745,278.686 128.693 C 278.462 126.763,278.588 121.169,278.900 119.247 C 279.192 117.444,280.010 113.634,280.430 112.116 L 280.753 110.950 280.841 113.820 C 280.889 115.399,281.038 117.681,281.172 118.892 M312.879 125.663 C 312.405 126.137,312.885 127.380,314.294 129.333 C 315.826 131.455,316.221 132.100,316.972 133.706 C 317.698 135.260,317.815 135.377,317.677 134.411 C 317.444 132.786,316.769 131.381,315.065 128.977 C 313.641 126.970,313.636 126.961,313.636 126.471 C 313.636 125.694,313.255 125.287,312.879 125.663 M311.598 126.529 C 311.344 126.939,311.463 132.173,311.726 132.173 C 312.328 132.173,312.481 129.071,311.993 126.740 C 311.927 126.425,311.728 126.318,311.598 126.529 M308.815 161.425 C 308.683 161.584,308.726 162.281,309.007 164.586 C 309.206 166.212,309.466 168.501,309.584 169.673 C 309.702 170.845,309.833 172.028,309.875 172.301 C 309.917 172.575,310.042 173.844,310.153 175.123 C 310.354 177.444,310.426 177.783,310.641 177.434 C 310.768 177.229,310.752 176.895,310.359 171.378 C 309.735 162.609,309.435 160.678,308.815 161.425 M326.989 171.078 C 327.965 171.373,328.961 171.735,329.203 171.884 C 329.797 172.250,332.034 172.819,333.594 173.002 C 335.303 173.202,336.602 173.578,338.293 174.363 C 339.066 174.722,340.529 175.342,341.544 175.742 C 343.602 176.552,344.318 176.929,344.318 177.200 C 344.318 177.514,343.398 177.841,342.521 177.838 C 341.687 177.836,341.379 177.767,337.713 176.767 C 335.733 176.227,335.710 176.224,332.533 176.168 C 329.704 176.118,329.300 176.082,328.970 175.847 C 328.166 175.275,326.284 174.711,324.503 174.508 C 323.351 174.378,322.195 174.074,320.911 173.564 C 319.974 173.191,319.815 173.164,319.634 173.345 C 319.039 173.940,321.913 175.179,324.782 175.564 C 328.001 175.996,329.887 177.370,328.781 178.477 C 328.016 179.241,326.403 179.283,324.460 178.590 C 323.380 178.205,321.791 178.118,319.180 178.303 C 318.341 178.363,318.253 177.999,318.254 174.503 C 318.254 172.862,318.306 171.275,318.369 170.976 L 318.483 170.432 321.848 170.487 L 325.213 170.542 326.989 171.078 M334.852 171.881 C 336.474 172.018,336.976 172.165,341.051 173.700 C 342.106 174.097,343.704 174.697,344.602 175.032 C 346.865 175.877,346.963 175.964,346.108 176.371 C 345.650 176.590,345.603 176.587,345.220 176.316 C 344.601 175.879,343.425 175.314,342.290 174.908 C 341.726 174.706,340.276 174.123,339.068 173.613 C 336.320 172.453,335.970 172.359,333.107 172.012 C 329.338 171.556,330.214 171.490,334.852 171.881 M323.671 179.589 C 323.725 179.643,323.576 179.688,323.340 179.688 C 322.603 179.688,321.165 179.509,321.165 179.418 C 321.165 179.301,323.545 179.464,323.671 179.589 M317.462 180.003 C 317.260 180.397,315.563 182.033,315.021 182.357 C 314.806 182.485,314.631 182.706,314.631 182.848 C 314.631 184.011,317.149 182.089,317.641 180.550 C 317.879 179.807,317.755 179.431,317.462 180.003 " stroke="none" fill="#000000" fill-rule="evenodd"></path></g></svg>