<svg id="svg" xmlns="http://www.w3.org/2000/svg" xmlns:xlink="http://www.w3.org/1999/xlink" width="400" height="218.1818181818182" viewBox="0, 0, 400,218.1818181818182"><g id="svgg"><path id="path0" d="M189.832 13.421 C 189.513 13.909,189.576 13.970,191.903 15.412 C 200.972 21.030,211.553 29.254,220.022 37.268 C 221.942 39.084,224.214 40.997,225.355 41.759 C 229.252 44.360,231.020 48.436,230.408 53.409 C 230.037 56.425,228.301 64.315,227.486 66.689 C 226.320 70.085,225.906 71.746,224.649 78.054 C 223.257 85.044,222.279 89.572,220.169 98.793 C 219.472 101.839,218.778 104.876,218.627 105.540 C 218.475 106.204,217.995 108.249,217.560 110.085 C 217.125 111.921,216.550 114.350,216.282 115.483 C 212.977 129.458,213.067 136.544,216.634 143.153 C 218.297 146.233,218.942 147.565,220.598 151.349 C 224.053 159.243,224.727 160.214,227.107 160.736 C 227.706 160.867,228.899 161.195,229.759 161.465 C 231.472 162.003,233.334 162.357,234.462 162.357 C 235.786 162.358,236.401 163.303,235.859 164.505 C 234.998 166.414,232.360 166.974,227.884 166.199 L 225.868 165.850 223.520 166.179 C 219.218 166.782,217.336 166.049,213.278 162.192 C 207.664 156.855,204.756 154.836,199.333 152.512 C 191.630 149.209,190.634 145.482,195.658 138.756 C 199.090 134.162,200.220 129.919,200.493 120.597 C 200.538 119.073,200.604 117.060,200.639 116.122 C 200.675 115.185,200.744 111.126,200.794 107.102 L 200.883 99.787 200.519 98.224 C 197.922 87.078,198.089 82.014,201.346 73.224 C 202.237 70.820,204.837 65.298,206.663 61.932 C 207.832 59.777,207.718 58.943,206.001 57.088 C 202.783 53.613,198.123 51.615,186.435 48.702 C 179.857 47.063,178.723 46.725,173.864 44.955 C 167.485 42.631,163.349 40.772,157.709 37.692 C 156.906 37.254,156.506 37.313,156.421 37.882 C 156.272 38.869,167.966 44.261,176.089 46.951 L 179.380 48.041 179.484 49.269 C 179.930 54.556,178.977 68.326,177.684 75.284 L 177.248 77.628 177.491 79.241 C 178.138 83.537,177.233 89.564,175.200 94.497 C 174.166 97.007,173.925 97.769,173.305 100.497 C 172.457 104.226,172.476 104.068,172.161 110.049 C 171.869 115.589,171.423 121.990,171.163 124.361 C 171.051 125.387,170.342 132.920,169.960 137.145 C 168.748 150.571,168.994 160.508,170.743 168.712 C 171.753 173.447,172.344 175.292,174.716 181.108 C 175.433 182.866,176.755 186.507,177.653 189.200 C 180.144 196.662,179.808 196.250,184.697 197.857 C 186.888 198.577,187.629 198.756,188.851 198.864 C 190.804 199.035,191.335 199.386,191.335 200.504 C 191.335 202.798,188.301 203.754,183.894 202.850 L 182.206 202.503 180.485 202.757 C 174.627 203.619,173.174 203.026,169.069 198.094 C 164.749 192.904,161.580 190.324,156.179 187.600 C 147.338 183.141,146.300 180.010,151.343 173.011 C 154.569 168.534,154.878 164.889,153.118 152.060 C 151.248 138.430,151.116 137.750,149.426 133.097 C 145.374 121.941,145.009 117.052,147.385 105.824 C 147.926 103.268,149.247 97.902,149.780 96.094 C 151.831 89.141,152.019 88.241,152.094 84.977 C 152.212 79.822,151.627 76.126,149.700 69.853 C 146.917 60.794,144.623 49.158,143.826 40.057 C 143.450 35.762,143.458 35.795,142.805 35.795 C 142.295 35.795,142.277 35.995,142.533 38.815 C 143.414 48.555,145.565 59.934,148.231 68.963 C 150.736 77.443,151.070 79.394,150.959 84.872 C 150.892 88.221,150.978 87.781,149.077 94.460 C 143.630 113.596,143.470 119.833,148.093 132.782 C 149.939 137.955,150.009 138.267,151.205 146.662 C 153.780 164.750,153.724 168.025,150.773 171.804 C 144.800 179.455,146.015 183.795,155.451 188.510 C 160.687 191.127,163.746 193.565,167.728 198.295 C 169.800 200.756,171.091 202.069,172.075 202.716 L 172.913 203.267 146.897 203.267 L 120.881 203.267 120.881 203.835 L 120.881 204.403 160.937 204.403 L 200.993 204.403 201.029 186.070 L 201.065 167.737 240.092 167.747 L 279.119 167.757 279.119 167.116 L 279.119 166.475 257.457 166.511 C 245.543 166.532,235.795 166.536,235.795 166.522 C 235.795 166.507,235.989 166.283,236.226 166.024 C 238.383 163.666,237.223 161.427,233.707 161.162 C 233.066 161.114,232.011 160.913,231.363 160.717 C 230.715 160.520,229.341 160.145,228.311 159.884 C 225.233 159.103,225.089 158.897,221.139 149.645 C 220.673 148.551,219.504 146.122,218.543 144.247 C 214.010 135.407,213.865 129.242,217.827 113.920 C 218.049 113.063,219.158 108.331,220.457 102.699 C 220.917 100.707,221.619 97.670,222.018 95.952 C 223.520 89.473,225.125 81.866,226.124 76.491 C 226.836 72.659,227.243 71.021,228.221 68.051 C 230.263 61.848,231.852 53.660,231.614 50.568 C 231.276 46.189,229.557 43.301,225.639 40.529 C 224.074 39.421,222.609 38.172,220.241 35.925 C 214.287 30.275,208.732 25.720,201.333 20.420 C 197.055 17.356,191.156 13.460,190.295 13.129 C 190.158 13.077,189.988 13.184,189.832 13.421 M186.347 49.865 C 198.884 53.046,204.224 55.521,206.044 58.997 L 206.441 59.755 204.311 64.004 C 201.272 70.067,199.935 73.286,198.918 76.989 C 197.034 83.848,197.112 88.513,199.265 97.869 C 199.729 99.888,199.736 100.116,199.579 109.402 C 199.229 130.160,198.839 132.439,194.666 138.078 C 189.220 145.438,190.445 149.897,198.927 153.584 C 203.819 155.711,207.052 157.879,211.146 161.778 C 213.552 164.071,214.930 165.244,215.969 165.886 L 216.811 166.406 208.335 166.443 L 199.858 166.480 199.857 166.798 C 199.856 166.973,199.857 175.250,199.858 185.192 L 199.860 203.267 195.428 203.267 L 190.995 203.267 191.441 202.805 C 192.687 201.516,192.779 199.716,191.659 198.547 C 191.182 198.049,190.719 197.904,189.047 197.732 C 188.296 197.655,187.593 197.562,187.484 197.527 C 187.376 197.491,186.060 197.070,184.560 196.590 C 180.724 195.364,181.016 195.755,178.730 188.778 C 177.238 184.223,176.127 181.257,174.636 177.841 C 171.752 171.237,170.149 161.256,170.358 151.207 C 170.484 145.165,170.878 139.205,171.804 129.332 C 172.901 117.634,172.925 117.316,173.439 107.528 C 173.662 103.284,174.590 98.908,175.923 95.810 C 178.291 90.312,179.344 83.848,178.627 79.224 L 178.379 77.628 178.885 74.858 C 180.107 68.172,180.872 57.649,180.633 50.817 C 180.587 49.508,180.588 48.438,180.634 48.438 C 180.681 48.438,183.251 49.080,186.347 49.865 M201.042 51.926 C 200.926 52.230,200.952 52.244,202.361 52.623 C 207.248 53.941,211.908 56.982,212.349 59.142 C 212.490 59.830,212.867 59.729,212.808 59.020 C 212.639 56.993,208.852 54.229,203.906 52.524 C 201.603 51.730,201.154 51.637,201.042 51.926 M223.386 53.804 C 223.343 53.873,223.524 54.659,223.787 55.551 C 224.284 57.236,224.906 59.940,225.068 61.124 C 225.204 62.115,225.503 61.914,225.474 60.852 C 225.415 58.649,223.787 53.156,223.386 53.804 M214.006 71.058 C 213.980 71.156,213.817 72.418,213.644 73.864 C 212.528 83.219,209.316 91.647,204.807 97.053 C 204.498 97.424,204.284 97.791,204.332 97.869 C 204.938 98.850,209.203 92.073,211.126 87.074 C 213.027 82.132,215.226 70.881,214.291 70.881 C 214.160 70.881,214.032 70.961,214.006 71.058 M175.356 77.592 C 173.496 81.064,170.865 83.613,168.220 84.504 C 167.398 84.781,167.014 85.227,167.598 85.227 C 169.822 85.227,173.984 81.549,175.772 78.004 C 176.403 76.754,176.012 76.367,175.356 77.592 M243.851 85.182 C 243.814 85.246,243.141 86.800,242.357 88.636 C 241.573 90.472,240.544 92.865,240.070 93.953 C 239.596 95.041,239.231 95.954,239.259 95.982 C 239.287 96.011,240.157 95.744,241.193 95.389 C 242.228 95.034,243.131 94.744,243.199 94.744 C 243.270 94.744,243.324 104.519,243.324 117.410 C 243.324 140.597,243.325 140.625,243.869 140.625 C 244.478 140.625,244.460 141.328,244.460 117.514 C 244.460 98.173,244.490 94.744,244.658 94.744 C 244.766 94.744,245.581 95.004,246.469 95.321 C 248.330 95.985,248.794 96.114,248.688 95.937 C 248.646 95.867,247.969 94.308,247.184 92.472 C 244.180 85.448,243.968 84.986,243.851 85.182 M164.302 115.732 C 164.269 115.790,164.197 116.300,164.144 116.865 C 163.504 123.585,158.249 132.116,154.434 132.628 C 152.767 132.851,151.077 131.325,150.068 128.686 C 149.723 127.782,149.436 127.490,149.227 127.828 C 149.183 127.899,149.375 128.490,149.654 129.142 C 152.066 134.786,155.782 134.578,160.226 128.551 C 162.455 125.528,164.375 120.467,164.713 116.726 C 164.806 115.691,164.605 115.204,164.302 115.732 M203.635 127.379 C 203.424 129.782,202.681 132.693,201.651 135.157 C 200.611 137.649,200.962 139.842,202.716 141.811 C 203.447 142.631,203.777 142.788,203.930 142.389 C 203.987 142.241,203.773 141.917,203.296 141.430 C 201.442 139.542,201.263 137.632,202.636 134.422 C 203.687 131.965,204.637 126.278,203.997 126.278 C 203.770 126.278,203.719 126.435,203.635 127.379 M127.743 139.862 C 127.279 141.072,128.272 151.927,129.327 157.175 C 131.325 167.110,136.594 178.908,141.929 185.389 C 142.228 185.751,142.472 186.076,142.472 186.110 C 142.472 186.145,141.514 186.487,140.344 186.872 C 139.174 187.256,138.216 187.603,138.214 187.642 C 138.213 187.681,139.665 188.489,141.442 189.437 C 143.219 190.385,145.652 191.686,146.848 192.329 C 148.044 192.971,149.056 193.463,149.097 193.422 C 149.158 193.360,148.325 190.180,146.523 183.594 C 146.416 183.203,146.257 182.612,146.170 182.280 C 145.990 181.594,145.852 181.527,145.630 182.015 C 145.375 182.575,143.589 185.227,143.468 185.227 C 143.278 185.227,141.304 182.565,140.097 180.682 C 132.951 169.531,129.281 156.900,128.927 142.239 C 128.896 140.978,128.828 139.875,128.774 139.788 C 128.621 139.541,127.845 139.596,127.743 139.862 M159.470 160.748 C 159.418 160.800,159.375 161.847,159.375 163.075 C 159.375 165.565,159.098 167.543,158.450 169.665 C 157.386 173.156,158.754 175.990,161.779 176.559 C 162.471 176.689,162.784 176.625,162.784 176.354 C 162.784 176.253,162.462 176.110,162.038 176.025 C 159.196 175.451,158.077 173.182,159.002 169.870 C 159.657 167.529,159.822 166.461,159.904 164.050 C 159.999 161.229,159.882 160.336,159.470 160.748 " stroke="none" fill="#000000" fill-rule="evenodd"></path></g></svg>