<svg id="svg" version="1.1" xmlns="http://www.w3.org/2000/svg" xmlns:xlink="http://www.w3.org/1999/xlink" width="400" height="218.359375" viewBox="0, 0, 400,218.359375"><g id="svgg"><path id="path0" d="M167.578 7.760 C 167.578 10.001,168.332 16.047,169.914 26.500 C 171.235 35.225,170.686 43.452,168.493 47.778 C 165.603 53.479,161.848 63.388,160.274 69.469 C 158.412 76.659,158.696 84.826,161.163 95.031 C 161.671 97.133,162.261 101.263,162.475 104.211 C 162.689 107.159,163.152 112.998,163.503 117.188 C 164.543 129.595,164.002 139.187,162.237 139.631 C 159.653 140.279,157.311 152.254,158.630 158.076 C 158.991 159.668,158.934 160.403,158.259 162.812 C 157.296 166.254,157.393 166.571,159.792 167.787 C 164.927 170.389,181.038 169.471,186.813 166.247 C 187.811 165.690,188.725 165.234,188.845 165.234 C 188.964 165.234,189.063 175.518,189.063 188.086 L 189.063 210.938 146.094 210.938 C 121.748 210.938,103.125 211.086,103.125 211.280 C 103.125 211.607,268.577 212.309,282.617 212.041 L 289.258 211.914 289.256 187.793 C 289.253 129.456,288.985 36.170,288.823 36.563 C 288.725 36.800,288.608 65.452,288.561 100.235 L 288.477 163.477 254.297 163.571 L 220.117 163.665 222.375 162.399 C 226.395 160.144,227.492 156.504,224.902 154.007 C 223.220 152.384,222.517 152.154,215.733 151.008 C 209.795 150.004,207.255 149.303,205.759 148.255 C 205.289 147.926,204.664 147.656,204.369 147.656 C 204.075 147.656,203.387 147.305,202.841 146.875 C 202.295 146.445,201.547 146.094,201.180 146.094 C 200.812 146.094,200.203 145.752,199.825 145.335 C 199.447 144.917,198.647 144.468,198.047 144.336 C 197.447 144.204,196.647 143.755,196.269 143.337 C 195.891 142.920,195.396 142.578,195.169 142.578 C 194.711 142.578,194.309 142.208,189.251 137.130 C 187.314 135.185,185.447 133.594,185.101 133.594 C 183.914 133.594,183.623 128.243,184.396 120.647 C 184.770 116.977,185.423 113.522,189.098 95.796 C 191.228 85.523,192.960 73.971,192.976 69.933 C 192.994 65.212,194.513 59.044,196.772 54.525 C 199.663 48.740,202.337 38.972,202.341 34.180 C 202.343 31.952,202.580 30.438,203.165 28.906 C 204.052 26.586,206.573 16.046,207.603 10.352 C 207.953 8.418,208.336 6.512,208.454 6.116 C 208.613 5.584,208.492 5.432,207.988 5.530 C 207.435 5.639,207.029 7.035,205.846 12.891 C 204.183 21.125,203.026 25.788,201.931 28.667 C 201.492 29.823,201.169 31.651,201.164 33.008 C 201.146 38.357,198.488 48.624,195.901 53.339 C 193.543 57.636,192.217 63.350,191.599 71.875 C 191.063 79.272,189.333 89.378,186.085 104.102 C 183.532 115.671,183.127 118.708,183.025 127.061 C 182.937 134.198,182.870 134.852,182.139 135.655 C 180.909 137.005,180.469 138.096,180.469 139.791 C 180.469 141.557,180.002 142.001,175.977 144.069 C 171.045 146.602,167.949 146.015,165.782 142.136 L 164.552 139.937 164.928 136.082 C 165.867 126.450,164.077 101.967,161.691 91.797 C 158.579 78.536,160.449 67.775,169.022 49.609 C 171.921 43.466,172.587 36.060,171.116 26.316 C 170.699 23.551,170.078 19.443,169.736 17.188 C 169.394 14.932,169.005 11.372,168.873 9.277 C 168.590 4.808,167.578 3.622,167.578 7.760 M288.846 17.383 C 288.845 24.043,288.899 26.822,288.964 23.560 C 289.029 20.297,289.029 14.847,288.964 11.450 C 288.899 8.053,288.846 10.723,288.846 17.383 M197.891 25.859 C 197.268 26.726,195.745 28.222,194.505 29.185 C 193.265 30.148,192.076 31.402,191.862 31.972 C 191.267 33.561,190.567 36.791,190.774 36.998 C 190.989 37.213,191.791 34.485,191.795 33.528 C 191.799 32.267,192.291 31.631,194.764 29.687 C 196.991 27.937,199.589 24.849,199.178 24.439 C 199.093 24.354,198.514 24.993,197.891 25.859 M176.852 39.063 C 176.943 42.178,177.078 44.902,177.150 45.117 C 177.430 45.946,177.282 36.440,176.992 34.961 C 176.813 34.047,176.755 35.749,176.852 39.063 M189.484 50.725 C 189.435 51.564,190.649 56.017,191.035 56.415 C 191.227 56.613,191.026 55.470,190.588 53.876 C 189.610 50.309,189.523 50.061,189.484 50.725 M205.964 62.402 C 205.505 63.638,204.522 66.169,203.779 68.027 L 202.427 71.406 203.655 71.023 C 206.546 70.121,206.250 67.560,206.250 93.509 C 206.250 116.536,206.259 116.797,207.031 116.797 C 207.804 116.797,207.813 116.536,207.813 93.555 C 207.813 80.549,207.963 70.313,208.154 70.313 C 208.342 70.313,209.234 70.573,210.137 70.892 C 211.041 71.210,211.722 71.335,211.651 71.168 C 211.581 71.002,210.557 68.456,209.375 65.511 C 206.897 59.335,207.049 59.474,205.964 62.402 M216.562 77.252 C 215.241 78.134,214.746 82.406,215.737 84.375 C 216.797 86.480,220.313 85.512,220.313 83.116 C 220.313 82.031,219.748 82.300,219.249 83.624 C 218.341 86.029,216.027 84.324,216.027 81.250 C 216.027 78.319,218.224 76.542,219.200 78.684 C 219.682 79.744,220.313 80.029,220.313 79.188 C 220.313 77.567,217.932 76.338,216.562 77.252 M222.257 78.027 C 221.126 79.461,221.258 84.130,222.453 85.004 C 224.939 86.821,226.953 85.135,226.953 81.237 C 226.953 77.195,224.328 75.401,222.257 78.027 M228.516 81.250 C 228.516 83.854,228.670 85.547,228.906 85.547 C 229.121 85.547,229.297 84.879,229.297 84.063 C 229.297 82.725,229.826 81.641,230.480 81.641 C 230.615 81.641,231.137 82.520,231.641 83.594 C 232.144 84.668,232.804 85.547,233.107 85.547 C 233.411 85.547,233.597 85.415,233.520 85.254 C 233.444 85.093,232.873 83.965,232.250 82.747 C 231.008 80.316,230.936 80.756,233.053 77.832 C 233.591 77.089,233.601 76.953,233.117 76.953 C 232.802 76.953,231.945 77.832,231.213 78.905 C 229.551 81.345,229.297 81.345,229.297 78.906 C 229.297 77.832,229.121 76.953,228.906 76.953 C 228.670 76.953,228.516 78.646,228.516 81.250 M234.766 81.250 C 234.766 83.854,234.920 85.547,235.156 85.547 C 235.371 85.547,235.547 84.756,235.547 83.789 C 235.547 82.041,235.554 82.031,236.914 82.031 C 238.542 82.031,239.844 80.903,239.844 79.492 C 239.844 77.939,238.555 76.953,236.523 76.953 L 234.766 76.953 234.766 81.250 M241.655 79.395 C 241.310 80.737,240.769 82.671,240.454 83.691 C 239.974 85.246,239.968 85.547,240.417 85.547 C 240.712 85.547,241.069 85.020,241.211 84.375 C 241.442 83.324,241.621 83.203,242.951 83.203 C 244.286 83.203,244.457 83.320,244.668 84.375 C 244.797 85.020,245.138 85.547,245.427 85.547 C 245.825 85.547,245.663 84.512,244.753 81.251 C 243.298 76.035,242.623 75.630,241.655 79.395 M246.875 81.250 L 246.875 85.547 250.754 85.547 C 254.479 85.547,254.638 85.582,254.758 86.426 C 254.946 87.748,255.647 87.482,255.786 86.035 C 255.855 85.322,255.727 84.766,255.493 84.766 C 255.228 84.766,255.078 83.358,255.078 80.859 C 255.078 77.648,254.974 76.953,254.492 76.953 C 254.010 76.953,253.906 77.650,253.906 80.884 L 253.906 84.815 252.637 84.693 L 251.367 84.570 251.255 80.762 C 251.107 75.714,250.391 75.795,250.391 80.859 L 250.391 84.766 249.219 84.766 L 248.047 84.766 248.047 80.859 C 248.047 77.648,247.943 76.953,247.461 76.953 C 246.976 76.953,246.875 77.691,246.875 81.250 M256.641 81.250 L 256.641 85.547 258.789 85.547 C 259.971 85.547,260.938 85.371,260.938 85.156 C 260.938 84.941,260.234 84.766,259.375 84.766 C 256.994 84.766,256.902 81.763,259.277 81.567 C 260.083 81.500,260.742 81.270,260.742 81.055 C 260.742 80.840,260.083 80.610,259.277 80.543 C 256.924 80.348,257.015 77.734,259.375 77.734 C 260.234 77.734,260.938 77.559,260.938 77.344 C 260.938 77.129,259.971 76.953,258.789 76.953 L 256.641 76.953 256.641 81.250 M262.500 81.250 C 262.500 83.854,262.654 85.547,262.891 85.547 C 263.105 85.547,263.281 84.668,263.281 83.594 L 263.281 81.641 264.844 81.641 L 266.406 81.641 266.406 83.594 C 266.406 85.069,266.549 85.547,266.992 85.547 C 267.478 85.547,267.578 84.809,267.578 81.250 C 267.578 77.691,267.478 76.953,266.992 76.953 C 266.558 76.953,266.406 77.409,266.406 78.711 L 266.406 80.469 264.844 80.469 L 263.281 80.469 263.281 78.711 C 263.281 77.744,263.105 76.953,262.891 76.953 C 262.654 76.953,262.500 78.646,262.500 81.250 M269.141 81.250 C 269.141 86.969,269.873 87.203,271.886 82.129 L 273.242 78.711 273.355 82.129 C 273.519 87.098,274.219 86.386,274.219 81.250 C 274.219 75.280,273.390 75.511,271.061 82.129 C 270.256 84.419,269.922 83.875,269.922 80.273 C 269.922 78.320,269.761 76.953,269.531 76.953 C 269.295 76.953,269.141 78.646,269.141 81.250 M276.172 81.250 L 276.172 85.547 278.320 85.547 C 279.502 85.547,280.469 85.371,280.469 85.156 C 280.469 84.941,279.678 84.766,278.711 84.766 L 276.953 84.766 276.953 83.203 L 276.953 81.641 278.516 81.641 C 279.644 81.641,280.078 81.478,280.078 81.055 C 280.078 80.632,279.644 80.469,278.516 80.469 C 276.990 80.469,276.953 80.436,276.953 79.102 C 276.953 77.742,276.962 77.734,278.711 77.734 C 279.678 77.734,280.469 77.559,280.469 77.344 C 280.469 77.129,279.502 76.953,278.320 76.953 L 276.172 76.953 276.172 81.250 M225.668 78.906 C 226.730 81.013,225.957 84.457,224.370 84.687 C 223.102 84.870,222.474 83.731,222.474 81.250 C 222.474 77.884,224.429 76.449,225.668 78.906 M238.203 78.203 C 239.396 79.396,238.334 81.422,236.643 81.182 C 235.722 81.052,235.226 79.525,235.701 78.287 C 235.960 77.613,237.559 77.559,238.203 78.203 M243.506 79.736 C 243.922 81.818,243.807 82.422,242.992 82.422 C 241.917 82.422,241.799 82.039,242.299 80.166 C 242.823 78.203,243.174 78.078,243.506 79.736 M233.413 90.546 C 233.297 90.661,233.203 92.572,233.203 94.792 L 233.203 98.828 235.096 98.828 C 237.856 98.828,239.463 96.389,237.679 94.908 C 237.261 94.561,237.201 94.283,237.483 94.001 C 237.969 93.515,238.010 91.809,237.554 91.089 C 237.234 90.585,233.821 90.137,233.413 90.546 M240.332 90.526 C 239.486 90.674,239.453 90.834,239.453 94.774 L 239.453 98.869 241.491 98.751 C 244.148 98.597,245.164 97.242,244.066 95.317 C 243.687 94.652,243.562 94.061,243.773 93.931 C 244.207 93.663,244.254 91.787,243.842 91.175 C 243.500 90.667,241.567 90.310,240.332 90.526 M246.973 90.517 L 245.703 90.674 245.703 94.751 L 245.703 98.828 247.852 98.828 C 249.033 98.828,250.000 98.652,250.000 98.438 C 250.000 98.223,249.297 98.047,248.438 98.047 L 246.875 98.047 246.875 96.484 L 246.875 94.922 248.438 94.922 C 249.297 94.922,250.000 94.746,250.000 94.531 C 250.000 94.316,249.297 94.141,248.438 94.141 L 246.875 94.141 246.875 92.544 L 246.875 90.947 248.438 91.211 C 249.715 91.427,250.000 91.362,250.000 90.855 C 250.000 90.226,249.639 90.186,246.973 90.517 M257.031 90.412 C 257.031 90.510,257.534 91.444,258.149 92.486 L 259.267 94.382 258.143 96.605 C 257.339 98.194,257.171 98.828,257.552 98.828 C 257.845 98.828,258.402 98.125,258.789 97.266 C 259.659 95.337,259.749 95.337,260.852 97.269 C 262.460 100.086,263.027 99.316,261.461 96.440 L 260.423 94.531 261.461 92.623 C 262.604 90.524,262.683 90.234,262.117 90.234 C 261.907 90.234,261.376 90.938,260.938 91.797 C 260.499 92.656,259.995 93.359,259.817 93.359 C 259.639 93.359,259.177 92.656,258.789 91.797 C 258.225 90.547,257.031 89.606,257.031 90.412 M251.563 94.727 C 251.563 97.201,251.718 98.828,251.953 98.828 C 252.168 98.828,252.344 98.037,252.344 97.070 L 252.344 95.313 253.858 95.313 C 255.609 95.313,256.287 94.682,256.334 93.009 C 256.385 91.227,255.661 90.625,253.468 90.625 L 251.563 90.625 251.563 94.727 M236.354 91.420 C 237.801 92.195,237.028 94.141,235.273 94.141 C 234.516 94.141,234.375 93.937,234.375 92.839 C 234.375 90.981,234.870 90.626,236.354 91.420 M242.604 91.420 C 244.090 92.215,243.122 94.141,241.237 94.141 C 240.783 94.141,240.625 93.736,240.625 92.578 C 240.625 90.910,241.115 90.623,242.604 91.420 M255.148 91.645 C 256.351 92.389,255.081 94.531,253.437 94.531 C 252.430 94.531,252.344 94.413,252.344 93.034 C 252.344 91.105,253.416 90.574,255.148 91.645 M320.713 92.959 C 319.123 94.549,319.113 99.181,320.696 100.463 C 322.948 102.287,325.000 100.483,325.000 96.680 C 325.000 92.880,322.747 90.925,320.713 92.959 M334.162 93.146 C 332.026 95.282,333.284 101.172,335.876 101.172 C 338.508 101.172,339.886 95.319,337.756 93.189 C 336.498 91.931,335.390 91.918,334.162 93.146 M326.563 96.680 C 326.563 99.154,326.718 100.781,326.953 100.781 C 327.186 100.781,327.344 99.284,327.344 97.070 L 327.344 93.359 329.102 93.359 L 330.859 93.359 330.859 97.070 C 330.859 99.284,331.017 100.781,331.250 100.781 C 331.486 100.781,331.641 99.154,331.641 96.680 L 331.641 92.578 329.102 92.578 L 326.563 92.578 326.563 96.680 M340.234 96.680 C 340.234 99.154,340.389 100.781,340.625 100.781 C 340.840 100.781,341.016 99.990,341.016 99.023 L 341.016 97.266 342.530 97.266 C 344.280 97.266,344.959 96.635,345.006 94.962 C 345.057 93.180,344.333 92.578,342.140 92.578 L 340.234 92.578 340.234 96.680 M347.277 94.238 C 345.518 100.047,345.363 100.781,345.895 100.781 C 346.185 100.781,346.540 100.244,346.684 99.588 C 347.036 97.988,349.622 97.982,349.995 99.580 C 350.203 100.470,351.162 101.231,351.180 100.521 C 351.185 100.342,350.701 98.482,350.106 96.388 C 348.868 92.035,348.117 91.464,347.277 94.238 M323.737 94.144 C 324.833 96.216,323.819 100.391,322.219 100.391 C 320.711 100.391,320.001 94.899,321.336 93.563 C 322.176 92.723,323.105 92.948,323.737 94.144 M336.692 93.345 C 337.574 93.817,337.974 96.183,337.513 98.202 C 336.591 102.244,333.471 99.605,334.207 95.404 C 334.555 93.415,335.445 92.678,336.692 93.345 M343.981 94.341 C 344.303 95.620,343.560 96.484,342.140 96.484 C 341.089 96.484,341.016 96.383,341.016 94.922 C 341.016 92.939,343.507 92.451,343.981 94.341 M349.047 95.917 L 349.489 97.656 348.332 97.656 C 347.318 97.656,347.206 97.547,347.425 96.777 C 347.562 96.294,347.782 95.409,347.913 94.811 C 348.211 93.444,348.487 93.713,349.047 95.917 M237.263 95.801 C 237.887 96.797,237.102 97.825,235.605 97.974 C 234.404 98.093,234.375 98.058,234.375 96.484 C 234.375 94.699,236.290 94.246,237.263 95.801 M243.359 95.703 C 243.993 96.888,243.214 98.047,241.783 98.047 C 240.692 98.047,240.625 97.956,240.625 96.484 C 240.625 94.659,242.512 94.120,243.359 95.703 M303.320 106.840 C 292.918 112.447,293.101 112.341,293.369 112.627 C 293.545 112.814,312.608 102.757,313.199 102.165 C 314.154 101.211,310.954 102.725,303.320 106.840 M318.185 106.711 C 317.013 108.695,316.897 112.826,317.953 115.007 C 319.115 117.407,319.644 117.290,318.712 114.840 C 317.803 112.446,317.766 110.109,318.599 107.666 C 319.353 105.451,319.174 105.037,318.185 106.711 M321.741 106.272 C 320.347 107.368,320.174 112.361,321.484 113.672 C 322.713 114.901,325.391 114.368,325.391 112.895 C 325.391 112.713,325.497 112.286,325.628 111.946 C 325.781 111.548,325.651 111.328,325.264 111.328 C 324.934 111.328,324.608 111.706,324.539 112.167 C 324.099 115.121,321.484 113.341,321.484 110.087 C 321.484 106.803,323.656 105.108,324.618 107.641 C 325.052 108.780,325.813 108.603,325.507 107.434 C 325.063 105.735,323.167 105.150,321.741 106.272 M351.391 106.055 C 352.855 110.078,352.893 113.473,351.504 116.113 C 351.306 116.489,351.294 116.797,351.476 116.797 C 353.626 116.797,353.969 108.514,351.915 106.189 C 351.211 105.391,351.143 105.374,351.391 106.055 M326.172 106.250 C 326.172 106.465,326.699 106.641,327.344 106.641 L 328.516 106.641 328.516 110.547 C 328.516 115.611,329.232 115.692,329.380 110.645 L 329.492 106.836 330.566 106.712 C 332.734 106.463,331.560 105.859,328.906 105.859 C 327.344 105.859,326.172 106.027,326.172 106.250 M332.813 110.156 L 332.813 114.453 334.743 114.453 C 337.148 114.453,337.727 113.761,335.458 113.597 C 333.796 113.477,333.789 113.470,333.669 111.816 L 333.549 110.156 335.134 110.156 C 336.006 110.156,336.719 109.980,336.719 109.766 C 336.719 109.551,336.016 109.375,335.156 109.375 C 333.631 109.375,333.594 109.342,333.594 108.008 C 333.594 106.648,333.603 106.641,335.352 106.641 C 336.318 106.641,337.109 106.465,337.109 106.250 C 337.109 106.035,336.143 105.859,334.961 105.859 L 332.813 105.859 332.813 110.156 M338.366 110.027 C 338.487 114.599,339.453 116.651,339.453 112.337 L 339.453 110.156 341.016 110.156 L 342.578 110.156 342.578 112.305 C 342.578 113.486,342.754 114.453,342.969 114.453 C 343.205 114.453,343.359 112.760,343.359 110.156 C 343.359 107.552,343.205 105.859,342.969 105.859 C 342.754 105.859,342.578 106.650,342.578 107.617 L 342.578 109.375 341.016 109.375 L 339.453 109.375 339.453 107.617 C 339.453 106.298,339.304 105.859,338.854 105.859 C 338.346 105.859,338.272 106.494,338.366 110.027 M346.281 108.080 C 345.934 109.330,345.398 111.130,345.090 112.081 C 344.197 114.845,344.810 115.631,345.873 113.086 C 346.680 111.156,348.640 111.081,349.128 112.962 C 349.305 113.645,349.662 114.275,349.920 114.361 C 350.566 114.577,350.540 114.398,349.278 109.961 C 347.912 105.155,347.215 104.718,346.281 108.080 M348.408 110.254 C 348.429 110.736,348.140 110.938,347.430 110.938 C 346.380 110.938,346.340 110.448,347.160 107.617 C 347.402 106.778,348.343 108.765,348.408 110.254 M169.197 132.227 C 167.799 140.463,168.392 143.443,171.402 143.314 C 172.214 143.279,172.279 143.225,171.680 143.080 C 169.052 142.444,168.369 140.044,169.325 134.804 C 169.701 132.742,169.946 130.615,169.868 130.078 C 169.788 129.524,169.498 130.452,169.197 132.227 M187.462 137.061 C 188.947 138.936,188.950 138.827,187.377 139.799 C 186.435 140.382,185.705 140.538,184.696 140.374 C 183.934 140.251,182.935 140.351,182.475 140.596 C 180.768 141.510,181.340 138.192,183.212 136.319 C 185.032 134.499,185.497 134.581,187.462 137.061 M190.007 139.791 C 190.254 140.191,185.892 142.986,185.448 142.712 C 184.989 142.429,185.458 141.866,187.207 140.599 C 188.826 139.427,189.637 139.193,190.007 139.791 M164.699 142.583 C 166.755 146.878,170.946 147.882,176.207 145.340 L 177.812 144.565 178.935 145.395 C 179.764 146.008,180.545 146.205,181.923 146.147 C 182.950 146.103,184.235 146.064,184.779 146.059 C 185.324 146.053,187.484 146.850,189.580 147.829 C 191.675 148.808,193.547 149.609,193.739 149.609 C 194.067 149.609,198.826 151.551,199.192 151.834 C 199.648 152.187,196.523 154.731,194.027 156.040 C 192.478 156.852,190.501 158.198,189.634 159.031 L 188.056 160.547 181.612 160.547 L 175.169 160.547 174.028 158.105 C 172.316 154.440,168.685 151.052,163.988 148.737 L 160.236 146.888 160.578 145.369 C 161.707 140.344,163.158 139.363,164.699 142.583 M190.929 141.080 C 190.666 141.868,189.292 142.571,188.713 142.213 C 188.297 141.956,188.434 141.737,189.301 141.268 C 190.666 140.528,191.131 140.475,190.929 141.080 M185.234 141.484 C 183.871 142.848,185.307 143.953,186.949 142.803 C 187.989 142.075,188.899 142.586,188.374 143.603 C 187.584 145.135,188.910 145.925,190.245 144.717 C 191.184 143.867,192.308 144.349,191.691 145.337 C 190.922 146.568,191.924 147.236,193.329 146.429 C 194.645 145.674,195.225 145.935,195.163 147.253 C 195.105 148.465,196.245 148.775,197.287 147.832 C 198.201 147.005,199.251 147.644,198.939 148.838 C 198.641 149.976,199.709 150.166,201.222 149.244 C 202.674 148.358,203.545 148.173,202.812 148.906 C 201.409 150.310,202.905 151.960,204.468 150.731 C 205.555 149.876,208.594 150.202,208.594 151.174 C 208.594 153.695,199.935 151.876,189.713 147.206 C 185.568 145.312,185.310 145.247,182.965 145.498 C 178.427 145.984,177.462 144.565,180.859 142.403 C 182.966 141.062,186.371 140.347,185.234 141.484 M192.356 141.753 C 192.550 142.068,189.437 144.922,188.899 144.922 C 188.192 144.922,188.871 143.663,190.137 142.629 C 191.715 141.340,192.025 141.217,192.356 141.753 M193.750 143.375 C 193.750 143.777,192.209 144.292,191.907 143.990 C 191.517 143.600,192.614 142.617,193.193 142.838 C 193.499 142.956,193.750 143.197,193.750 143.375 M122.065 144.629 C 125.550 162.156,134.717 175.295,149.808 184.393 C 151.310 185.298,152.612 186.104,152.702 186.184 C 152.791 186.263,152.176 186.924,151.335 187.652 L 149.805 188.975 153.320 189.224 C 155.254 189.361,157.935 189.570,159.277 189.689 C 162.356 189.963,162.418 190.173,157.910 185.043 L 154.102 180.709 153.890 182.525 C 153.603 184.989,153.566 184.999,150.732 183.346 C 136.908 175.282,126.828 161.296,123.814 145.996 C 123.391 143.851,123.156 143.359,122.554 143.359 C 121.927 143.359,121.852 143.554,122.065 144.629 M195.313 144.127 C 195.313 144.334,194.654 144.951,193.849 145.498 C 192.060 146.714,191.519 146.008,193.206 144.658 C 194.384 143.715,195.313 143.481,195.313 144.127 M196.410 145.342 C 196.333 145.573,196.103 145.762,195.898 145.762 C 195.694 145.762,195.464 145.573,195.387 145.342 C 195.310 145.111,195.540 144.922,195.898 144.922 C 196.257 144.922,196.486 145.111,196.410 145.342 M198.438 145.917 C 198.438 146.214,196.356 148.019,195.996 148.035 C 195.484 148.056,195.680 147.157,196.350 146.417 C 196.939 145.766,198.438 145.407,198.438 145.917 M199.639 146.982 C 199.590 147.449,199.055 147.359,198.887 146.855 C 198.801 146.598,198.941 146.457,199.199 146.543 C 199.457 146.629,199.655 146.827,199.639 146.982 M201.719 147.594 C 201.970 147.999,199.792 149.662,199.455 149.324 C 199.191 149.061,200.727 147.266,201.217 147.266 C 201.382 147.266,201.608 147.413,201.719 147.594 M162.611 148.679 C 169.360 152.067,175.935 159.115,173.759 160.630 C 173.079 161.104,163.055 160.714,161.466 160.152 C 159.555 159.476,158.619 153.325,159.786 149.121 C 160.270 147.378,160.078 147.408,162.611 148.679 M204.819 149.089 C 205.108 149.379,203.978 150.781,203.455 150.781 C 202.933 150.781,203.071 149.306,203.613 149.087 C 204.328 148.798,204.528 148.799,204.819 149.089 M213.867 151.953 C 216.206 152.383,218.613 152.734,219.216 152.734 C 223.021 152.734,218.894 154.235,213.854 154.684 C 209.502 155.072,208.233 155.446,206.314 156.909 C 203.957 158.707,202.060 156.676,203.724 154.136 C 204.161 153.469,204.833 153.155,206.208 152.972 C 207.343 152.822,208.373 152.413,208.795 151.947 C 209.180 151.521,209.523 151.172,209.556 151.172 C 209.588 151.172,211.528 151.523,213.867 151.953 M203.027 152.834 C 203.626 152.872,203.633 152.748,202.930 154.432 C 201.566 157.696,203.716 159.672,206.402 157.624 C 208.300 156.176,210.311 155.509,212.891 155.472 C 215.318 155.437,219.299 154.662,220.580 153.974 C 221.677 153.384,221.994 153.394,221.628 154.004 C 221.440 154.316,221.580 154.293,222.017 153.938 C 223.900 152.409,224.878 157.153,223.055 158.976 C 221.760 160.271,217.850 160.742,208.398 160.742 C 196.279 160.742,189.453 160.529,189.453 160.149 C 189.453 159.566,191.618 158.017,194.885 156.264 C 196.680 155.301,198.561 153.962,199.088 153.270 C 199.967 152.118,200.140 152.051,201.291 152.411 C 201.977 152.627,202.759 152.817,203.027 152.834 M224.435 159.202 C 222.156 162.680,218.551 163.408,202.734 163.579 L 189.258 163.726 186.133 165.237 C 182.034 167.220,179.758 167.616,171.094 167.852 C 160.373 168.145,158.170 167.231,159.440 163.017 L 160.167 160.605 161.431 160.969 C 163.414 161.540,216.908 161.582,219.472 161.015 C 222.934 160.249,223.565 159.797,224.219 157.617 C 224.792 155.706,224.807 155.692,224.929 156.961 C 224.999 157.686,224.781 158.675,224.435 159.202 M288.281 187.891 L 288.281 210.938 239.258 210.938 L 190.234 210.938 190.234 187.891 L 190.234 164.844 239.258 164.844 L 288.281 164.844 288.281 187.891 M62.109 176.563 C 62.109 180.122,62.210 180.859,62.695 180.859 C 63.129 180.859,63.281 180.404,63.281 179.102 C 63.281 177.409,63.325 177.344,64.453 177.344 C 66.722 177.344,67.898 175.016,66.579 173.134 C 66.090 172.436,65.593 172.266,64.040 172.266 L 62.109 172.266 62.109 176.563 M68.595 176.387 C 67.986 178.653,67.605 180.626,67.749 180.770 C 68.087 181.108,68.736 180.084,68.744 179.199 C 68.756 177.835,71.760 178.276,72.070 179.688 C 72.212 180.332,72.565 180.859,72.855 180.859 C 73.266 180.859,73.301 180.577,73.016 179.590 C 72.814 178.892,72.279 176.958,71.828 175.293 C 70.642 170.913,70.010 171.126,68.595 176.387 M75.187 172.809 C 74.135 173.579,73.845 178.474,74.770 179.884 C 76.032 181.811,79.297 180.762,79.297 178.429 C 79.297 177.291,78.189 177.629,78.053 178.809 C 77.922 179.952,76.847 180.393,75.816 179.726 C 74.949 179.164,74.763 175.224,75.547 174.028 C 76.381 172.755,77.642 172.753,78.125 174.023 C 78.513 175.044,79.297 175.363,79.297 174.501 C 79.297 172.663,76.795 171.633,75.187 172.809 M80.078 172.656 C 80.078 172.871,80.518 173.047,81.055 173.047 L 82.031 173.047 82.031 176.953 C 82.031 180.165,82.135 180.859,82.617 180.859 C 83.099 180.859,83.203 180.165,83.203 176.953 L 83.203 173.047 84.180 173.047 C 84.717 173.047,85.156 172.871,85.156 172.656 C 85.156 172.436,84.049 172.266,82.617 172.266 C 81.185 172.266,80.078 172.436,80.078 172.656 M86.719 173.047 C 85.716 174.049,85.721 175.565,86.729 176.573 L 87.521 177.365 86.497 179.112 C 85.666 180.529,85.589 180.859,86.088 180.859 C 86.426 180.859,87.082 180.112,87.545 179.199 C 88.966 176.396,89.844 176.367,89.844 179.125 C 89.844 180.079,90.020 180.859,90.234 180.859 C 90.471 180.859,90.625 179.167,90.625 176.563 L 90.625 172.266 89.063 172.266 C 88.021 172.266,87.240 172.526,86.719 173.047 M92.203 172.559 C 92.212 172.720,92.707 173.534,93.303 174.368 L 94.387 175.884 93.066 178.372 C 92.124 180.146,91.902 180.859,92.295 180.859 C 92.597 180.859,93.328 179.972,93.918 178.887 C 95.173 176.581,96.094 176.774,96.094 179.345 C 96.094 180.178,96.270 180.859,96.484 180.859 C 96.699 180.859,96.875 180.178,96.875 179.345 C 96.875 176.756,97.828 176.547,99.008 178.876 C 99.562 179.969,100.284 180.859,100.616 180.859 C 101.081 180.859,100.908 180.283,99.858 178.339 L 98.496 175.818 99.667 174.201 C 102.048 170.914,100.320 171.854,97.776 175.230 L 96.918 176.367 96.897 174.316 C 96.868 171.560,96.163 171.693,96.016 174.483 L 95.898 176.700 94.430 174.483 C 93.136 172.530,92.156 171.682,92.203 172.559 M102.155 174.512 C 102.181 175.747,102.235 177.681,102.273 178.809 L 102.344 180.859 104.297 180.859 C 105.371 180.859,106.250 180.684,106.250 180.469 C 106.250 180.254,105.547 180.078,104.688 180.078 L 103.125 180.078 103.125 178.516 C 103.125 176.892,103.149 176.874,105.371 176.822 C 107.185 176.780,105.936 175.781,104.070 175.781 C 103.250 175.781,103.125 175.600,103.125 174.414 C 103.125 173.079,103.162 173.047,104.688 173.047 C 105.547 173.047,106.250 172.871,106.250 172.656 C 106.250 172.441,105.318 172.266,104.178 172.266 L 102.107 172.266 102.155 174.512 M107.813 176.563 C 107.813 180.939,108.452 182.613,108.671 178.809 L 108.789 176.758 110.352 176.758 L 111.914 176.758 112.032 178.809 C 112.251 182.613,112.891 180.939,112.891 176.563 C 112.891 173.958,112.737 172.266,112.500 172.266 C 112.285 172.266,112.109 173.057,112.109 174.023 L 112.109 175.781 110.352 175.781 L 108.594 175.781 108.594 174.023 C 108.594 173.057,108.418 172.266,108.203 172.266 C 107.966 172.266,107.813 173.958,107.813 176.563 M114.453 176.563 C 114.453 182.325,115.239 182.574,117.229 177.441 L 118.555 174.023 118.668 177.441 C 118.756 180.127,118.903 180.859,119.351 180.859 C 119.817 180.859,119.922 180.071,119.922 176.563 C 119.922 170.799,119.126 170.541,117.138 175.661 L 115.820 179.057 115.707 175.661 C 115.619 172.995,115.472 172.266,115.024 172.266 C 114.558 172.266,114.453 173.054,114.453 176.563 M121.484 176.563 L 121.484 180.859 123.633 180.859 C 126.154 180.859,126.542 180.178,124.121 180.003 C 122.510 179.886,122.457 179.840,122.340 178.418 L 122.218 176.953 123.805 176.953 C 124.954 176.953,125.391 176.792,125.391 176.367 C 125.391 175.942,124.954 175.781,123.803 175.781 C 121.287 175.781,121.583 173.306,124.121 173.122 C 126.542 172.947,126.154 172.266,123.633 172.266 L 121.484 172.266 121.484 176.563 M65.811 173.818 C 66.739 174.843,65.760 176.563,64.249 176.563 C 63.362 176.563,63.281 176.415,63.281 174.805 C 63.281 172.793,64.466 172.331,65.811 173.818 M89.844 174.622 C 89.844 177.126,87.470 177.291,87.176 174.808 C 87.035 173.615,87.598 173.062,88.965 173.053 C 89.732 173.048,89.844 173.247,89.844 174.622 M70.822 174.902 C 70.941 175.493,71.158 176.284,71.303 176.660 C 71.518 177.216,71.354 177.344,70.426 177.344 L 69.284 177.344 69.692 175.586 C 70.159 173.573,70.511 173.360,70.822 174.902 M211.472 185.687 C 209.597 187.300,210.070 192.908,212.137 193.564 C 213.820 194.097,215.625 192.769,215.625 190.997 C 215.625 190.235,214.503 190.657,214.383 191.464 C 214.314 191.925,213.939 192.497,213.550 192.734 C 211.630 193.901,210.335 188.102,212.118 186.319 C 212.992 185.445,214.453 185.826,214.453 186.928 C 214.453 187.243,214.717 187.500,215.039 187.500 C 215.899 187.500,215.755 186.813,214.666 185.724 C 213.469 184.527,212.829 184.520,211.472 185.687 M216.016 185.547 C 216.016 185.762,216.543 185.938,217.188 185.938 L 218.359 185.938 218.359 189.844 C 218.359 192.188,218.516 193.750,218.750 193.750 C 218.984 193.750,219.141 192.188,219.141 189.844 L 219.141 185.938 220.313 185.938 C 220.957 185.938,221.484 185.762,221.484 185.547 C 221.484 185.324,220.313 185.156,218.750 185.156 C 217.188 185.156,216.016 185.324,216.016 185.547 M222.073 185.840 C 223.930 190.349,224.365 192.287,223.638 192.818 C 222.752 193.466,223.204 194.085,224.140 193.507 C 224.731 193.141,227.218 186.944,227.309 185.612 C 227.404 184.202,226.309 185.695,225.679 187.833 C 224.836 190.696,224.589 190.658,223.638 187.519 C 223.192 186.046,222.710 185.156,222.357 185.156 C 221.972 185.156,221.881 185.374,222.073 185.840 M228.516 189.476 C 228.516 192.257,228.655 193.710,228.906 193.555 C 229.122 193.421,229.297 191.663,229.297 189.625 L 229.297 185.938 230.845 185.938 L 232.394 185.938 232.505 189.650 C 232.661 194.814,233.371 194.605,233.509 189.355 L 233.620 185.156 231.068 185.156 L 228.516 185.156 228.516 189.476 M235.156 189.258 C 235.156 193.242,235.181 193.360,236.035 193.389 C 236.519 193.406,237.485 193.450,238.184 193.487 C 238.975 193.529,239.453 193.371,239.453 193.066 C 239.453 192.748,238.841 192.578,237.695 192.578 L 235.938 192.578 235.938 191.016 L 235.938 189.453 237.500 189.453 C 238.359 189.453,239.063 189.277,239.063 189.063 C 239.063 188.848,238.359 188.672,237.500 188.672 C 235.975 188.672,235.938 188.639,235.938 187.305 C 235.938 185.945,235.947 185.938,237.695 185.938 C 238.662 185.938,239.453 185.762,239.453 185.547 C 239.453 185.332,238.486 185.156,237.305 185.156 L 235.156 185.156 235.156 189.258 M240.709 189.324 C 240.831 193.896,241.797 195.948,241.797 191.634 L 241.797 189.453 243.359 189.453 L 244.922 189.453 244.922 191.634 C 244.922 193.016,245.076 193.764,245.342 193.675 C 245.573 193.598,245.749 193.408,245.732 193.252 C 245.716 193.096,245.703 191.211,245.703 189.063 C 245.703 186.719,245.547 185.156,245.313 185.156 C 245.098 185.156,244.922 185.947,244.922 186.914 L 244.922 188.672 243.359 188.672 L 241.797 188.672 241.797 186.914 C 241.797 185.595,241.647 185.156,241.198 185.156 C 240.690 185.156,240.615 185.791,240.709 189.324 M247.656 189.485 L 247.656 193.814 249.499 193.564 C 253.366 193.040,253.614 188.672,249.777 188.672 C 248.450 188.672,248.438 188.656,248.438 186.914 C 248.438 185.947,248.262 185.156,248.047 185.156 C 247.810 185.156,247.656 186.860,247.656 189.485 M253.906 189.476 C 253.906 192.257,254.045 193.710,254.297 193.555 C 254.512 193.422,254.688 192.642,254.688 191.822 C 254.688 189.367,255.566 189.139,256.641 191.315 C 257.143 192.332,257.744 193.293,257.976 193.451 C 259.043 194.176,258.949 193.555,257.631 191.157 L 256.206 188.564 257.400 187.079 C 258.720 185.436,258.825 185.151,258.105 185.168 C 257.837 185.174,256.958 186.089,256.152 187.200 L 254.688 189.221 254.688 187.188 C 254.688 186.071,254.512 185.156,254.297 185.156 C 254.060 185.156,253.906 186.857,253.906 189.476 M261.549 185.616 C 260.698 188.245,259.374 193.489,259.524 193.639 C 259.908 194.022,260.452 193.343,260.682 192.196 C 261.057 190.320,263.425 190.451,264.063 192.383 C 264.632 194.110,265.398 194.214,265.025 192.514 C 263.762 186.763,262.188 183.640,261.549 185.616 M81.641 189.844 L 81.641 194.141 83.229 194.141 C 86.012 194.141,87.583 191.646,85.876 189.938 C 85.533 189.596,85.544 189.341,85.920 188.889 C 87.164 187.389,85.437 185.547,82.787 185.547 L 81.641 185.547 81.641 189.844 M87.891 189.844 C 87.891 192.448,88.045 194.141,88.281 194.141 C 88.496 194.141,88.672 193.262,88.672 192.188 L 88.672 190.234 90.430 190.234 L 92.188 190.234 92.188 192.188 C 92.188 193.262,92.363 194.141,92.578 194.141 C 92.815 194.141,92.969 192.448,92.969 189.844 C 92.969 187.240,92.815 185.547,92.578 185.547 C 92.363 185.547,92.188 186.338,92.188 187.305 L 92.188 189.063 90.430 189.063 L 88.672 189.063 88.672 187.305 C 88.672 186.338,88.496 185.547,88.281 185.547 C 88.045 185.547,87.891 187.240,87.891 189.844 M94.798 185.801 C 94.651 185.948,94.531 187.884,94.531 190.104 C 94.531 195.509,95.248 195.665,97.346 190.719 L 98.794 187.305 98.811 190.723 C 98.825 193.493,98.939 194.141,99.414 194.141 C 99.897 194.141,100.000 193.427,100.000 190.062 C 100.000 184.321,99.057 184.028,97.081 189.155 C 95.597 193.005,95.482 193.024,95.646 189.401 C 95.778 186.503,95.457 185.142,94.798 185.801 M102.176 186.161 C 101.580 186.757,101.329 187.891,101.793 187.891 C 101.920 187.891,102.326 187.517,102.696 187.060 C 103.191 186.448,103.601 186.302,104.246 186.507 C 105.418 186.879,105.257 188.703,104.004 189.253 C 102.911 189.732,102.866 190.234,103.915 190.234 C 104.985 190.234,105.774 191.935,105.088 192.762 C 104.357 193.642,102.705 193.527,102.457 192.578 C 102.224 191.689,101.172 191.506,101.172 192.354 C 101.172 194.024,104.265 194.911,105.760 193.671 C 106.443 193.103,106.373 190.823,105.654 190.226 C 105.120 189.783,105.120 189.663,105.654 189.073 C 107.448 187.091,104.073 184.265,102.176 186.161 M84.538 186.565 C 85.586 186.967,85.334 189.003,84.202 189.287 C 82.919 189.609,82.422 189.231,82.422 187.933 C 82.422 186.372,83.023 185.984,84.538 186.565 M263.252 189.551 C 263.272 190.033,262.984 190.234,262.274 190.234 C 261.223 190.234,261.184 189.745,262.003 186.914 C 262.246 186.075,263.187 188.062,263.252 189.551 M251.168 190.034 C 251.889 190.903,251.330 192.524,250.212 192.804 C 248.843 193.148,248.438 192.733,248.438 190.993 C 248.438 189.304,250.083 188.727,251.168 190.034 M85.310 191.113 C 85.934 192.109,85.149 193.137,83.652 193.286 C 82.451 193.406,82.422 193.370,82.422 191.797 C 82.422 190.012,84.337 189.558,85.310 191.113 " stroke="none" fill="#000000" fill-rule="evenodd"></path></g></svg>