<svg id="svg" version="1.1" xmlns="http://www.w3.org/2000/svg" xmlns:xlink="http://www.w3.org/1999/xlink" width="400" height="218.1818181818182" viewBox="0, 0, 400,218.1818181818182"><g id="svgg"><path id="path2" d="M167.275 5.447 C 166.629 6.160,167.262 12.227,169.484 26.623 C 170.340 32.172,170.406 37.038,169.689 41.762 L 169.130 45.445 167.395 49.073 C 164.346 55.446,161.135 63.977,159.868 69.067 C 157.780 77.460,158.100 85.182,161.003 96.454 C 161.394 97.973,161.707 99.868,161.794 101.255 C 161.940 103.552,162.728 113.634,163.340 121.016 C 163.756 126.046,163.755 131.119,163.335 134.861 C 162.902 138.725,162.927 138.644,162.037 139.069 C 161.613 139.271,160.997 139.827,160.666 140.306 C 159.716 141.681,158.867 141.626,155.592 139.978 C 152.018 138.181,150.936 136.235,151.773 133.115 C 152.229 131.417,152.187 130.447,151.628 129.736 C 151.039 128.988,151.047 128.689,151.743 125.002 C 152.472 121.147,152.688 118.690,152.980 110.966 C 153.112 107.485,153.342 101.986,153.491 98.747 C 153.711 93.974,153.710 92.483,153.482 90.891 C 150.944 73.115,152.814 64.636,163.324 46.274 C 167.159 39.575,167.614 34.531,165.739 19.531 C 165.334 16.290,164.893 12.362,164.759 10.802 C 164.341 5.928,164.310 5.716,163.983 5.591 C 163.015 5.219,163.352 11.047,164.990 22.991 C 165.964 30.096,165.916 33.633,164.771 39.174 C 164.097 42.437,163.816 43.161,162.338 45.442 C 159.875 49.244,155.111 59.574,153.210 65.234 C 150.933 72.016,150.464 79.413,151.792 87.616 C 152.522 92.127,152.550 93.283,152.151 102.564 C 151.401 120.023,151.312 121.229,150.442 125.586 C 149.856 128.522,149.851 128.530,147.497 129.842 C 143.128 132.277,137.892 137.470,136.205 141.042 C 135.573 142.378,135.403 142.550,133.376 143.900 C 130.013 146.138,129.823 146.602,131.126 149.387 C 132.575 152.484,134.415 154.435,139.444 158.210 C 140.464 158.975,141.789 160.013,142.390 160.516 C 142.990 161.019,144.905 162.358,146.645 163.492 C 150.243 165.837,152.437 167.548,155.262 170.213 C 156.344 171.234,157.916 172.656,158.756 173.374 C 159.596 174.092,160.899 175.243,161.651 175.933 C 170.471 184.022,183.132 187.606,187.289 183.188 C 188.071 182.357,188.232 182.268,188.361 182.595 C 188.658 183.345,188.570 210.104,188.271 210.298 C 188.121 210.395,168.977 210.474,145.728 210.474 C 101.131 210.475,102.530 210.444,103.138 211.408 C 103.402 211.825,128.320 211.975,239.015 212.222 L 288.941 212.333 289.481 211.794 L 290.020 211.254 289.908 187.406 C 289.728 148.876,289.559 37.466,289.681 36.962 C 289.742 36.707,290.088 36.376,290.448 36.227 C 292.429 35.406,292.391 32.846,290.365 30.604 L 289.580 29.734 289.580 17.831 C 289.580 5.544,289.564 5.237,288.946 5.237 C 288.060 5.237,288.052 5.341,288.052 16.854 C 288.052 26.701,288.014 27.961,287.712 28.077 C 287.034 28.337,284.750 25.556,282.934 22.260 C 280.601 18.027,278.229 15.956,273.919 14.392 C 271.412 13.482,270.758 12.992,269.559 11.131 C 269.134 10.472,268.383 9.431,267.890 8.819 C 267.397 8.206,266.677 7.248,266.289 6.689 C 265.596 5.691,265.139 5.399,265.139 5.956 C 265.139 6.112,265.843 7.217,266.703 8.411 C 269.519 12.322,269.696 12.657,268.958 12.657 C 267.537 12.657,269.501 13.823,272.231 14.602 C 277.417 16.081,280.573 18.733,282.922 23.587 C 283.773 25.346,284.787 26.515,287.793 29.204 C 289.568 30.792,289.891 31.318,289.241 31.568 C 288.974 31.670,289.032 31.779,289.514 32.080 C 291.212 33.141,291.595 34.282,290.532 35.118 C 289.737 35.743,289.488 35.695,288.420 34.711 C 287.595 33.951,287.461 33.894,287.258 34.216 C 286.895 34.791,286.201 34.340,283.549 31.807 C 281.298 29.658,278.739 28.151,277.341 28.151 C 276.770 28.151,277.280 28.654,278.314 29.111 C 279.785 29.762,279.829 29.840,279.880 31.878 C 279.903 32.802,279.988 33.664,280.069 33.794 C 280.149 33.924,280.352 34.809,280.519 35.761 C 280.850 37.643,282.934 41.873,285.940 46.767 C 287.824 49.833,288.378 51.489,287.920 52.683 C 287.680 53.309,286.991 53.070,286.552 52.208 C 286.308 51.730,285.779 51.188,285.284 50.910 C 284.817 50.648,284.135 50.059,283.767 49.603 C 283.400 49.146,282.359 47.965,281.453 46.979 C 280.547 45.992,279.338 44.372,278.767 43.378 C 277.346 40.904,276.294 39.379,275.076 38.025 C 273.946 36.768,273.277 36.458,274.137 37.589 C 275.562 39.464,275.669 40.335,274.362 39.429 C 272.587 38.199,271.451 36.749,269.527 33.256 C 263.606 22.512,263.533 22.397,261.295 20.350 C 260.278 19.419,258.658 17.706,257.696 16.542 C 255.874 14.338,246.651 5.674,246.127 5.674 C 245.577 5.674,246.121 6.406,247.736 7.840 C 251.687 11.349,256.255 15.832,257.603 17.525 C 258.387 18.508,259.664 19.833,260.443 20.468 C 262.493 22.142,265.488 26.833,269.480 34.625 C 270.216 36.062,270.941 37.140,271.534 37.681 C 272.037 38.140,273.088 39.197,273.868 40.030 C 274.648 40.862,276.282 42.580,277.498 43.848 C 281.441 47.959,283.287 50.054,284.240 51.500 C 285.429 53.304,286.299 54.128,287.216 54.316 L 287.943 54.464 287.998 108.561 C 288.042 151.695,287.998 162.693,287.780 162.831 C 287.418 163.061,223.649 163.056,223.287 162.827 C 223.087 162.700,223.332 162.403,224.140 161.793 C 227.170 159.508,227.590 156.034,225.138 153.544 C 223.418 151.798,223.065 151.680,215.930 150.463 C 210.056 149.461,207.244 148.713,206.100 147.848 C 205.734 147.571,205.077 147.246,204.640 147.125 C 204.203 147.004,203.520 146.660,203.123 146.360 C 202.726 146.060,202.047 145.719,201.616 145.602 C 201.185 145.485,200.332 145.046,199.722 144.626 C 199.112 144.207,198.344 143.796,198.017 143.713 C 197.689 143.631,197.026 143.226,196.543 142.813 C 196.061 142.400,195.542 142.062,195.390 142.062 C 195.238 142.062,194.628 141.596,194.035 141.026 C 193.441 140.456,192.248 139.400,191.383 138.680 C 190.518 137.960,189.389 136.830,188.873 136.170 C 187.600 134.542,186.733 133.753,185.642 133.229 C 183.365 132.135,184.114 121.269,187.568 105.292 C 191.421 87.467,192.692 79.951,193.344 71.140 C 193.967 62.710,194.643 59.945,197.614 53.682 C 198.714 51.364,199.567 49.134,200.327 46.590 C 202.384 39.708,202.549 38.891,202.727 34.697 C 202.879 31.137,202.937 30.753,203.588 29.028 C 205.598 23.707,209.313 6.018,208.576 5.281 C 207.598 4.303,206.806 5.287,206.327 8.074 C 205.135 15.011,203.122 23.545,201.628 27.996 C 200.554 31.198,200.546 31.246,200.546 34.023 C 200.546 37.320,200.161 39.754,199.136 42.951 C 198.725 44.233,198.134 46.214,197.822 47.354 C 197.489 48.569,196.501 51.008,195.432 53.246 C 192.681 59.012,191.923 62.135,191.274 70.376 C 190.556 79.489,188.982 88.812,185.488 104.637 C 182.897 116.371,181.979 124.098,182.427 130.402 C 182.552 132.159,182.705 133.679,182.767 133.780 C 182.829 133.880,182.423 134.477,181.864 135.105 C 180.472 136.673,180.043 137.703,180.038 139.496 L 180.033 140.967 178.996 141.725 C 177.286 142.975,173.732 144.639,172.204 144.905 C 169.014 145.459,167.552 144.619,165.882 141.271 L 164.998 139.499 165.340 136.470 C 166.213 128.753,164.652 101.990,162.923 95.035 C 158.877 78.750,160.214 69.451,169.428 49.801 C 171.239 45.939,171.504 44.987,172.078 40.262 C 172.603 35.939,172.423 31.857,171.414 25.205 C 169.981 15.761,169.583 12.737,169.326 9.346 C 169.011 5.196,168.456 4.141,167.275 5.447 M168.338 5.860 C 168.401 5.962,168.560 7.410,168.692 9.078 C 168.967 12.576,169.635 17.586,170.797 24.877 C 172.215 33.776,171.899 42.765,170.017 47.083 C 169.664 47.892,168.689 50.039,167.851 51.855 C 159.456 70.039,158.434 78.376,162.458 95.871 C 164.125 103.115,165.520 127.371,164.779 136.209 L 164.474 139.849 165.408 141.665 C 167.175 145.103,168.651 145.952,172.094 145.514 C 173.793 145.298,177.570 143.557,179.487 142.105 L 180.578 141.279 180.594 139.761 C 180.613 137.891,181.000 136.954,182.346 135.515 L 183.376 134.413 183.123 132.073 C 182.415 125.543,183.217 117.808,185.843 105.837 C 189.646 88.505,191.160 79.536,191.920 69.831 C 192.509 62.320,193.485 58.368,195.950 53.517 C 196.788 51.868,197.669 49.880,197.909 49.100 C 200.913 39.304,200.976 39.022,201.122 34.697 C 201.240 31.170,201.262 31.039,202.196 28.260 C 203.392 24.703,204.809 18.952,205.987 12.875 C 207.315 6.020,207.374 5.783,207.747 5.783 C 208.279 5.783,208.243 6.514,207.523 10.282 C 205.995 18.274,204.663 23.830,203.146 28.532 C 202.084 31.826,202.073 31.889,202.069 34.751 C 202.065 38.153,201.885 39.109,200.088 45.281 C 199.043 48.873,198.388 50.642,197.058 53.464 C 194.217 59.497,193.455 62.547,192.810 70.486 C 192.064 79.655,190.346 90.237,187.777 101.473 C 183.559 119.926,182.504 133.770,185.317 133.770 C 185.815 133.770,187.430 135.242,188.667 136.825 C 189.183 137.485,190.261 138.565,191.062 139.225 C 191.863 139.885,193.004 140.892,193.598 141.462 C 194.192 142.032,194.809 142.499,194.969 142.499 C 195.130 142.499,195.731 142.888,196.307 143.363 C 196.882 143.838,197.609 144.284,197.921 144.352 C 198.234 144.421,199.064 144.867,199.766 145.343 C 200.467 145.819,201.207 146.208,201.410 146.208 C 201.614 146.208,202.214 146.495,202.745 146.846 C 203.276 147.197,204.004 147.555,204.364 147.642 C 204.724 147.730,205.412 148.071,205.892 148.401 C 207.318 149.382,209.919 150.073,216.070 151.102 C 222.656 152.205,223.378 152.455,224.956 154.182 C 227.307 156.754,226.276 160.014,222.423 162.188 C 221.782 162.550,221.295 162.957,221.340 163.092 C 221.452 163.429,287.877 163.557,288.504 163.222 C 288.862 163.030,288.963 163.084,289.146 163.562 C 289.483 164.449,289.438 211.075,289.100 211.413 C 288.746 211.767,189.834 211.797,189.173 211.443 C 188.878 211.285,188.783 211.079,188.874 210.792 C 189.113 210.039,189.060 165.623,188.820 165.383 C 188.672 165.235,187.930 165.487,186.553 166.151 C 180.168 169.233,164.530 170.206,160.217 167.789 C 157.507 166.270,157.309 165.671,158.429 162.357 C 159.189 160.107,159.207 159.830,158.719 157.842 C 157.281 151.984,159.986 139.444,162.687 139.444 C 163.938 139.444,164.679 129.833,164.025 122.095 C 163.537 116.323,162.859 107.849,162.471 102.673 C 162.231 99.476,161.993 97.754,161.582 96.236 C 158.774 85.880,158.397 77.271,160.402 69.340 C 161.745 64.031,165.348 54.455,167.976 49.211 C 170.862 43.453,171.539 36.381,170.110 26.950 C 168.293 14.966,167.347 6.850,167.670 6.010 C 167.810 5.643,168.156 5.565,168.338 5.860 M197.551 25.583 C 196.847 26.452,195.308 27.950,194.131 28.912 C 191.527 31.041,190.507 33.102,190.507 36.235 C 190.507 38.021,191.483 37.050,191.945 34.805 C 192.473 32.240,192.815 31.723,195.171 29.929 C 197.672 28.024,199.454 25.745,199.454 24.452 C 199.454 23.628,198.842 23.992,197.551 25.583 M283.354 32.606 C 284.318 33.616,285.769 34.852,286.579 35.353 L 288.052 36.264 288.052 39.177 C 288.052 42.353,287.937 42.657,286.994 41.960 C 286.459 41.565,286.116 40.791,285.765 39.191 C 285.602 38.445,284.630 37.467,283.144 36.552 C 281.304 35.420,280.082 32.997,280.504 31.318 C 280.757 30.308,281.467 30.629,283.354 32.606 M287.849 32.390 C 287.575 32.682,287.403 33.050,287.466 33.209 C 287.545 33.406,287.587 33.382,287.599 33.131 C 287.608 32.930,287.875 32.561,288.191 32.313 C 288.507 32.064,288.672 31.860,288.556 31.860 C 288.441 31.860,288.123 32.099,287.849 32.390 M176.172 32.872 C 176.097 33.068,176.150 34.516,176.289 36.090 C 176.583 39.416,176.602 43.498,176.335 45.809 C 176.035 48.394,176.559 48.823,177.269 46.573 C 178.478 42.741,177.427 29.602,176.172 32.872 M284.137 38.336 C 285.609 39.665,285.089 40.195,283.326 39.162 C 282.389 38.613,281.586 37.497,281.837 37.092 C 282.015 36.804,283.078 37.378,284.137 38.336 M285.618 41.657 C 287.333 42.822,288.048 43.925,287.690 44.857 C 287.221 46.081,283.704 42.951,283.692 41.298 C 283.686 40.588,284.179 40.680,285.618 41.657 M287.531 46.815 C 287.730 47.119,287.822 47.438,287.736 47.525 C 287.572 47.688,286.743 46.797,286.743 46.457 C 286.743 46.076,287.176 46.272,287.531 46.815 M189.405 49.795 C 188.781 52.111,190.425 57.562,191.395 56.393 C 191.605 56.139,191.555 55.729,191.149 54.387 C 190.869 53.460,190.585 51.867,190.519 50.848 C 190.374 48.625,189.853 48.133,189.405 49.795 M206.510 60.055 C 206.122 60.561,202.291 70.406,202.291 70.896 C 202.291 71.587,202.791 71.678,204.283 71.259 C 205.009 71.055,205.669 70.953,205.748 71.032 C 205.827 71.112,205.921 81.401,205.956 93.897 C 206.024 118.038,205.982 117.185,207.111 117.185 C 208.208 117.185,208.183 117.728,208.187 93.904 C 208.188 81.564,208.275 71.333,208.379 71.169 C 208.538 70.919,208.750 70.930,209.680 71.239 C 212.388 72.138,212.392 71.805,209.750 65.248 C 207.557 59.803,207.173 59.189,206.510 60.055 M209.368 65.892 C 211.444 71.091,211.445 71.125,209.506 70.581 C 207.359 69.979,207.594 66.391,207.549 100.546 C 207.529 116.076,207.517 116.530,207.116 116.530 C 206.434 116.530,206.438 116.638,206.438 93.399 C 206.438 81.056,206.378 70.802,206.305 70.613 C 206.137 70.175,205.689 70.177,204.386 70.621 C 202.645 71.214,202.657 71.027,204.680 65.963 C 206.917 60.363,206.834 60.530,207.208 60.913 C 207.368 61.077,208.340 63.318,209.368 65.892 M216.487 76.766 C 214.995 77.589,214.238 80.940,214.948 83.577 C 215.765 86.611,219.444 86.955,220.534 84.098 L 220.917 83.095 221.418 84.080 C 222.332 85.879,224.148 86.537,225.818 85.673 C 228.069 84.509,228.170 78.346,225.962 76.899 C 223.513 75.294,221.069 77.195,221.062 80.711 C 221.059 82.363,221.022 82.519,220.676 82.372 C 219.764 81.986,219.430 82.143,218.927 83.197 C 217.910 85.326,216.832 84.457,216.728 81.425 C 216.623 78.328,217.702 77.163,218.859 79.125 C 219.655 80.474,221.119 79.955,220.637 78.495 C 220.053 76.727,218.062 75.898,216.487 76.766 M228.381 77.081 C 227.925 77.731,227.879 84.801,228.326 85.413 C 228.955 86.272,229.660 85.782,229.864 84.343 C 230.133 82.439,230.174 82.343,230.545 82.722 C 230.713 82.893,231.180 83.622,231.582 84.343 C 232.213 85.473,232.408 85.661,233.015 85.720 C 234.184 85.834,234.150 85.288,232.829 82.789 L 231.646 80.553 232.387 79.502 C 232.795 78.924,233.329 78.179,233.574 77.847 C 233.985 77.292,233.992 77.216,233.668 76.891 C 233.092 76.315,232.292 76.695,231.293 78.017 C 230.195 79.472,230.102 79.485,229.926 78.200 C 229.707 76.604,229.049 76.127,228.381 77.081 M234.627 76.877 C 234.249 77.332,234.240 85.326,234.616 85.565 C 235.614 86.197,236.116 85.678,236.116 84.013 C 236.116 82.697,236.499 82.270,237.681 82.270 C 240.107 82.270,241.186 78.292,239.105 77.023 C 238.258 76.506,235.022 76.401,234.627 76.877 M242.045 76.878 C 241.499 77.536,239.551 85.103,239.838 85.449 C 240.383 86.105,241.201 85.742,241.595 84.670 C 241.946 83.716,241.984 83.688,242.886 83.688 C 243.846 83.688,243.901 83.734,244.453 84.997 C 244.764 85.708,245.531 85.970,246.047 85.541 C 246.284 85.345,246.466 85.366,246.848 85.633 C 247.249 85.914,247.995 85.979,250.791 85.979 L 254.239 85.979 254.371 86.642 C 254.637 87.970,256.192 87.794,256.192 86.437 L 256.192 85.827 258.320 85.929 C 261.559 86.084,262.991 84.526,259.879 84.231 C 257.371 83.994,257.285 82.100,259.770 81.837 C 261.861 81.616,261.591 80.313,259.409 80.093 C 258.269 79.979,258.265 79.976,258.265 79.214 L 258.265 78.451 259.590 78.324 C 261.105 78.179,261.429 78.033,261.429 77.499 C 261.429 76.765,260.960 76.596,258.931 76.599 C 256.160 76.604,256.313 76.375,256.232 80.624 C 256.194 82.609,256.077 84.233,255.972 84.233 C 255.557 84.233,255.448 83.571,255.332 80.336 C 255.201 76.715,254.999 76.141,254.064 76.729 C 253.735 76.937,253.668 77.446,253.573 80.438 L 253.464 83.906 252.700 83.906 L 251.937 83.906 251.828 80.438 C 251.733 77.446,251.666 76.937,251.337 76.729 C 250.393 76.135,250.199 76.707,250.082 80.438 L 249.973 83.906 249.209 83.906 L 248.445 83.906 248.336 80.438 C 248.219 76.707,248.025 76.135,247.081 76.729 C 246.750 76.937,246.685 77.452,246.590 80.584 C 246.440 85.575,246.458 85.586,244.723 79.433 C 243.972 76.767,242.948 75.790,242.045 76.878 M262.209 76.939 C 261.798 77.349,261.697 84.601,262.092 85.339 C 262.787 86.638,263.687 85.727,263.830 83.579 L 263.939 81.942 264.867 81.875 C 265.981 81.794,266.214 82.182,266.170 84.046 C 266.131 85.717,267.116 86.523,267.750 85.339 C 267.990 84.892,268.065 78.151,267.840 77.312 C 267.434 75.796,266.166 76.704,266.012 78.622 L 265.903 79.978 264.921 79.978 L 263.939 79.978 263.811 78.485 C 263.655 76.675,263.053 76.094,262.209 76.939 M269.039 76.956 C 268.713 77.348,268.477 83.457,268.736 84.833 C 269.121 86.888,270.672 86.259,271.773 83.602 C 272.790 81.149,272.995 81.119,272.995 83.426 C 272.995 85.352,273.172 85.761,274.008 85.761 C 274.783 85.761,274.834 85.453,274.770 81.184 C 274.705 76.892,274.633 76.596,273.650 76.596 C 272.894 76.596,272.769 76.752,271.831 78.882 C 270.826 81.161,270.595 81.204,270.595 79.109 C 270.595 76.807,269.929 75.886,269.039 76.956 M275.883 76.851 C 275.396 77.337,275.512 85.165,276.013 85.618 C 276.477 86.038,279.497 86.135,280.211 85.753 C 281.249 85.198,280.529 84.233,279.077 84.233 C 277.920 84.233,277.360 83.842,277.360 83.033 C 277.360 82.254,277.924 81.833,278.968 81.833 C 279.955 81.833,280.415 81.544,280.415 80.924 C 280.415 80.392,279.751 80.087,278.589 80.087 C 277.530 80.087,277.182 79.681,277.469 78.778 C 277.584 78.415,277.799 78.342,278.751 78.342 C 280.110 78.342,280.705 77.986,280.599 77.238 C 280.511 76.613,276.453 76.280,275.883 76.851 M219.296 77.597 C 219.726 77.959,219.967 78.364,219.967 78.725 C 219.967 79.269,219.940 79.258,219.128 78.378 C 218.199 77.372,218.041 77.325,217.143 77.789 C 215.559 78.608,215.613 83.968,217.212 84.697 C 218.073 85.090,218.816 84.770,219.314 83.794 C 219.847 82.750,219.967 82.712,219.967 83.589 C 219.967 85.905,216.254 85.935,215.612 83.623 C 214.433 79.381,216.805 75.501,219.296 77.597 M225.578 77.461 C 227.363 78.549,227.381 83.969,225.604 85.079 C 223.456 86.420,221.713 84.667,221.713 81.164 C 221.713 77.683,223.357 76.107,225.578 77.461 M238.458 77.374 C 240.503 77.798,239.607 81.615,237.461 81.615 C 236.232 81.615,235.680 82.108,235.676 83.209 C 235.672 84.357,235.471 85.138,235.218 84.982 C 234.898 84.784,234.973 77.308,235.297 77.172 C 235.570 77.058,237.536 77.183,238.458 77.374 M260.063 77.169 C 260.865 77.384,260.389 77.687,259.250 77.687 C 257.969 77.687,257.501 78.074,257.501 79.135 C 257.501 80.386,257.815 80.742,258.915 80.742 C 260.224 80.742,260.351 81.096,259.092 81.237 C 256.634 81.515,256.890 84.888,259.369 84.888 C 259.977 84.888,260.312 84.973,260.229 85.106 C 260.038 85.416,257.426 85.380,257.109 85.063 C 256.741 84.695,256.741 77.662,257.109 77.294 C 257.382 77.021,259.219 76.943,260.063 77.169 M279.415 77.165 C 280.118 77.434,279.726 77.687,278.603 77.687 C 277.187 77.687,276.923 77.927,276.923 79.214 C 276.923 80.457,277.193 80.742,278.372 80.742 C 278.881 80.742,279.358 80.840,279.433 80.960 C 279.514 81.091,279.233 81.178,278.730 81.178 C 277.390 81.178,276.922 81.648,276.926 82.991 C 276.931 84.511,277.095 84.696,278.589 84.877 C 280.247 85.078,279.657 85.370,277.773 85.281 L 276.378 85.215 276.318 81.304 C 276.272 78.320,276.324 77.350,276.536 77.215 C 276.862 77.008,278.914 76.972,279.415 77.165 M243.432 77.478 C 243.623 77.787,245.499 84.466,245.499 84.837 C 245.499 85.349,245.058 84.885,244.703 83.999 C 244.064 82.401,241.768 82.341,241.244 83.909 C 240.951 84.784,240.706 85.137,240.486 85.001 C 240.285 84.877,240.653 83.271,241.461 80.742 C 241.749 79.842,242.091 78.688,242.222 78.178 C 242.459 77.260,243.076 76.902,243.432 77.478 M274.173 77.741 C 274.400 78.907,274.193 84.742,273.923 84.833 C 273.715 84.903,273.650 84.331,273.650 82.439 C 273.650 78.223,273.095 78.231,271.496 82.468 C 270.540 85.002,270.150 85.552,269.624 85.115 C 269.276 84.827,269.101 78.638,269.418 77.814 C 269.754 76.938,269.940 77.665,269.940 79.851 C 269.940 84.091,271.002 83.693,272.559 78.868 C 273.102 77.185,273.950 76.593,274.173 77.741 M223.504 77.697 C 221.742 78.404,221.986 84.347,223.795 84.801 C 225.328 85.186,226.186 83.968,226.186 81.407 C 226.187 78.378,225.202 77.016,223.504 77.697 M229.347 79.147 C 229.353 81.179,230.132 80.821,232.279 77.796 C 232.449 77.556,232.656 77.427,232.738 77.509 C 232.820 77.591,232.484 78.221,231.992 78.908 C 230.878 80.464,230.879 80.502,232.097 82.791 C 233.663 85.736,233.178 85.850,231.466 82.939 C 230.376 81.085,229.552 81.299,229.355 83.486 C 229.290 84.211,229.126 84.783,228.969 84.835 C 228.672 84.933,228.551 77.905,228.845 77.611 C 229.123 77.333,229.344 78.010,229.347 79.147 M247.681 80.647 C 247.681 84.475,247.755 84.670,249.209 84.670 C 250.663 84.670,250.736 84.475,250.736 80.647 C 250.736 78.674,250.819 77.469,250.955 77.469 C 251.090 77.469,251.173 78.628,251.173 80.510 C 251.173 84.432,251.260 84.670,252.700 84.670 C 254.141 84.670,254.228 84.432,254.228 80.510 C 254.228 76.457,254.578 76.615,254.710 80.728 C 254.791 83.264,254.895 84.110,255.176 84.539 C 255.541 85.096,255.668 86.431,255.383 86.715 C 255.299 86.800,255.077 86.546,254.890 86.152 L 254.552 85.434 251.067 85.373 C 249.151 85.340,247.497 85.227,247.392 85.122 C 247.147 84.878,246.943 79.658,247.130 78.415 C 247.421 76.474,247.681 77.528,247.681 80.647 M263.175 78.967 C 263.301 80.530,263.504 80.735,264.921 80.735 C 266.341 80.735,266.541 80.531,266.667 78.950 C 266.876 76.316,267.211 77.619,267.272 81.307 C 267.319 84.164,267.273 84.909,267.054 84.836 C 266.873 84.776,266.754 84.218,266.714 83.234 C 266.641 81.452,266.401 81.178,264.913 81.178 C 263.515 81.178,263.214 81.566,263.132 83.475 C 263.002 86.473,262.630 84.940,262.570 81.159 C 262.523 78.214,262.569 77.448,262.788 77.520 C 262.956 77.576,263.109 78.146,263.175 78.967 M235.870 78.048 C 234.945 79.162,235.689 81.178,237.025 81.178 C 238.573 81.178,239.339 79.939,238.633 78.575 C 238.142 77.625,236.483 77.308,235.870 78.048 M224.971 78.544 C 225.822 79.395,225.854 83.026,225.018 83.862 C 223.886 84.994,222.997 83.869,222.990 81.297 C 222.982 78.561,223.821 77.395,224.971 78.544 M237.955 78.684 C 238.699 79.428,238.186 80.524,237.094 80.524 C 236.259 80.524,235.941 79.939,236.205 78.887 C 236.368 78.240,237.392 78.121,237.955 78.684 M242.237 79.608 C 241.736 81.470,241.734 81.715,242.215 82.151 C 243.419 83.240,244.241 81.998,243.653 79.977 C 243.215 78.469,242.588 78.306,242.237 79.608 M243.185 80.869 C 243.394 81.415,243.342 81.615,242.990 81.615 C 242.786 81.615,242.662 81.409,242.662 81.069 C 242.662 80.460,242.981 80.338,243.185 80.869 M233.251 90.269 C 232.780 90.838,232.954 98.638,233.445 99.018 C 234.022 99.463,236.539 99.364,237.360 98.863 C 238.657 98.072,239.115 96.296,238.386 94.885 C 238.114 94.359,238.090 94.096,238.277 93.686 C 238.816 92.502,238.300 90.800,237.235 90.249 C 236.301 89.766,233.656 89.780,233.251 90.269 M239.535 90.229 C 238.892 90.872,238.998 98.490,239.656 98.951 C 242.288 100.795,245.958 97.712,244.496 94.885 C 244.224 94.359,244.200 94.096,244.387 93.686 C 244.840 92.690,244.682 91.504,243.992 90.732 C 243.210 89.857,240.242 89.522,239.535 90.229 M245.708 90.246 C 245.189 90.871,245.282 98.592,245.814 98.981 C 246.433 99.434,249.714 99.409,250.175 98.948 C 250.959 98.164,250.396 97.546,248.893 97.542 C 247.432 97.537,247.199 97.361,247.284 96.323 L 247.354 95.472 248.544 95.327 C 250.424 95.097,250.911 93.617,249.106 93.617 C 246.697 93.617,246.353 91.842,248.726 91.653 C 250.394 91.520,250.928 91.003,250.175 90.250 C 249.686 89.761,246.114 89.757,245.708 90.246 M251.411 90.211 C 250.867 90.866,250.848 98.312,251.389 98.852 C 252.187 99.650,252.782 99.048,252.919 97.303 L 253.028 95.912 254.105 95.759 C 255.979 95.492,256.838 94.521,256.843 92.663 C 256.847 91.368,257.092 91.494,258.047 93.279 L 258.702 94.502 257.774 96.224 C 256.791 98.050,256.618 98.938,257.205 99.163 C 257.726 99.363,258.476 98.786,259.062 97.734 C 259.758 96.483,259.949 96.486,260.641 97.757 C 261.337 99.036,261.880 99.416,262.520 99.073 C 263.124 98.750,263.081 98.508,262.084 96.616 C 261.019 94.595,261.012 94.342,261.975 92.591 C 262.847 91.005,262.948 90.221,262.307 90.018 C 261.702 89.826,261.250 90.136,260.695 91.125 C 260.149 92.098,259.572 92.332,259.360 91.664 C 258.815 89.946,256.847 89.318,256.847 90.862 C 256.847 91.282,256.835 91.281,256.356 90.833 C 255.366 89.906,252.014 89.484,251.411 90.211 M236.854 90.808 C 237.528 91.115,237.960 92.111,237.765 92.906 C 237.396 94.406,237.395 94.678,237.759 95.234 C 238.241 95.969,238.076 97.427,237.440 98.064 C 237.038 98.465,233.784 98.936,233.694 98.605 C 233.591 98.229,233.508 91.430,233.602 91.053 C 233.742 90.489,235.812 90.334,236.854 90.808 M243.397 91.014 C 244.042 91.521,244.179 92.704,243.713 93.727 C 243.501 94.194,243.520 94.406,243.822 94.917 C 244.550 96.148,244.235 97.814,243.168 98.382 C 242.595 98.687,240.123 98.722,239.941 98.428 C 239.769 98.151,239.765 91.054,239.936 90.778 C 240.201 90.349,242.774 90.524,243.397 91.014 M249.427 90.780 C 249.427 90.900,248.968 90.998,248.408 90.998 C 245.955 90.998,245.768 93.941,248.204 94.215 C 249.403 94.350,249.153 94.699,247.853 94.705 C 246.875 94.709,246.590 95.123,246.590 96.536 C 246.590 97.741,247.115 98.200,248.494 98.200 C 249.007 98.200,249.427 98.298,249.427 98.418 C 249.427 98.670,246.170 98.724,246.123 98.472 C 246.033 97.995,245.996 91.268,246.082 90.944 C 246.197 90.512,249.427 90.353,249.427 90.780 M255.320 90.890 C 257.298 91.913,256.331 94.797,253.899 95.127 C 252.445 95.324,252.272 95.528,252.267 97.041 C 252.264 98.177,251.989 98.716,251.741 98.071 C 251.569 97.623,251.570 91.356,251.742 90.907 C 251.920 90.442,254.430 90.429,255.320 90.890 M258.854 91.995 C 259.559 93.285,260.024 93.364,260.702 92.308 C 261.571 90.956,261.818 90.668,261.978 90.823 C 262.064 90.907,261.779 91.611,261.345 92.386 C 260.364 94.141,260.361 94.710,261.320 96.518 C 262.115 98.016,262.231 98.418,261.869 98.418 C 261.751 98.418,261.363 97.841,261.007 97.136 C 260.025 95.191,259.707 95.195,258.601 97.163 C 258.213 97.853,257.807 98.418,257.699 98.418 C 257.405 98.418,257.425 98.360,258.427 96.339 L 259.353 94.473 258.536 92.886 C 257.342 90.566,257.630 89.757,258.854 91.995 M234.513 91.397 C 233.930 92.041,234.032 93.529,234.689 93.959 C 235.727 94.639,237.207 93.763,237.207 92.469 C 237.207 91.274,235.308 90.519,234.513 91.397 M240.742 91.260 C 239.893 92.110,240.576 94.053,241.724 94.053 C 243.166 94.053,243.953 92.123,242.832 91.338 C 242.256 90.935,241.110 90.892,240.742 91.260 M252.607 91.341 C 252.213 91.735,252.141 93.415,252.490 94.068 C 253.162 95.324,255.537 94.304,255.537 92.760 C 255.537 91.321,253.576 90.372,252.607 91.341 M236.420 92.144 C 236.771 92.704,236.324 93.290,235.546 93.290 C 234.893 93.290,234.608 92.703,234.897 91.950 C 235.064 91.514,236.109 91.647,236.420 92.144 M242.317 91.785 C 242.518 91.862,242.662 92.173,242.662 92.526 C 242.662 93.437,241.292 93.802,241.026 92.962 C 240.710 91.969,241.328 91.406,242.317 91.785 M254.676 92.101 C 255.465 92.890,254.877 93.887,253.682 93.783 C 253.015 93.725,252.677 92.815,253.006 91.960 C 253.180 91.505,254.163 91.588,254.676 92.101 M320.753 92.203 C 319.243 93.023,318.542 97.495,319.591 99.615 C 320.976 102.414,324.394 101.972,325.293 98.879 C 326.593 94.408,323.922 90.481,320.753 92.203 M326.763 92.085 C 325.509 92.592,325.722 100.977,326.996 101.222 C 327.815 101.380,327.987 100.704,327.987 97.329 C 327.987 93.965,328.081 93.617,328.995 93.617 C 330.159 93.617,330.169 93.648,330.169 97.083 C 330.169 100.943,330.642 102.060,331.790 100.912 C 332.372 100.330,332.292 92.903,331.697 92.308 C 331.225 91.836,327.766 91.680,326.763 92.085 M334.036 92.513 C 331.745 94.525,332.306 100.336,334.878 101.233 C 337.939 102.299,340.085 98.533,338.883 94.205 C 338.262 91.968,335.683 91.067,334.036 92.513 M340.371 92.022 C 339.600 92.223,339.499 100.640,340.262 101.121 C 340.928 101.541,341.400 101.029,341.465 99.814 C 341.567 97.888,341.604 97.831,342.839 97.713 C 346.146 97.395,346.715 92.984,343.563 92.109 C 342.722 91.875,341.101 91.831,340.371 92.022 M347.666 92.253 C 346.916 92.896,344.874 100.159,345.247 100.856 C 345.642 101.596,346.972 101.044,346.972 100.140 C 346.972 98.349,349.211 98.395,349.791 100.199 C 350.142 101.290,351.111 101.648,351.540 100.846 C 352.135 99.734,349.375 91.871,348.391 91.871 C 348.237 91.871,347.911 92.043,347.666 92.253 M323.591 92.837 C 324.726 93.424,325.284 96.258,324.725 98.591 C 323.944 101.844,320.434 101.509,319.855 98.127 C 319.173 94.143,321.030 91.513,323.591 92.837 M331.211 92.709 C 331.423 92.843,331.475 93.760,331.429 96.525 C 331.351 101.291,330.971 101.481,330.824 96.827 C 330.701 92.943,330.714 92.971,329.036 92.966 C 327.455 92.961,327.332 93.263,327.332 97.157 C 327.332 100.087,327.171 100.977,326.810 100.037 C 326.551 99.362,326.663 93.064,326.939 92.788 C 327.237 92.490,330.763 92.425,331.211 92.709 M337.443 92.972 C 338.765 94.012,338.863 98.890,337.587 100.166 C 335.603 102.149,333.362 100.236,333.367 96.563 C 333.371 93.099,335.367 91.340,337.443 92.972 M344.153 92.972 C 345.970 93.944,344.944 96.878,342.723 97.063 C 341.217 97.187,340.862 97.601,340.862 99.230 C 340.862 100.448,340.555 100.794,340.371 99.782 C 340.213 98.908,340.356 93.034,340.542 92.732 C 340.719 92.446,343.518 92.632,344.153 92.972 M348.682 92.717 C 348.975 92.903,350.900 99.194,350.900 99.967 C 350.900 100.616,350.532 100.454,350.264 99.687 C 349.561 97.670,347.095 97.556,346.509 99.513 C 346.366 99.991,346.153 100.382,346.037 100.382 C 345.716 100.382,346.017 98.830,346.885 96.017 C 348.034 92.293,348.028 92.303,348.682 92.717 M321.113 93.529 C 319.706 95.047,320.288 99.670,321.956 100.226 C 323.351 100.691,324.269 99.302,324.274 96.720 C 324.280 93.425,322.693 91.824,321.113 93.529 M334.867 93.453 C 333.391 94.739,333.750 99.477,335.374 100.150 C 337.035 100.838,337.904 99.363,337.775 96.073 C 337.664 93.216,336.423 92.098,334.867 93.453 M341.298 93.399 C 340.761 93.937,340.707 95.481,341.202 96.187 C 341.987 97.309,344.354 96.280,344.354 94.817 C 344.354 93.402,342.265 92.433,341.298 93.399 M323.341 94.272 C 323.672 94.929,323.715 98.274,323.399 98.864 C 322.787 100.008,321.650 99.824,321.217 98.510 C 320.280 95.672,322.159 91.923,323.341 94.272 M336.851 94.172 C 337.639 95.375,337.257 98.986,336.287 99.505 C 334.902 100.246,333.883 95.957,335.030 94.208 C 335.534 93.438,336.360 93.422,336.851 94.172 M343.214 93.957 C 344.139 94.605,343.567 96.017,342.379 96.017 C 341.736 96.017,341.517 95.691,341.517 94.734 C 341.517 93.668,342.293 93.312,343.214 93.957 M347.936 94.301 C 347.651 94.762,347.214 96.915,347.338 97.240 C 347.783 98.399,349.275 97.726,349.230 96.388 C 349.177 94.849,348.386 93.573,347.936 94.301 M234.588 94.926 C 233.372 96.142,234.344 98.434,235.940 98.115 C 237.883 97.726,238.049 95.241,236.168 94.719 C 235.094 94.421,235.094 94.421,234.588 94.926 M240.933 94.869 C 239.736 95.838,240.365 98.200,241.819 98.200 C 242.951 98.200,243.668 97.241,243.570 95.859 C 243.500 94.883,241.734 94.220,240.933 94.869 M236.498 95.642 C 236.946 95.988,236.829 97.062,236.314 97.338 C 235.447 97.801,234.806 97.428,234.806 96.461 C 234.806 95.265,235.547 94.906,236.498 95.642 M242.826 95.754 C 243.210 96.242,243.166 96.605,242.662 97.109 C 242.109 97.662,241.434 97.668,241.142 97.123 C 240.384 95.706,241.851 94.513,242.826 95.754 M348.543 96.934 C 348.222 97.255,347.949 96.620,348.172 96.072 C 348.311 95.731,348.353 95.744,348.559 96.188 C 348.726 96.547,348.722 96.756,348.543 96.934 M309.765 102.854 C 307.472 104.062,300.907 107.583,295.271 110.628 C 293.195 111.750,292.784 112.190,293.318 112.725 C 293.730 113.136,294.155 112.940,302.455 108.503 C 312.449 103.161,313.257 102.682,313.257 102.104 C 313.257 101.235,312.553 101.386,309.765 102.854 M321.986 105.391 C 319.696 106.338,319.310 112.413,321.427 114.195 C 322.782 115.334,324.859 114.874,325.700 113.249 C 326.333 112.025,325.953 110.710,325.020 110.893 C 324.640 110.968,324.503 111.156,324.014 112.275 C 323.322 113.858,322.169 112.927,321.956 110.614 C 321.664 107.451,323.032 105.849,324.254 107.920 C 324.953 109.104,326.023 108.832,326.023 107.470 L 326.023 106.790 326.992 107.015 C 328.188 107.293,328.198 107.326,328.202 111.002 C 328.206 114.253,328.273 114.566,328.966 114.566 C 329.826 114.566,329.936 114.147,330.000 110.647 L 330.060 107.304 331.072 107.047 L 332.085 106.790 332.218 107.763 C 332.291 108.298,332.351 109.947,332.351 111.427 C 332.351 114.754,332.456 114.882,335.074 114.750 C 337.774 114.613,338.357 113.276,335.820 113.036 C 334.292 112.892,334.097 112.745,334.097 111.740 C 334.097 110.798,334.319 110.638,335.627 110.638 C 337.743 110.638,337.604 109.086,335.471 108.896 L 334.206 108.783 334.206 108.020 L 334.206 107.256 335.481 107.119 C 336.942 106.962,337.613 106.491,337.235 105.888 C 336.903 105.359,334.103 105.129,332.900 105.531 C 332.342 105.718,331.955 105.746,331.820 105.611 C 331.285 105.077,326.493 105.365,326.106 105.955 C 325.743 106.509,325.742 106.509,325.283 106.079 C 324.419 105.270,322.996 104.973,321.986 105.391 M318.176 105.878 C 316.041 108.170,316.348 115.542,318.630 116.763 C 319.594 117.279,319.756 116.614,319.113 114.781 C 318.321 112.526,318.283 109.868,319.011 107.643 C 319.701 105.535,319.295 104.677,318.176 105.878 M338.275 105.690 C 337.893 106.150,337.819 113.613,338.191 114.144 C 338.950 115.229,339.771 114.471,339.771 112.686 C 339.771 110.826,339.872 110.638,340.872 110.638 C 341.908 110.638,342.012 110.804,342.161 112.685 C 342.299 114.435,342.650 114.851,343.568 114.360 C 344.006 114.125,344.187 114.119,344.443 114.332 C 345.075 114.857,345.737 114.523,346.119 113.486 C 346.725 111.842,348.238 111.677,348.729 113.202 C 349.077 114.282,349.325 114.566,349.918 114.566 C 351.011 114.566,351.003 114.174,349.827 110.092 C 348.476 105.401,348.476 105.401,347.515 105.401 C 346.563 105.401,346.302 105.803,345.673 108.238 C 344.177 114.026,344.067 114.092,343.917 109.280 C 343.823 106.252,343.756 105.742,343.426 105.534 C 342.730 105.096,342.293 105.627,342.170 107.060 C 341.953 109.608,339.771 109.832,339.771 107.307 C 339.771 105.656,338.997 104.820,338.275 105.690 M351.047 105.708 C 350.983 105.877,351.183 106.736,351.492 107.617 C 352.269 109.831,352.264 112.248,351.478 114.674 C 350.977 116.219,350.950 116.455,351.238 116.743 C 352.383 117.888,354.132 113.648,353.879 110.341 C 353.648 107.341,351.666 104.096,351.047 105.708 M324.273 106.118 C 324.838 106.404,325.421 107.321,325.232 107.627 C 325.172 107.724,324.798 107.459,324.401 107.039 C 322.525 105.049,320.891 107.379,321.438 111.265 C 321.829 114.045,324.043 114.622,324.828 112.148 C 325.021 111.542,325.368 111.634,325.368 112.292 C 325.368 114.416,322.145 114.761,321.062 112.753 C 319.350 109.577,321.662 104.797,324.273 106.118 M330.696 105.969 C 331.134 106.138,330.926 106.492,330.390 106.492 C 329.433 106.492,329.296 106.984,329.296 110.436 C 329.296 114.663,328.963 114.644,328.800 110.407 C 328.667 106.947,328.533 106.492,327.646 106.492 C 327.021 106.492,326.751 106.125,327.275 105.988 C 327.865 105.834,330.309 105.821,330.696 105.969 M335.149 105.981 C 336.490 106.142,336.264 106.483,334.814 106.489 C 333.772 106.493,333.442 106.866,333.442 108.043 C 333.442 109.067,333.976 109.547,335.113 109.547 C 335.634 109.547,336.061 109.645,336.061 109.765 C 336.061 109.885,335.690 109.984,335.237 109.984 C 332.715 109.984,332.615 113.320,335.128 113.618 C 336.674 113.801,336.362 114.130,334.643 114.130 C 332.888 114.130,332.969 114.315,332.846 110.064 C 332.715 105.571,332.653 105.681,335.149 105.981 M348.283 106.983 C 348.412 107.493,348.858 109.047,349.273 110.435 C 350.116 113.255,350.231 114.134,349.700 113.693 C 349.520 113.544,349.373 113.233,349.373 113.002 C 349.373 111.112,346.282 111.052,345.663 112.930 C 345.406 113.708,345.008 113.967,345.008 113.356 C 345.008 113.170,345.342 111.869,345.750 110.464 C 346.157 109.060,346.603 107.493,346.740 106.983 C 346.946 106.216,347.080 106.056,347.518 106.056 C 347.957 106.056,348.086 106.212,348.283 106.983 M339.116 107.474 C 339.116 108.994,339.586 109.547,340.876 109.547 C 342.078 109.547,342.607 109.228,342.610 108.503 C 342.614 107.514,342.871 106.274,343.073 106.274 C 343.177 106.274,343.262 107.943,343.262 109.984 C 343.262 113.344,343.112 114.316,342.740 113.348 C 342.667 113.158,342.608 112.442,342.608 111.755 C 342.608 110.217,342.388 109.984,340.940 109.984 C 339.453 109.984,339.116 110.416,339.116 112.324 C 339.116 113.629,338.880 114.093,338.594 113.348 C 338.421 112.897,338.427 108.886,338.603 107.420 C 338.784 105.914,339.116 105.949,339.116 107.474 M347.063 107.613 C 346.693 108.211,346.343 110.278,346.547 110.659 C 347.198 111.875,348.592 111.244,348.453 109.796 C 348.295 108.148,347.502 106.902,347.063 107.613 M317.953 109.408 C 317.772 110.606,317.768 111.508,317.938 112.734 C 318.220 114.759,318.122 114.982,317.618 113.464 C 317.186 112.163,317.251 109.198,317.734 108.182 C 318.168 107.269,318.227 107.600,317.953 109.408 M353.186 111.184 C 353.191 113.048,353.120 113.493,352.701 114.239 C 352.344 114.873,352.241 114.962,352.323 114.566 C 352.534 113.552,352.830 110.805,352.756 110.557 C 352.716 110.422,352.627 109.722,352.559 109.002 L 352.436 107.692 352.809 108.347 C 353.090 108.842,353.183 109.534,353.186 111.184 M347.842 110.038 C 347.844 110.248,347.698 110.420,347.518 110.420 C 347.185 110.420,347.051 109.541,347.339 109.253 C 347.530 109.062,347.837 109.543,347.842 110.038 M154.687 129.046 C 154.005 130.176,153.691 131.130,153.528 132.570 C 153.381 133.866,153.484 133.670,154.605 130.533 C 155.501 128.026,155.521 127.666,154.687 129.046 M169.246 129.664 C 167.159 139.357,167.575 142.976,170.860 143.697 C 172.240 144.000,173.150 142.806,171.832 142.423 C 169.206 141.659,168.726 139.874,169.776 134.784 C 170.465 131.446,170.489 129.320,169.839 129.228 C 169.482 129.177,169.327 129.291,169.246 129.664 M150.666 130.403 C 151.095 130.832,151.100 131.818,150.680 133.204 C 149.493 137.116,151.732 140.097,157.338 142.068 C 159.373 142.784,159.376 142.788,158.973 144.585 C 158.146 148.281,157.964 149.565,157.845 152.549 C 157.741 155.136,157.790 156.068,158.110 157.568 C 158.744 160.543,158.371 161.959,156.915 162.100 C 156.233 162.166,156.003 161.978,153.325 159.178 C 151.751 157.532,149.752 155.604,148.882 154.893 C 147.171 153.495,146.922 152.879,147.631 151.797 C 149.355 149.166,148.790 142.968,146.315 137.370 C 144.566 133.416,144.566 133.411,146.133 132.130 C 148.260 130.391,149.994 129.730,150.666 130.403 M144.315 135.352 C 144.875 136.104,145.877 138.138,146.629 140.053 C 147.823 143.094,148.052 148.013,147.179 151.850 C 146.915 153.010,145.749 152.436,142.363 149.481 C 138.224 145.868,136.827 144.253,136.826 143.078 C 136.823 140.927,141.811 134.753,143.633 134.651 C 143.717 134.647,144.024 134.962,144.315 135.352 M183.765 135.525 C 181.844 136.916,180.819 139.850,181.997 140.585 C 182.646 140.991,182.592 141.058,180.555 142.386 C 179.522 143.059,178.627 143.802,178.566 144.036 C 178.494 144.311,178.267 144.463,177.928 144.463 C 177.638 144.463,176.816 144.758,176.100 145.120 C 171.087 147.650,167.045 146.765,165.003 142.689 C 163.232 139.153,161.843 139.756,160.604 144.598 C 160.224 146.085,160.211 146.345,160.486 146.897 C 160.768 147.462,160.759 147.540,160.394 147.735 C 159.625 148.147,159.411 149.382,159.411 153.410 C 159.411 159.586,159.787 160.228,163.683 160.699 C 166.114 160.993,166.137 161.001,164.641 161.024 C 163.797 161.037,162.570 160.907,161.913 160.735 C 160.224 160.292,159.943 160.524,159.324 162.866 C 158.276 166.831,159.836 167.799,167.568 167.979 C 177.145 168.203,182.438 167.318,187.234 164.692 L 189.307 163.557 202.837 163.437 L 216.367 163.316 218.331 162.706 C 220.664 161.982,222.688 161.016,223.505 160.237 C 224.676 159.121,225.393 156.825,224.659 156.544 C 224.456 156.466,224.332 156.134,224.332 155.670 C 224.332 154.095,223.143 153.251,221.274 153.499 C 220.395 153.615,220.185 153.581,220.185 153.321 C 220.185 152.563,210.200 150.759,209.030 151.305 C 208.781 151.422,208.645 151.347,208.567 151.051 C 208.459 150.638,206.199 149.700,205.312 149.700 C 205.099 149.700,204.815 149.494,204.681 149.243 C 204.481 148.870,204.303 148.810,203.721 148.920 C 203.219 149.014,202.925 148.955,202.731 148.722 C 202.580 148.540,202.328 148.391,202.171 148.391 C 202.014 148.391,201.854 148.170,201.816 147.900 C 201.718 147.211,200.680 147.118,199.859 147.725 C 199.355 148.097,199.236 148.122,199.236 147.852 C 199.236 147.668,199.384 147.518,199.564 147.518 C 200.060 147.518,199.956 146.695,199.439 146.531 C 199.150 146.439,198.835 146.525,198.566 146.768 C 198.137 147.156,197.959 146.918,198.370 146.507 C 198.819 146.058,198.353 145.554,197.490 145.554 C 196.954 145.554,196.620 145.438,196.537 145.223 C 196.468 145.041,196.163 144.798,195.859 144.683 C 195.556 144.568,195.308 144.326,195.308 144.145 C 195.308 143.787,194.382 143.462,194.012 143.691 C 193.886 143.769,193.668 143.582,193.528 143.275 C 193.389 142.968,193.148 142.717,192.994 142.717 C 192.840 142.717,192.585 142.447,192.427 142.117 C 192.236 141.716,191.942 141.494,191.542 141.448 C 191.208 141.409,190.944 141.244,190.944 141.073 C 190.944 140.906,190.747 140.663,190.507 140.535 C 190.267 140.406,190.071 140.152,190.071 139.970 C 190.071 139.788,189.740 139.501,189.336 139.333 C 188.805 139.110,188.566 138.848,188.473 138.383 C 188.307 137.553,185.756 134.861,185.135 134.861 C 184.885 134.861,184.269 135.160,183.765 135.525 M186.665 136.837 C 188.090 138.376,188.127 138.556,187.179 139.276 C 186.485 139.804,182.554 140.074,182.105 139.625 C 181.491 139.010,183.943 135.516,184.988 135.516 C 185.262 135.516,185.925 136.038,186.665 136.837 M185.925 141.080 C 185.775 141.260,185.626 141.408,185.594 141.408 C 185.562 141.408,185.478 141.260,185.409 141.080 C 185.322 140.854,185.424 140.753,185.740 140.753 C 186.121 140.753,186.151 140.807,185.925 141.080 M163.359 141.138 C 163.490 141.226,164.018 142.112,164.532 143.106 C 166.727 147.345,170.429 148.224,176.041 145.836 L 177.831 145.074 178.470 145.529 C 178.822 145.779,179.587 146.190,180.171 146.441 L 181.233 146.897 180.639 147.371 C 178.972 148.700,178.465 149.017,176.441 149.990 C 175.236 150.569,173.916 151.184,173.507 151.356 C 173.099 151.529,172.813 151.718,172.872 151.777 C 173.043 151.948,175.733 150.909,177.124 150.134 C 177.824 149.745,178.852 149.198,179.409 148.919 C 179.966 148.640,181.145 147.943,182.028 147.370 C 184.059 146.050,184.695 146.042,187.501 147.300 C 190.702 148.734,193.265 149.821,195.836 150.834 C 197.146 151.351,198.258 151.893,198.307 152.039 C 198.494 152.601,196.406 154.200,193.537 155.694 C 191.171 156.925,190.356 157.480,189.244 158.615 L 187.871 160.016 186.407 160.104 C 183.341 160.287,175.401 159.873,175.214 159.520 C 175.118 159.340,174.691 158.440,174.264 157.521 C 172.431 153.569,169.755 151.109,164.103 148.177 C 160.474 146.295,160.607 146.520,161.458 143.673 C 162.068 141.631,162.746 140.726,163.359 141.138 M184.440 142.219 C 184.534 143.679,185.238 144.086,186.605 143.469 C 187.780 142.939,187.741 142.910,187.762 144.364 C 187.778 145.481,187.745 145.565,187.343 145.435 C 185.180 144.736,184.537 144.650,183.209 144.881 C 181.175 145.235,180.568 145.181,179.881 144.587 C 179.148 143.951,179.116 143.991,181.648 142.405 C 184.091 140.876,184.352 140.859,184.440 142.219 M189.374 142.733 C 189.331 142.862,189.203 142.968,189.089 142.968 C 188.975 142.968,188.846 142.862,188.803 142.733 C 188.760 142.604,188.889 142.499,189.089 142.499 C 189.289 142.499,189.417 142.604,189.374 142.733 M122.355 142.884 C 121.622 143.047,121.526 143.891,121.978 146.223 C 125.092 162.284,135.877 177.189,150.005 184.955 C 152.128 186.121,152.152 186.195,150.826 187.420 C 148.835 189.260,149.030 189.351,155.914 189.779 C 163.650 190.260,163.495 190.594,158.293 184.651 C 154.327 180.120,153.416 179.538,153.407 181.532 C 153.397 184.092,153.171 184.156,150.271 182.426 C 137.287 174.679,127.981 161.889,124.617 147.170 C 124.236 145.501,123.856 143.901,123.773 143.614 C 123.612 143.056,122.999 142.741,122.355 142.884 M191.598 143.699 C 191.598 143.879,191.451 144.026,191.271 144.026 C 190.930 144.026,190.838 143.768,191.089 143.517 C 191.340 143.266,191.598 143.358,191.598 143.699 M123.334 144.355 C 123.423 144.714,123.755 146.137,124.071 147.518 C 127.408 162.098,137.119 175.366,150.027 182.981 C 153.436 184.992,153.842 185.005,153.849 183.101 C 153.859 180.449,153.995 180.536,159.138 186.513 C 162.012 189.852,162.398 189.586,155.297 189.159 C 150.340 188.861,150.171 188.782,151.630 187.434 C 153.018 186.153,152.926 185.991,149.755 184.124 C 136.794 176.492,127.735 164.861,123.623 150.576 C 122.755 147.557,122.118 144.347,122.296 143.883 C 122.500 143.352,123.158 143.651,123.334 144.355 M137.036 145.348 C 138.939 147.536,140.939 149.431,143.699 151.661 C 151.716 158.138,157.119 163.620,157.119 165.275 C 157.119 166.282,157.835 167.101,159.681 168.206 C 160.649 168.786,162.125 170.072,163.975 171.946 C 165.525 173.518,167.440 175.236,168.230 175.765 C 169.020 176.294,170.525 177.317,171.573 178.039 C 174.308 179.921,177.828 181.752,180.432 182.646 C 183.181 183.590,183.249 183.854,180.738 183.843 C 177.186 183.827,170.014 180.952,166.011 177.941 C 163.516 176.064,156.892 170.382,154.283 167.880 C 152.346 166.023,152.377 166.047,148.609 163.445 C 146.989 162.327,144.534 160.570,143.153 159.541 C 141.773 158.513,140.251 157.405,139.771 157.080 C 135.930 154.479,132.054 149.871,131.659 147.436 C 131.528 146.632,132.371 145.767,134.425 144.593 C 135.739 143.842,135.722 143.837,137.036 145.348 M192.648 144.479 C 192.605 144.608,192.476 144.714,192.362 144.714 C 192.248 144.714,192.120 144.608,192.077 144.479 C 192.034 144.350,192.162 144.244,192.362 144.244 C 192.562 144.244,192.691 144.350,192.648 144.479 M191.162 145.568 C 191.162 147.027,192.368 147.588,193.670 146.735 C 194.310 146.316,194.654 146.484,194.654 147.218 C 194.654 147.518,194.755 147.955,194.879 148.187 C 195.263 148.903,194.337 148.695,191.616 147.454 C 188.774 146.158,188.680 146.053,189.799 145.414 C 190.940 144.761,191.162 144.786,191.162 145.568 M198.363 148.591 C 198.363 148.941,198.429 149.399,198.509 149.608 C 198.681 150.056,197.884 149.962,196.466 149.368 L 195.636 149.020 196.618 148.504 C 197.986 147.784,198.363 147.803,198.363 148.591 M163.943 150.691 C 167.248 152.465,168.789 153.569,170.001 155.031 C 171.254 156.542,172.596 158.723,172.751 159.501 L 172.896 160.227 167.899 160.112 C 159.980 159.929,159.930 159.887,159.933 153.398 C 159.936 148.370,159.796 148.464,163.943 150.691 M201.963 150.131 C 202.168 151.063,201.973 151.245,201.095 150.942 C 200.161 150.618,200.124 150.410,200.909 149.892 C 201.726 149.354,201.796 149.370,201.963 150.131 M206.886 150.712 C 208.042 151.175,207.658 151.674,206.027 151.830 C 204.335 151.993,204.046 151.797,204.807 151.003 C 205.526 150.252,205.682 150.230,206.886 150.712 M200.546 151.546 L 201.091 151.849 200.436 152.098 C 200.076 152.235,199.512 152.604,199.182 152.919 C 198.511 153.558,198.405 153.446,198.927 152.649 C 199.129 152.340,199.214 151.937,199.131 151.675 C 198.958 151.130,199.679 151.064,200.546 151.546 M214.465 152.404 C 219.886 153.352,219.473 153.801,212.747 154.272 C 209.315 154.513,207.908 154.943,206.259 156.256 C 204.201 157.895,202.784 156.977,203.918 154.739 C 204.492 153.605,204.776 153.410,205.855 153.408 C 206.973 153.407,208.072 153.014,208.975 152.295 C 209.927 151.538,209.463 151.528,214.465 152.404 M204.255 152.544 C 204.539 152.734,204.526 152.807,204.159 153.087 C 203.610 153.505,203.564 153.495,203.099 152.857 C 202.665 152.261,203.496 152.036,204.255 152.544 M201.816 152.945 C 202.050 153.093,202.016 153.421,201.633 154.680 C 200.478 158.484,203.860 160.799,207.054 158.392 C 208.876 157.020,209.752 156.727,212.776 156.480 C 216.979 156.137,219.213 155.680,220.923 154.814 C 223.211 153.655,223.942 154.156,223.450 156.549 C 223.088 158.311,222.905 158.627,222.043 158.987 C 219.459 160.067,210.599 160.722,203.492 160.360 C 201.451 160.255,197.987 160.087,195.793 159.985 C 190.613 159.744,190.545 159.615,194.544 157.615 C 197.042 156.366,198.990 154.984,200.013 153.736 C 200.802 152.773,201.241 152.580,201.816 152.945 M208.291 156.030 C 208.132 156.289,206.874 156.967,206.874 156.795 C 206.874 156.688,208.197 155.813,208.360 155.811 C 208.397 155.811,208.366 155.909,208.291 156.030 M190.011 160.118 C 190.458 160.410,191.146 160.510,193.004 160.552 C 196.639 160.634,203.819 161.097,203.819 161.249 C 203.819 161.407,202.079 161.358,195.893 161.025 C 193.394 160.891,190.620 160.849,189.728 160.933 C 187.981 161.096,187.853 161.019,188.581 160.243 C 189.150 159.638,189.263 159.628,190.011 160.118 M175.232 160.611 L 175.777 161.038 174.498 161.043 L 173.220 161.047 173.735 160.618 C 174.379 160.081,174.554 160.081,175.232 160.611 M218.003 160.839 C 216.577 161.099,210.636 161.489,208.670 161.452 C 207.586 161.431,208.231 161.353,210.475 161.234 C 212.395 161.131,214.654 160.962,215.494 160.857 C 216.334 160.753,217.463 160.666,218.003 160.664 L 218.985 160.660 218.003 160.839 M183.150 160.990 C 182.525 161.034,181.444 161.034,180.750 160.991 C 180.055 160.947,180.567 160.911,181.888 160.911 C 183.208 160.910,183.776 160.946,183.150 160.990 M163.666 161.716 C 165.313 161.923,185.624 161.815,189.217 161.580 C 190.247 161.512,194.028 161.622,197.618 161.824 C 203.823 162.173,211.260 162.168,217.130 161.812 L 218.985 161.700 218.112 162.038 C 216.389 162.705,215.317 162.763,202.400 162.893 L 189.307 163.025 186.470 164.439 C 182.259 166.537,180.233 166.950,171.935 167.398 C 162.923 167.884,158.854 166.751,159.630 163.972 C 160.448 161.040,160.350 161.200,161.236 161.363 C 161.672 161.444,162.766 161.602,163.666 161.716 M190.297 164.961 C 190.000 165.516,189.988 209.896,190.285 210.366 C 190.661 210.961,287.456 210.962,288.051 210.367 C 288.544 209.874,288.760 166.372,288.276 165.099 L 288.063 164.539 239.293 164.539 C 191.299 164.539,190.519 164.546,190.297 164.961 M287.725 187.670 L 287.725 210.038 239.280 210.038 L 190.835 210.038 190.778 187.889 C 190.748 175.706,190.769 165.616,190.826 165.466 C 190.909 165.248,200.725 165.204,239.328 165.248 L 287.725 165.303 287.725 187.670 M188.498 171.758 C 188.533 174.809,188.500 177.641,188.426 178.051 L 188.291 178.798 187.381 177.354 C 186.880 176.560,185.114 174.475,183.456 172.722 C 179.892 168.952,179.898 168.981,182.493 168.317 C 183.543 168.048,185.212 167.441,186.200 166.967 C 187.189 166.494,188.096 166.130,188.216 166.159 C 188.352 166.192,188.458 168.294,188.498 171.758 M179.236 169.832 C 180.859 171.509,184.834 176.115,184.834 176.319 C 184.834 176.555,184.563 176.618,183.852 176.549 C 183.361 176.502,179.655 174.574,177.447 173.218 C 175.015 171.725,174.262 171.470,172.114 171.413 C 170.344 171.366,170.120 171.310,169.600 170.790 C 168.733 169.923,169.120 169.780,172.961 169.543 C 174.870 169.425,176.628 169.296,176.869 169.255 C 178.156 169.037,178.563 169.136,179.236 169.832 M165.662 169.571 C 168.162 169.826,168.782 170.099,168.968 171.026 C 169.146 171.916,169.814 172.168,172.200 172.248 C 174.458 172.323,175.386 172.688,177.851 174.469 C 179.663 175.778,182.555 176.966,184.755 177.305 C 185.974 177.493,187.016 178.710,187.016 179.945 C 187.016 180.607,184.140 183.088,183.372 183.088 C 181.870 183.088,177.498 181.032,172.781 178.109 C 167.714 174.968,161.577 169.340,163.219 169.340 C 163.320 169.340,164.419 169.444,165.662 169.571 M62.118 172.139 C 61.690 172.612,61.575 179.939,61.983 180.702 C 62.515 181.697,63.502 181.031,63.502 179.676 C 63.502 178.114,63.797 177.632,64.752 177.631 C 67.768 177.628,68.769 173.205,66.014 172.055 C 64.894 171.587,62.572 171.637,62.118 172.139 M69.636 172.122 C 68.994 172.653,66.902 180.107,67.225 180.712 C 67.656 181.517,68.624 181.161,68.976 180.068 C 69.338 178.943,69.567 178.723,70.376 178.723 C 71.186 178.723,71.415 178.943,71.777 180.068 C 72.255 181.554,73.959 181.357,73.632 179.853 C 72.664 175.401,71.195 171.740,70.376 171.740 C 70.223 171.740,69.890 171.912,69.636 172.122 M75.225 172.128 C 73.142 173.419,72.986 179.096,74.990 180.673 C 76.664 181.990,79.172 181.101,79.556 179.054 C 79.903 177.201,78.588 176.736,77.818 178.440 C 76.908 180.453,75.800 179.753,75.575 177.021 C 75.346 174.248,76.430 172.509,77.494 173.944 C 78.142 174.819,78.549 175.232,78.762 175.232 C 79.225 175.232,79.687 174.487,79.599 173.884 C 79.506 173.254,79.977 173.179,81.342 173.605 C 81.543 173.668,81.616 174.507,81.618 176.807 C 81.621 180.073,81.815 180.942,82.571 181.088 C 83.344 181.237,83.467 180.756,83.579 177.134 L 83.688 173.602 84.459 173.477 C 84.883 173.408,85.325 173.293,85.441 173.222 C 85.568 173.143,85.652 173.639,85.652 174.471 C 85.652 175.559,85.756 175.990,86.143 176.514 C 86.779 177.374,86.763 177.616,85.984 179.077 C 85.260 180.434,85.360 181.124,86.280 181.124 C 86.904 181.124,87.288 180.699,88.056 179.160 C 89.033 177.203,89.462 177.278,89.467 179.406 C 89.472 180.983,89.859 181.394,90.819 180.843 C 91.395 180.512,91.504 180.507,91.794 180.797 C 92.548 181.551,93.090 181.177,94.254 179.105 C 95.238 177.352,95.494 177.480,95.633 179.792 C 95.723 181.309,97.116 181.678,97.275 180.229 C 97.583 177.424,97.682 177.332,98.614 178.996 C 99.597 180.752,99.922 181.124,100.474 181.124 C 101.626 181.124,101.615 180.605,100.414 178.308 C 99.065 175.728,99.067 175.756,100.164 174.141 C 101.127 172.722,101.225 172.291,100.655 171.992 C 100.047 171.673,99.452 172.041,98.634 173.241 C 97.710 174.597,97.327 174.674,97.327 173.504 C 97.327 172.273,97.149 171.959,96.454 171.959 C 95.759 171.959,95.581 172.273,95.581 173.504 C 95.581 174.677,95.164 174.607,94.260 173.282 C 93.440 172.081,92.805 171.676,92.239 171.993 C 91.677 172.307,91.792 172.819,92.744 174.250 C 93.822 175.869,93.827 175.739,92.613 178.088 C 91.309 180.614,91.217 180.483,91.217 176.097 L 91.217 172.405 90.671 172.047 C 89.863 171.518,87.523 171.703,86.625 172.367 L 85.951 172.865 85.430 172.303 C 84.626 171.434,80.563 171.440,79.756 172.311 L 79.227 172.881 78.549 172.311 C 77.731 171.622,76.179 171.537,75.225 172.128 M102.052 172.139 C 101.460 172.793,101.515 180.578,102.113 180.898 C 102.814 181.273,106.182 181.185,106.585 180.781 C 107.319 180.048,106.522 179.453,104.637 179.327 L 103.764 179.269 103.698 178.232 L 103.631 177.196 104.502 177.196 C 105.678 177.196,106.492 176.859,106.492 176.372 C 106.492 175.788,106.058 175.450,105.303 175.447 C 103.993 175.441,103.655 175.240,103.655 174.466 C 103.655 173.657,103.922 173.486,105.183 173.486 C 106.678 173.486,107.364 172.542,106.288 171.966 C 105.523 171.557,102.466 171.682,102.052 172.139 M118.157 172.276 C 117.862 172.571,117.621 172.905,117.621 173.019 C 117.621 173.134,117.311 173.899,116.931 174.721 C 116.154 176.404,115.957 176.224,115.901 173.777 C 115.861 172.031,115.231 171.381,114.392 172.220 C 114.056 172.556,114.024 180.082,114.356 180.702 C 114.809 181.548,116.748 180.822,116.748 179.805 C 116.748 179.713,117.054 178.965,117.427 178.144 C 118.230 176.379,118.454 176.575,118.479 179.062 C 118.498 180.997,119.033 181.645,119.897 180.781 C 120.520 180.158,120.396 172.529,119.755 172.080 C 119.090 171.614,118.781 171.652,118.157 172.276 M121.427 172.050 C 120.832 172.485,120.650 179.735,121.213 180.595 C 121.639 181.245,125.400 181.415,125.905 180.807 C 126.581 179.992,125.849 179.438,123.950 179.327 L 122.968 179.269 122.968 178.287 L 122.968 177.305 124.137 177.188 C 126.249 176.976,126.499 175.450,124.422 175.450 C 123.239 175.450,122.859 175.180,122.859 174.339 C 122.859 173.641,123.178 173.486,124.615 173.486 C 125.598 173.486,126.132 173.151,126.132 172.534 C 126.132 171.747,122.372 171.360,121.427 172.050 M107.605 172.260 C 107.155 172.802,107.382 180.691,107.856 180.990 C 108.623 181.473,108.991 180.911,109.111 179.074 C 109.224 177.327,109.421 176.988,110.324 176.981 C 111.234 176.974,111.494 177.427,111.559 179.137 C 111.626 180.910,111.995 181.476,112.764 180.991 C 113.343 180.626,113.517 179.140,113.381 175.741 C 113.235 172.111,113.195 171.959,112.365 171.959 C 111.662 171.959,111.555 172.203,111.459 174.032 L 111.402 175.123 110.442 175.191 C 109.296 175.273,109.119 175.070,109.114 173.668 C 109.109 172.036,108.366 171.343,107.605 172.260 M66.496 173.150 C 67.814 174.682,66.683 176.978,64.608 176.978 C 63.326 176.978,63.032 177.277,62.948 178.670 C 62.914 179.240,62.877 179.828,62.867 179.978 C 62.856 180.128,62.750 180.251,62.630 180.251 C 62.373 180.251,62.321 172.778,62.575 172.520 C 63.046 172.044,65.945 172.509,66.496 173.150 M70.799 172.591 C 71.012 172.935,72.672 178.584,72.809 179.433 C 72.974 180.447,72.590 180.532,72.250 179.556 C 71.525 177.476,69.200 177.432,68.522 179.485 C 68.383 179.906,68.166 180.251,68.040 180.251 C 67.706 180.251,67.964 178.927,68.848 176.106 C 69.269 174.766,69.613 173.500,69.613 173.294 C 69.613 172.614,70.492 172.093,70.799 172.591 M78.176 172.826 C 78.731 173.262,79.084 174.060,78.801 174.236 C 78.716 174.288,78.377 173.994,78.048 173.581 C 76.497 171.637,74.960 173.067,74.982 176.435 C 75.005 180.026,77.128 181.727,78.247 179.050 C 78.601 178.201,78.996 178.040,78.996 178.745 C 78.996 180.168,76.520 181.184,75.373 180.232 C 73.774 178.905,73.894 173.897,75.552 172.736 C 76.229 172.261,77.514 172.305,78.176 172.826 M84.670 172.613 C 84.670 172.733,84.440 172.831,84.158 172.831 C 83.105 172.831,82.941 173.347,82.876 176.879 C 82.795 181.242,82.397 181.234,82.323 176.869 C 82.263 173.352,82.082 172.831,80.923 172.831 C 80.689 172.831,80.559 172.733,80.633 172.613 C 80.707 172.493,81.646 172.395,82.719 172.395 C 83.874 172.395,84.670 172.484,84.670 172.613 M90.512 176.378 C 90.551 178.911,90.495 180.251,90.349 180.251 C 90.226 180.251,90.124 179.785,90.122 179.214 C 90.114 176.239,88.814 176.129,87.377 178.984 C 86.965 179.801,86.531 180.469,86.413 180.469 C 86.065 180.469,86.158 180.099,86.852 178.723 C 87.212 178.010,87.507 177.388,87.507 177.341 C 87.507 177.294,87.212 176.885,86.852 176.432 C 85.203 174.356,86.353 172.362,89.143 172.459 L 90.453 172.504 90.512 176.378 M105.728 172.613 C 105.811 172.747,105.464 172.831,104.831 172.831 C 103.472 172.831,103.001 173.259,103.001 174.490 C 103.001 175.591,103.541 176.105,104.699 176.105 C 105.128 176.105,105.371 176.194,105.292 176.323 C 105.218 176.443,104.790 176.541,104.341 176.541 C 103.233 176.541,103.001 176.850,103.001 178.323 C 103.001 179.794,103.258 180.033,104.841 180.033 C 105.389 180.033,105.837 180.135,105.837 180.260 C 105.837 180.404,105.214 180.464,104.146 180.424 L 102.455 180.360 102.395 176.658 C 102.362 174.622,102.383 172.830,102.443 172.676 C 102.573 172.335,105.522 172.279,105.728 172.613 M119.536 176.200 C 119.609 180.695,119.260 181.548,119.033 177.432 C 118.814 173.479,118.555 173.490,116.956 177.523 C 115.215 181.912,114.785 181.719,114.785 176.548 C 114.785 171.525,115.295 171.743,115.497 176.851 C 115.529 177.656,115.652 178.177,115.822 178.234 C 116.097 178.324,117.482 175.577,118.052 173.812 C 118.953 171.019,119.465 171.844,119.536 176.200 M125.150 172.613 C 125.233 172.748,124.861 172.831,124.181 172.831 C 121.656 172.831,121.304 175.765,123.795 176.046 C 124.998 176.181,124.952 176.541,123.731 176.541 C 122.711 176.541,122.204 177.121,122.204 178.287 C 122.204 179.541,122.696 180.033,123.949 180.033 C 125.567 180.033,125.465 180.421,123.825 180.505 C 121.426 180.627,121.549 180.839,121.549 176.592 C 121.549 174.026,121.628 172.840,121.811 172.657 C 122.130 172.338,124.957 172.302,125.150 172.613 M99.433 174.025 C 98.412 175.562,98.430 175.945,99.618 178.143 C 100.692 180.130,100.733 180.251,100.319 180.251 C 100.164 180.251,99.662 179.556,99.204 178.707 C 97.950 176.386,97.042 176.483,96.761 178.968 C 96.598 180.403,96.236 180.709,96.236 179.411 C 96.236 176.547,94.989 176.215,93.718 178.740 C 93.299 179.571,92.814 180.251,92.639 180.251 C 92.242 180.251,92.346 179.948,93.434 177.941 C 94.386 176.184,94.454 175.614,93.823 174.686 C 92.401 172.595,92.610 172.148,94.068 174.161 C 95.631 176.319,96.236 176.301,96.236 174.097 C 96.236 173.399,96.334 172.831,96.454 172.831 C 96.574 172.831,96.672 173.329,96.672 173.937 C 96.672 176.287,97.248 176.329,98.870 174.098 C 100.163 172.320,100.603 172.263,99.433 174.025 M108.885 175.550 C 109.198 175.927,111.184 176.018,111.718 175.680 C 111.924 175.550,112.066 174.979,112.125 174.047 C 112.227 172.454,112.474 172.181,112.680 173.432 C 112.855 174.488,112.861 179.455,112.688 179.906 C 112.407 180.639,112.210 180.186,112.131 178.621 C 112.032 176.654,111.847 176.432,110.311 176.432 C 108.791 176.432,108.632 176.623,108.504 178.603 C 108.314 181.565,108.020 180.334,108.020 176.578 C 108.020 172.831,108.243 171.518,108.477 173.894 C 108.548 174.620,108.732 175.366,108.885 175.550 M63.448 173.067 C 62.931 173.368,62.902 175.692,63.409 176.198 C 64.284 177.073,66.339 176.012,66.339 174.686 C 66.339 173.423,64.554 172.423,63.448 173.067 M87.388 173.367 C 86.220 174.535,86.965 176.313,88.626 176.320 C 89.660 176.324,90.016 175.864,90.016 174.526 C 90.016 172.844,88.555 172.200,87.388 173.367 M65.212 173.835 C 65.876 174.300,65.774 175.217,65.010 175.643 C 64.131 176.134,63.721 175.844,63.721 174.730 C 63.721 173.392,64.183 173.114,65.212 173.835 M89.209 173.748 C 89.831 174.370,89.432 175.668,88.618 175.668 C 87.868 175.668,87.507 175.303,87.507 174.544 C 87.507 173.661,88.607 173.146,89.209 173.748 M69.870 174.304 C 69.070 175.875,69.128 177.339,69.998 177.557 C 70.930 177.791,71.256 177.395,71.199 176.097 C 71.126 174.437,70.342 173.378,69.870 174.304 M70.704 176.336 C 70.704 176.569,70.556 176.759,70.376 176.759 C 70.053 176.759,69.919 176.089,70.189 175.820 C 70.416 175.592,70.704 175.880,70.704 176.336 M211.522 184.825 C 209.448 186.089,209.283 191.774,211.271 193.447 C 212.950 194.860,215.549 193.702,215.766 191.444 C 215.936 189.672,214.746 189.525,213.958 191.222 C 213.143 192.976,212.070 192.404,211.801 190.071 C 211.437 186.918,212.742 185.077,213.966 187.016 C 214.780 188.304,215.821 188.112,215.821 186.674 C 215.821 185.986,215.824 185.984,216.703 186.145 C 217.926 186.368,217.882 186.237,218.003 190.011 C 218.121 193.665,218.319 194.239,219.258 193.647 C 219.590 193.438,219.647 192.970,219.698 190.047 C 219.761 186.370,219.843 186.143,221.097 186.143 C 221.785 186.143,221.810 186.188,223.039 189.687 L 223.786 191.812 223.186 192.369 C 222.480 193.024,222.425 193.461,223.008 193.773 C 224.399 194.517,225.158 193.595,226.522 189.500 C 227.881 185.424,228.012 185.461,228.090 189.943 C 228.143 192.964,228.199 193.437,228.532 193.647 C 229.484 194.246,229.673 193.671,229.738 189.986 C 229.805 186.216,229.959 185.865,231.390 186.224 C 232.118 186.407,232.227 187.007,232.154 190.433 C 232.085 193.705,232.547 194.644,233.672 193.519 C 234.220 192.970,234.022 185.138,233.448 184.737 C 232.768 184.260,229.367 184.265,228.442 184.743 C 227.961 184.992,227.707 185.022,227.536 184.852 C 226.814 184.130,226.102 184.810,225.430 186.863 C 224.834 188.680,224.614 188.643,223.859 186.597 C 223.148 184.671,223.266 184.790,221.874 184.592 C 219.148 184.203,216.719 184.352,216.128 184.943 L 215.582 185.490 214.778 184.943 C 213.790 184.272,212.505 184.226,211.522 184.825 M235.304 184.620 C 234.617 184.896,234.550 185.391,234.628 189.589 C 234.708 193.881,234.664 193.785,236.587 193.936 C 239.955 194.201,241.223 192.494,237.960 192.086 L 236.661 191.924 236.661 190.943 L 236.661 189.962 237.926 189.849 C 240.244 189.643,240.104 188.215,237.751 188.066 C 236.667 187.998,236.661 187.994,236.594 187.192 C 236.521 186.315,236.658 186.245,238.734 186.091 C 239.760 186.014,239.992 184.969,239.062 184.615 C 238.362 184.349,235.969 184.352,235.304 184.620 M240.495 185.024 C 240.190 185.595,240.184 192.790,240.488 193.359 C 241.178 194.649,242.023 193.794,242.199 191.628 L 242.335 189.962 243.317 189.962 L 244.299 189.962 244.416 191.598 C 244.551 193.495,244.679 193.781,245.395 193.781 C 246.246 193.781,246.372 193.187,246.372 189.198 C 246.372 185.187,246.248 184.615,245.377 184.615 C 244.708 184.615,244.408 185.293,244.408 186.808 C 244.408 188.690,242.244 188.730,242.204 186.848 C 242.162 184.832,241.166 183.770,240.495 185.024 M247.235 185.070 C 246.877 185.739,247.040 193.228,247.421 193.607 C 247.873 194.056,250.968 193.965,251.707 193.481 C 254.036 191.955,252.977 188.584,249.973 187.961 L 249.100 187.780 248.990 186.470 C 248.833 184.604,247.888 183.850,247.235 185.070 M253.505 184.779 C 253.228 185.262,253.145 192.613,253.411 193.124 C 254.052 194.358,255.101 193.735,255.101 192.120 C 255.101 190.295,255.512 190.041,256.213 191.435 C 257.216 193.434,257.616 193.781,258.913 193.781 C 260.475 193.781,260.709 193.663,261.011 192.725 C 261.353 191.662,261.603 191.380,262.202 191.380 C 263.055 191.380,263.363 191.608,263.629 192.436 C 264.063 193.784,265.154 194.345,265.515 193.406 C 265.798 192.669,263.600 184.960,263.046 184.747 C 261.617 184.199,261.275 184.669,260.206 188.652 C 259.122 192.692,259.131 192.685,257.841 190.387 L 256.788 188.511 257.220 187.927 C 259.302 185.111,259.462 184.524,258.112 184.656 C 257.549 184.711,257.222 184.973,256.458 185.979 C 255.329 187.468,255.101 187.530,255.101 186.347 C 255.101 184.980,254.007 183.905,253.505 184.779 M81.669 185.375 C 81.035 185.835,80.890 193.706,81.507 194.218 C 81.914 194.556,84.918 194.552,85.553 194.212 C 86.699 193.598,87.269 191.200,86.522 190.133 C 86.245 189.737,86.234 189.504,86.455 188.679 C 86.793 187.414,86.508 186.225,85.726 185.645 C 84.916 185.044,82.360 184.873,81.669 185.375 M102.294 185.393 C 101.148 186.015,100.692 187.844,101.596 188.191 C 102.055 188.367,102.720 187.992,102.888 187.464 C 103.061 186.919,103.798 186.682,104.222 187.034 C 104.741 187.464,104.506 188.354,103.764 188.762 C 102.734 189.328,102.763 190.130,103.829 190.548 C 104.776 190.920,105.053 191.500,104.661 192.289 C 104.167 193.285,103.449 193.072,102.360 191.606 C 102.004 191.127,101.899 191.097,101.390 191.329 C 99.841 192.034,101.676 194.651,103.721 194.653 C 106.047 194.655,107.450 192.353,106.382 190.287 C 106.112 189.764,106.098 189.483,106.305 188.707 C 107.025 186.015,104.696 184.090,102.294 185.393 M214.529 185.690 C 215.120 186.281,215.383 187.016,215.003 187.016 C 214.913 187.016,214.565 186.672,214.230 186.252 C 212.706 184.342,211.238 185.810,211.239 189.242 C 211.241 192.730,213.587 194.511,214.507 191.722 C 214.807 190.814,215.166 190.696,215.166 191.506 C 215.166 193.659,211.754 193.977,210.888 191.904 C 209.275 188.044,212.085 183.247,214.529 185.690 M220.622 185.270 C 220.887 185.441,220.855 185.482,220.458 185.485 C 219.285 185.493,219.094 186.072,219.094 189.634 C 219.094 191.671,219.012 192.908,218.876 192.908 C 218.742 192.908,218.658 191.791,218.658 189.994 C 218.658 186.455,218.470 185.773,217.440 185.580 C 217.032 185.503,216.752 185.353,216.818 185.246 C 216.980 184.984,220.210 185.004,220.622 185.270 M233.229 189.054 C 233.276 192.131,233.231 192.928,233.011 192.855 C 232.803 192.786,232.733 191.961,232.733 189.570 C 232.733 185.790,232.642 185.597,230.853 185.597 C 229.216 185.597,229.133 185.794,229.133 189.676 C 229.133 191.685,229.050 192.908,228.914 192.908 C 228.570 192.908,228.624 185.337,228.969 185.192 C 229.119 185.130,230.125 185.097,231.206 185.120 L 233.170 185.161 233.229 189.054 M238.481 185.244 C 238.672 185.365,238.389 185.466,237.670 185.535 C 235.266 185.766,235.041 188.762,237.428 188.762 C 237.892 188.762,238.333 188.860,238.407 188.980 C 238.489 189.113,238.160 189.198,237.563 189.198 C 236.296 189.198,235.897 189.597,235.897 190.865 C 235.897 192.221,236.193 192.689,237.051 192.693 C 238.118 192.697,238.835 192.928,238.480 193.153 C 238.038 193.433,235.802 193.380,235.505 193.082 C 235.137 192.715,235.137 185.681,235.505 185.314 C 235.803 185.016,238.038 184.963,238.481 185.244 M87.747 185.571 C 87.297 186.113,87.524 194.003,87.998 194.302 C 88.772 194.789,89.133 194.224,89.253 192.340 L 89.362 190.616 90.386 190.550 C 91.537 190.476,91.582 190.560,91.707 192.995 C 91.770 194.209,92.240 194.722,92.908 194.302 C 93.382 194.003,93.609 186.113,93.159 185.571 C 92.360 184.608,91.679 185.248,91.504 187.127 L 91.370 188.565 90.366 188.499 L 89.362 188.434 89.295 187.132 C 89.206 185.407,88.486 184.681,87.747 185.571 M94.266 185.718 C 93.875 186.448,94.073 193.959,94.490 194.222 C 95.612 194.930,96.281 194.393,97.235 192.020 C 98.173 189.686,98.418 189.648,98.418 191.837 C 98.418 193.990,98.684 194.580,99.558 194.361 C 100.307 194.173,100.375 193.793,100.379 189.812 C 100.382 185.760,100.258 185.270,99.221 185.270 C 98.302 185.270,98.031 185.587,97.117 187.725 C 96.215 189.839,96.017 189.846,96.017 187.765 C 96.017 185.462,95.024 184.301,94.266 185.718 M223.231 186.747 C 223.481 187.435,223.839 188.415,224.027 188.925 C 224.613 190.518,225.060 190.210,225.849 187.670 C 226.433 185.791,227.203 184.547,226.896 185.979 C 226.190 189.274,224.684 192.965,223.993 193.096 C 223.586 193.173,223.584 193.159,223.950 192.752 C 224.504 192.136,224.439 191.693,223.350 188.688 C 222.810 187.198,222.368 185.813,222.368 185.612 C 222.368 184.948,222.768 185.474,223.231 186.747 M248.336 186.607 C 248.336 188.180,248.563 188.475,249.915 188.654 C 251.816 188.907,252.629 190.159,252.044 191.933 C 251.647 193.134,248.674 193.961,247.949 193.071 C 247.706 192.773,247.581 186.223,247.807 185.633 C 248.057 184.981,248.336 185.494,248.336 186.607 M262.934 185.663 C 263.263 186.278,264.979 192.705,264.848 192.835 C 264.625 193.058,264.299 192.680,264.157 192.033 C 263.764 190.245,261.058 190.273,260.520 192.071 C 260.382 192.531,260.151 192.908,260.006 192.908 C 259.709 192.908,260.092 191.105,261.096 187.780 C 261.422 186.699,261.726 185.693,261.770 185.543 C 261.893 185.132,262.694 185.215,262.934 185.663 M241.571 186.848 C 241.571 189.577,244.958 189.626,245.107 186.899 C 245.254 184.200,245.608 185.825,245.608 189.198 C 245.608 192.709,245.239 194.201,245.106 191.228 C 245.023 189.368,244.873 189.198,243.317 189.198 C 241.761 189.198,241.611 189.368,241.528 191.228 C 241.492 192.034,241.364 192.693,241.244 192.692 C 241.016 192.691,240.808 186.303,241.018 185.756 C 241.253 185.145,241.571 185.773,241.571 186.848 M254.446 186.914 C 254.446 189.146,255.283 189.017,256.874 186.537 C 257.244 185.960,257.635 185.488,257.742 185.488 C 258.117 185.488,257.932 185.885,257.065 186.934 C 255.971 188.257,255.965 188.174,257.334 190.739 C 258.365 192.673,258.569 193.407,257.971 193.038 C 257.854 192.965,257.354 192.170,256.860 191.270 C 255.591 188.958,254.446 189.264,254.446 191.915 C 254.446 192.977,254.105 193.255,253.884 192.374 C 253.811 192.081,253.806 190.485,253.875 188.828 C 253.943 187.171,254.002 185.742,254.005 185.652 C 254.035 184.673,254.446 185.847,254.446 186.914 M85.569 186.339 C 86.041 186.922,86.095 187.866,85.716 188.913 C 85.494 189.528,85.510 189.739,85.825 190.272 C 87.101 192.432,84.861 194.712,82.272 193.891 C 81.817 193.746,81.562 186.272,81.997 185.832 C 82.395 185.428,85.148 185.819,85.569 186.339 M99.488 186.008 C 99.846 186.440,99.721 193.383,99.352 193.506 C 99.155 193.571,99.070 192.901,99.025 190.908 C 98.935 186.985,98.171 187.453,96.294 192.580 C 95.962 193.487,95.804 193.672,95.356 193.672 L 94.817 193.672 94.758 189.907 C 94.706 186.688,94.745 186.143,95.024 186.143 C 95.291 186.143,95.360 186.619,95.411 188.816 C 95.497 192.569,95.909 192.587,97.373 188.904 C 98.652 185.685,98.918 185.321,99.488 186.008 M105.302 186.242 C 105.905 186.845,105.995 187.749,105.570 188.925 C 105.342 189.556,105.358 189.763,105.679 190.323 C 107.204 192.981,103.467 195.591,101.793 193.036 C 101.199 192.130,101.653 191.963,102.440 192.798 C 102.890 193.275,103.366 193.562,103.706 193.562 C 105.652 193.562,106.100 190.656,104.255 190.002 C 103.732 189.816,103.776 189.483,104.364 189.173 C 105.027 188.824,105.175 188.560,105.179 187.725 C 105.187 186.197,103.642 185.643,102.571 186.790 C 101.900 187.508,101.598 187.459,101.949 186.689 C 102.441 185.609,104.407 185.347,105.302 186.242 M92.744 189.866 C 92.744 193.695,92.480 194.737,92.208 191.980 C 92.014 190.011,91.883 189.853,90.442 189.853 C 88.848 189.853,88.598 190.151,88.598 192.051 C 88.598 192.882,88.511 193.562,88.406 193.562 C 88.173 193.562,88.005 190.165,88.123 187.834 C 88.221 185.919,88.598 185.516,88.598 187.328 C 88.598 188.863,88.925 189.198,90.425 189.198 C 91.830 189.198,92.089 188.956,92.089 187.645 C 92.089 186.474,92.263 185.871,92.549 186.048 C 92.656 186.114,92.744 187.832,92.744 189.866 M82.851 186.413 C 82.279 186.837,82.259 188.709,82.822 189.121 C 84.353 190.241,86.246 188.107,84.925 186.748 C 84.414 186.222,83.342 186.049,82.851 186.413 M261.875 186.999 C 260.965 188.699,261.171 190.289,262.302 190.289 C 263.461 190.289,263.650 189.232,262.839 187.289 C 262.502 186.482,262.200 186.391,261.875 186.999 M84.468 187.250 C 84.875 187.657,84.889 187.750,84.605 188.177 C 84.022 189.057,82.924 188.808,82.924 187.797 C 82.924 186.804,83.735 186.517,84.468 187.250 M262.617 189.436 C 262.550 189.545,262.402 189.634,262.289 189.634 C 262.050 189.634,262.010 188.690,262.239 188.461 C 262.434 188.266,262.783 189.167,262.617 189.436 M248.598 189.460 C 248.454 189.604,248.336 190.272,248.336 190.944 C 248.336 192.791,250.062 193.507,251.157 192.115 C 252.440 190.484,250.052 188.006,248.598 189.460 M82.591 190.377 C 82.152 191.046,82.246 192.839,82.737 193.150 C 83.925 193.902,85.543 193.027,85.543 191.632 C 85.543 190.083,83.385 189.165,82.591 190.377 M250.693 190.115 C 251.437 190.858,250.835 192.035,249.711 192.035 C 249.007 192.035,248.991 192.014,248.991 191.089 C 248.991 189.851,249.905 189.327,250.693 190.115 M84.466 190.733 C 84.971 191.003,85.038 192.076,84.574 192.460 C 84.043 192.901,83.044 192.658,82.961 192.067 C 82.770 190.722,83.401 190.163,84.466 190.733 " stroke="none" fill="#ffffff" fill-rule="evenodd"></path></g></svg>