<svg id="svg" xmlns="http://www.w3.org/2000/svg" xmlns:xlink="http://www.w3.org/1999/xlink" width="400" height="218.1818181818182" viewBox="0, 0, 400,218.1818181818182"><g id="svgg"><path id="path0" d="M369.247 55.176 C 368.935 55.279,368.391 55.489,368.040 55.643 L 367.401 55.924 366.944 55.577 C 365.877 54.766,364.421 55.129,360.866 57.093 C 357.864 58.753,357.806 58.780,355.256 59.728 C 350.122 61.638,347.704 63.296,345.815 66.204 C 345.257 67.063,344.284 67.970,342.614 69.191 C 340.748 70.554,333.903 74.342,328.906 76.776 C 320.947 80.653,317.693 82.609,314.154 85.641 C 313.463 86.234,312.664 86.918,312.379 87.163 L 311.861 87.606 311.842 85.600 C 311.823 83.566,311.649 82.531,311.087 81.108 C 310.948 80.756,310.725 80.021,310.591 79.474 C 309.067 73.266,302.561 68.489,292.992 66.553 C 286.705 65.281,281.111 66.849,279.842 70.240 C 279.562 70.989,279.288 71.320,277.493 73.079 C 274.338 76.171,273.205 77.848,273.018 79.701 C 272.837 81.494,272.306 82.042,268.701 84.156 C 265.442 86.066,265.079 87.214,267.106 89.200 C 268.060 90.135,268.059 90.121,267.259 91.208 C 266.609 92.091,266.436 92.814,266.754 93.317 C 266.846 93.463,266.784 93.615,266.539 93.842 C 266.142 94.210,266.097 94.757,266.359 96.026 C 266.523 96.821,266.520 96.834,266.008 97.668 C 263.642 101.518,265.237 103.618,271.652 105.099 C 272.350 105.260,272.982 105.453,273.056 105.528 C 273.376 105.847,272.387 108.629,271.638 109.520 L 271.282 109.943 268.205 109.946 C 260.489 109.953,250.860 112.336,245.967 115.451 C 245.242 115.912,243.960 116.981,242.781 118.106 C 241.460 119.368,240.903 119.588,237.204 120.312 C 234.537 120.834,233.088 121.340,231.448 122.322 C 230.472 122.906,230.186 123.011,229.570 123.011 C 228.695 123.011,228.690 123.285,229.557 123.728 C 230.338 124.126,230.829 124.078,231.631 123.526 C 233.502 122.239,234.654 121.804,237.523 121.300 C 241.117 120.669,242.294 120.131,244.397 118.158 C 248.957 113.880,259.458 110.760,268.597 110.969 L 271.498 111.035 272.006 110.573 C 273.459 109.254,274.724 105.432,273.860 104.969 C 273.426 104.737,273.666 104.538,274.261 104.635 C 274.550 104.682,276.065 104.727,277.628 104.736 C 281.305 104.756,282.595 104.313,284.218 102.470 C 285.354 101.178,284.885 101.055,283.545 102.294 C 282.965 102.829,282.188 103.365,281.534 103.679 L 280.469 104.190 276.420 104.190 C 267.711 104.190,264.505 102.253,266.805 98.380 C 267.444 97.304,267.418 97.480,267.291 95.036 C 267.259 94.418,267.272 94.399,267.827 94.194 C 268.521 93.937,268.567 93.903,268.383 93.778 C 268.183 93.642,267.614 92.688,267.614 92.489 C 267.614 92.400,267.812 92.120,268.054 91.867 C 269.234 90.633,269.197 89.678,267.924 88.544 C 266.218 87.024,266.440 86.646,270.424 84.290 C 272.967 82.786,273.756 81.863,273.933 80.185 C 273.983 79.716,274.058 79.151,274.100 78.929 C 274.365 77.523,280.257 71.305,281.036 71.610 C 288.049 74.352,289.071 75.607,286.762 78.636 C 285.228 80.648,285.133 81.376,286.173 83.168 C 287.217 84.967,287.193 86.016,286.039 89.116 C 285.346 90.977,285.331 90.938,287.017 91.660 L 288.281 92.201 288.778 91.635 C 289.737 90.545,290.741 89.893,290.554 90.483 C 290.438 90.849,290.420 90.853,291.538 90.270 C 295.689 88.106,297.572 92.228,294.036 95.739 C 291.318 98.438,287.760 99.240,287.143 97.294 C 287.009 96.872,286.713 97.046,286.750 97.525 C 286.896 99.445,289.553 99.572,292.472 97.798 C 293.306 97.292,293.547 97.197,293.400 97.434 C 293.142 97.852,292.472 100.528,292.472 101.142 C 292.472 102.082,293.124 103.661,294.139 105.177 L 294.904 106.321 294.491 106.676 C 294.263 106.871,293.286 107.670,292.320 108.452 C 291.353 109.233,289.666 110.742,288.570 111.804 L 286.577 113.736 283.712 113.830 C 282.019 113.885,280.450 113.865,279.876 113.781 C 279.343 113.704,278.075 113.510,277.060 113.352 C 273.401 112.780,268.938 112.482,268.470 112.779 C 268.056 113.040,268.521 113.137,270.642 113.228 C 272.215 113.296,273.760 113.488,276.349 113.940 C 279.879 114.556,279.919 114.559,282.948 114.527 L 285.996 114.494 284.937 115.581 C 282.244 118.346,280.707 119.720,278.975 120.910 C 278.644 121.138,278.782 121.530,279.152 121.411 C 279.982 121.145,282.406 119.030,286.435 115.055 C 293.475 108.110,294.883 107.015,305.746 100.036 C 309.884 97.378,310.391 96.974,312.160 94.929 C 315.385 91.201,321.160 87.201,328.330 83.729 C 330.903 82.482,331.870 82.028,337.358 79.489 C 338.647 78.892,340.309 78.066,341.051 77.653 C 344.342 75.820,346.578 74.471,347.849 73.549 C 348.602 73.003,349.458 72.434,349.751 72.284 C 350.044 72.134,350.284 71.943,350.284 71.859 C 350.284 71.638,353.627 68.256,354.559 67.536 C 356.082 66.358,358.636 65.184,361.790 64.214 C 366.679 62.709,367.031 62.568,370.170 60.868 C 373.264 59.192,375.142 58.810,375.142 59.857 C 375.142 60.263,371.532 62.968,368.501 64.832 C 366.647 65.973,366.099 66.477,366.712 66.477 C 367.289 66.477,371.156 64.054,373.882 61.984 C 376.644 59.886,378.718 58.998,379.667 59.506 C 380.432 59.916,380.047 60.421,377.706 62.083 C 376.889 62.662,375.595 63.627,374.831 64.226 C 374.066 64.825,372.763 65.721,371.936 66.216 C 370.372 67.152,368.750 68.484,368.750 68.833 C 368.750 69.147,368.874 69.088,369.959 68.256 C 370.518 67.828,371.609 67.120,372.384 66.682 C 373.159 66.244,374.264 65.524,374.841 65.081 C 380.545 60.701,380.896 60.477,381.668 60.722 C 382.199 60.890,382.461 61.442,382.199 61.842 C 381.759 62.513,376.594 66.497,373.438 68.600 C 371.256 70.053,370.170 70.956,370.170 71.318 C 370.170 71.692,370.362 71.661,370.911 71.196 C 371.676 70.548,372.844 69.724,374.536 68.638 C 375.414 68.074,376.966 66.944,377.986 66.125 C 380.306 64.262,381.028 63.819,381.333 64.072 C 382.017 64.640,380.606 66.037,375.163 70.178 C 373.885 71.151,372.211 72.427,371.443 73.016 C 370.391 73.821,369.543 74.314,368.014 75.009 C 365.987 75.930,365.378 76.420,366.262 76.420 C 366.755 76.420,370.135 74.870,371.005 74.245 C 372.015 73.520,372.203 73.493,372.640 74.012 C 373.289 74.783,373.084 74.941,370.516 75.645 C 369.505 75.921,368.168 76.375,367.543 76.652 C 366.918 76.929,365.863 77.384,365.199 77.662 L 363.991 78.169 362.074 78.116 C 361.019 78.087,359.381 78.061,358.434 78.059 L 356.711 78.054 355.461 78.693 C 350.308 81.327,343.359 87.393,334.794 96.731 C 329.323 102.697,327.532 104.178,322.940 106.534 C 318.452 108.838,317.774 109.410,311.898 115.853 C 306.180 122.122,302.561 125.134,297.997 127.422 C 296.460 128.192,295.984 128.551,296.497 128.551 C 296.802 128.551,299.423 127.228,300.976 126.289 C 301.762 125.815,302.440 125.426,302.482 125.426 C 302.601 125.426,301.333 127.910,300.524 129.261 C 297.575 134.187,292.483 138.652,286.754 141.335 C 285.674 141.841,285.138 142.330,285.663 142.330 C 286.001 142.330,287.985 141.413,289.057 140.762 C 290.371 139.964,290.413 139.992,289.605 141.135 C 286.638 145.329,282.386 149.152,277.486 152.028 C 276.548 152.578,274.631 153.776,273.224 154.690 C 256.350 165.658,239.199 169.311,218.145 166.423 C 216.836 166.243,215.737 166.068,215.703 166.034 C 215.669 166.001,215.829 165.048,216.057 163.917 C 218.437 152.156,217.854 141.328,214.161 128.717 C 213.926 127.914,213.866 127.519,213.974 127.487 C 214.062 127.461,214.869 127.206,215.767 126.919 C 217.612 126.330,218.940 126.153,220.837 126.245 L 222.142 126.308 223.678 125.604 C 224.522 125.216,225.325 124.860,225.462 124.812 C 225.763 124.706,225.787 124.247,225.504 124.011 C 225.254 123.804,225.060 123.858,223.224 124.643 C 221.876 125.220,221.750 125.247,220.737 125.181 C 219.222 125.083,217.524 125.328,215.554 125.928 L 213.849 126.447 210.724 126.468 L 207.599 126.489 206.534 125.822 C 205.377 125.098,204.187 124.861,201.675 124.855 C 199.858 124.851,198.460 124.457,194.105 122.722 C 184.476 118.885,177.512 116.513,169.744 114.423 C 164.872 113.112,164.176 112.993,164.004 113.441 C 163.907 113.694,163.823 113.688,161.932 113.278 C 157.250 112.264,150.635 111.335,143.253 110.656 C 135.055 109.901,134.772 109.855,131.463 108.735 C 126.894 107.189,124.285 106.982,118.727 107.724 C 113.817 108.379,109.083 108.190,103.373 107.112 C 98.306 106.155,90.325 104.919,83.594 104.050 C 67.292 101.943,62.460 100.789,55.327 97.304 C 51.055 95.216,49.202 94.019,45.313 90.834 C 43.273 89.164,42.053 88.253,39.205 86.276 C 35.126 83.444,32.991 81.714,30.464 79.192 C 29.524 78.253,28.257 77.042,27.648 76.500 C 27.028 75.948,26.269 75.093,25.921 74.555 C 24.811 72.840,23.068 72.618,21.974 74.052 C 21.602 74.540,21.549 74.563,20.958 74.482 C 19.582 74.293,18.320 75.043,18.107 76.176 C 18.052 76.469,17.832 76.897,17.618 77.126 C 17.116 77.664,16.921 78.455,16.900 80.043 C 16.890 80.746,16.879 81.587,16.874 81.913 C 16.870 82.242,17.001 82.782,17.170 83.131 C 17.428 83.664,17.449 83.828,17.313 84.219 C 16.965 85.219,17.371 86.474,18.424 87.644 C 18.994 88.279,19.085 88.484,19.386 89.814 C 20.037 92.695,20.855 94.023,25.576 99.858 C 27.968 102.815,29.095 104.964,30.120 108.523 C 32.876 118.092,35.777 119.798,43.652 116.480 C 47.649 114.796,50.160 114.894,55.327 116.935 C 57.393 117.752,66.053 121.458,68.537 122.589 C 73.655 124.919,76.705 126.336,79.759 127.801 C 91.863 133.611,98.664 134.779,112.535 133.431 C 120.340 132.672,123.762 133.768,133.736 140.219 C 139.212 143.761,147.160 148.049,150.426 149.222 C 150.703 149.321,150.904 149.482,150.879 149.585 C 150.683 150.397,150.692 152.081,150.892 152.247 C 151.013 152.347,152.220 152.836,153.575 153.333 C 154.929 153.830,157.156 154.663,158.523 155.184 C 161.219 156.212,165.510 157.766,166.761 158.169 C 168.388 158.692,168.692 158.887,172.443 161.813 C 176.853 165.253,179.644 166.753,183.310 167.653 C 183.466 167.691,151.047 167.730,111.269 167.739 C 71.490 167.748,38.843 167.794,38.719 167.842 C 38.586 167.893,38.494 168.095,38.494 168.339 L 38.494 168.750 200.003 168.750 L 361.511 168.750 361.418 168.359 C 361.366 168.145,361.297 167.921,361.265 167.862 C 361.232 167.804,334.282 167.750,301.377 167.744 L 241.548 167.732 243.789 167.393 C 254.485 165.776,264.163 161.974,273.546 155.706 C 274.697 154.937,276.183 153.998,276.847 153.620 C 282.988 150.126,288.040 145.572,291.434 140.471 C 291.850 139.845,292.371 139.305,293.009 138.838 C 297.450 135.588,300.671 131.721,303.095 126.731 C 303.792 125.295,303.981 125.031,304.874 124.245 C 307.826 121.647,309.810 119.678,313.498 115.688 C 318.645 110.119,319.380 109.490,322.648 107.853 C 327.854 105.246,330.068 103.496,335.014 98.075 C 342.549 89.819,345.864 86.661,350.994 82.853 C 353.344 81.109,355.122 79.943,356.209 79.434 L 357.031 79.048 360.795 79.048 L 364.560 79.048 366.761 78.098 C 367.972 77.575,369.794 76.919,370.810 76.641 C 373.059 76.024,373.500 75.810,373.791 75.196 C 374.045 74.661,373.901 73.763,373.508 73.437 C 373.101 73.099,373.310 72.871,375.604 71.150 C 381.960 66.380,382.978 65.263,382.387 63.710 C 382.268 63.395,382.303 63.279,382.614 62.955 C 383.937 61.577,383.190 59.659,381.330 59.659 C 380.935 59.659,380.824 59.602,380.824 59.400 C 380.824 58.400,378.591 58.090,376.920 58.857 C 376.441 59.076,376.049 59.184,376.022 59.103 C 375.996 59.024,375.762 58.829,375.503 58.668 C 375.112 58.427,375.015 58.263,374.934 57.704 C 374.756 56.485,373.765 55.696,372.669 55.902 C 372.254 55.980,372.149 55.941,371.949 55.635 C 371.529 54.994,370.393 54.802,369.247 55.176 M371.084 56.189 C 371.604 56.710,371.485 56.813,366.428 60.184 C 364.644 61.374,363.059 62.387,362.907 62.435 C 362.718 62.495,362.656 62.605,362.712 62.782 C 362.783 63.004,362.565 63.117,361.191 63.571 C 359.179 64.237,357.387 64.964,356.446 65.497 C 355.810 65.857,355.574 65.909,354.579 65.909 C 353.448 65.909,351.677 66.319,351.488 66.624 C 351.320 66.896,351.869 66.935,352.678 66.708 C 353.129 66.581,353.769 66.477,354.099 66.477 L 354.699 66.477 353.680 67.331 C 353.119 67.801,351.955 68.936,351.092 69.853 C 350.230 70.770,349.296 71.673,349.017 71.861 C 348.737 72.048,348.093 72.505,347.585 72.876 C 345.602 74.324,338.636 78.152,335.582 79.472 C 324.101 84.436,315.579 89.758,311.469 94.531 C 309.910 96.341,309.938 96.315,308.470 97.366 C 307.155 98.307,307.089 98.307,307.788 97.369 C 308.415 96.528,309.233 95.202,309.233 95.027 C 309.233 94.959,309.362 94.683,309.520 94.416 C 309.931 93.719,310.576 91.874,310.857 90.591 L 311.098 89.493 312.758 88.138 C 313.671 87.393,314.993 86.304,315.696 85.718 C 318.475 83.402,321.265 81.747,328.338 78.222 C 339.763 72.528,344.960 69.314,346.476 67.004 C 348.359 64.135,350.908 62.392,355.824 60.611 C 358.016 59.817,358.891 59.409,361.506 57.957 C 364.723 56.171,366.212 55.732,366.306 56.542 C 366.332 56.758,366.242 57.001,366.083 57.145 C 365.684 57.506,360.397 60.909,360.078 61.011 C 359.750 61.115,359.704 61.506,360.020 61.506 C 360.424 61.506,363.715 59.580,366.282 57.842 C 368.479 56.354,370.539 55.645,371.084 56.189 M373.390 57.047 C 373.723 57.136,374.061 57.780,373.983 58.178 C 373.950 58.343,373.656 58.500,373.082 58.657 C 372.614 58.786,371.751 59.150,371.165 59.466 C 370.579 59.782,369.492 60.366,368.750 60.765 C 367.300 61.544,364.872 62.549,364.063 62.706 L 363.565 62.802 364.134 62.463 C 364.952 61.974,368.445 59.637,370.066 58.492 C 371.985 57.137,372.650 56.848,373.390 57.047 M293.426 67.666 C 302.555 69.695,308.336 74.150,309.801 80.288 C 309.956 80.934,310.226 81.815,310.401 82.244 C 310.880 83.415,310.868 87.648,310.380 89.631 C 308.934 95.511,306.793 98.401,301.065 102.206 C 299.268 103.399,297.274 104.744,296.632 105.194 L 295.467 106.012 295.185 105.670 C 293.306 103.378,292.811 101.561,293.395 99.090 C 293.590 98.264,293.750 97.487,293.750 97.364 C 293.750 97.241,294.156 96.740,294.652 96.252 C 298.576 92.385,296.400 87.798,291.441 89.485 C 289.635 90.099,289.123 90.426,288.440 91.396 C 288.251 91.666,288.232 91.664,287.452 91.325 C 285.922 90.661,285.968 90.840,286.742 88.561 C 287.714 85.695,287.705 84.958,286.669 83.061 C 285.653 81.199,285.692 80.866,287.152 78.906 C 289.645 75.562,288.626 74.093,281.960 71.421 C 280.603 70.876,280.586 70.857,280.949 70.269 C 282.662 67.497,287.823 66.420,293.426 67.666 M24.602 74.396 C 24.719 74.533,24.962 74.911,25.140 75.236 C 25.522 75.933,30.873 81.134,33.240 83.109 C 35.050 84.620,36.266 85.514,39.868 87.980 C 41.210 88.898,43.096 90.301,44.059 91.097 C 48.632 94.877,50.790 96.264,55.753 98.614 C 62.670 101.890,67.891 103.080,84.872 105.253 C 91.337 106.080,98.335 107.171,103.622 108.176 C 108.879 109.175,113.997 109.362,118.892 108.734 C 124.580 108.003,126.288 108.141,131.214 109.725 C 134.659 110.834,134.291 110.773,142.401 111.574 C 149.199 112.246,151.830 112.562,155.540 113.151 C 157.749 113.502,163.658 114.629,163.764 114.719 C 163.808 114.756,163.089 117.425,162.992 117.580 C 162.980 117.601,161.473 117.331,159.645 116.979 C 155.059 116.098,151.822 115.588,146.591 114.919 C 135.677 113.525,134.428 113.303,130.607 112.080 C 126.026 110.614,123.191 110.427,117.614 111.223 C 111.639 112.075,105.455 111.530,91.051 108.881 C 87.123 108.159,83.765 107.624,77.681 106.752 C 72.425 105.998,69.465 105.504,67.472 105.047 C 60.408 103.429,56.460 101.998,50.988 99.075 C 46.764 96.818,45.207 95.760,41.619 92.702 C 39.990 91.313,38.046 89.840,35.085 87.752 C 33.726 86.793,32.480 85.733,30.807 84.108 C 29.508 82.848,28.224 81.640,27.952 81.424 C 26.966 80.640,23.020 76.803,22.647 76.265 C 21.841 75.102,23.688 73.335,24.602 74.396 M21.280 75.609 C 21.383 75.692,21.698 76.108,21.980 76.534 C 22.270 76.970,23.608 78.338,25.048 79.669 C 26.453 80.968,28.567 82.993,29.746 84.168 C 32.041 86.456,33.312 87.501,36.009 89.320 C 37.583 90.382,40.466 92.612,42.559 94.388 C 45.125 96.564,47.868 98.301,52.202 100.496 C 59.390 104.136,64.903 105.644,77.912 107.529 C 81.823 108.096,91.032 109.607,98.153 110.851 C 106.700 112.344,112.267 112.642,117.910 111.909 C 119.790 111.665,121.116 111.587,123.438 111.582 C 126.849 111.576,126.461 111.505,130.821 112.929 C 134.024 113.976,134.598 114.089,140.483 114.839 C 152.155 116.325,153.088 116.461,158.097 117.413 C 161.179 117.999,163.210 118.458,163.210 118.568 C 163.210 121.046,155.499 142.671,152.563 148.426 L 152.280 148.981 150.820 148.340 C 145.167 145.858,140.611 143.353,132.505 138.271 C 123.506 132.631,120.368 131.719,112.429 132.438 C 98.524 133.699,92.293 132.662,80.753 127.166 C 72.330 123.154,63.738 119.309,56.960 116.519 C 50.401 113.819,47.772 113.646,43.056 115.603 C 40.068 116.843,39.302 117.063,37.977 117.063 C 34.820 117.063,33.023 114.755,31.109 108.239 C 29.978 104.388,29.027 102.606,26.220 99.077 C 21.827 93.554,20.990 92.211,20.441 89.796 C 20.069 88.158,19.930 87.861,19.110 86.937 C 17.886 85.559,17.856 84.026,19.053 84.060 C 20.285 84.095,21.687 85.041,22.877 86.639 C 23.140 86.992,23.308 87.099,23.489 87.030 C 23.751 86.929,23.510 86.585,21.963 84.851 C 21.315 84.123,19.895 83.379,18.955 83.273 C 18.222 83.190,17.756 82.489,17.756 81.469 C 17.756 79.849,21.227 80.957,22.967 83.132 C 24.050 84.486,24.645 84.452,23.648 83.093 C 22.383 81.370,20.426 80.060,18.821 79.863 L 17.969 79.759 17.926 79.182 C 17.842 78.038,18.496 77.372,19.233 77.851 C 19.397 77.958,20.055 78.313,20.696 78.642 C 22.206 79.415,22.735 79.841,23.576 80.966 C 24.565 82.288,25.120 82.794,25.285 82.527 C 25.375 82.381,25.317 82.212,25.088 81.962 C 24.908 81.766,24.614 81.391,24.434 81.129 C 23.339 79.533,22.101 78.482,20.358 77.666 C 19.307 77.174,18.962 76.771,19.156 76.262 C 19.484 75.404,20.601 75.061,21.280 75.609 M313.522 97.388 C 312.862 97.965,312.074 99.152,312.074 99.569 C 312.074 99.922,312.518 99.669,312.772 99.172 C 312.925 98.872,313.441 98.265,313.919 97.822 C 315.198 96.638,314.833 96.241,313.522 97.388 M323.651 100.598 C 323.494 100.688,322.833 101.190,322.181 101.714 C 320.474 103.085,319.047 103.693,317.536 103.693 C 317.000 103.693,316.841 104.035,317.307 104.183 C 317.751 104.324,319.419 104.018,320.205 103.650 C 321.101 103.232,324.326 100.742,324.212 100.557 C 324.108 100.389,324.000 100.397,323.651 100.598 M277.752 107.361 C 276.482 108.338,274.024 109.927,272.905 110.495 C 272.318 110.792,272.112 111.080,272.485 111.080 C 273.260 111.080,279.119 107.057,279.119 106.525 C 279.119 106.316,279.085 106.337,277.752 107.361 M40.910 107.422 C 40.916 109.237,42.985 110.563,46.159 110.784 C 47.285 110.862,48.324 111.043,49.474 111.362 C 50.395 111.617,51.192 111.782,51.245 111.729 C 51.586 111.388,48.587 110.509,46.547 110.353 C 43.329 110.106,41.873 109.237,41.275 107.209 C 41.152 106.791,40.909 106.932,40.910 107.422 M221.041 114.027 C 220.706 116.976,220.396 119.669,220.351 120.010 L 220.269 120.631 222.205 119.335 C 223.269 118.623,224.194 118.040,224.259 118.040 C 224.367 118.040,225.679 121.267,228.833 129.294 C 230.158 132.666,230.003 132.455,230.903 132.113 C 231.849 131.754,231.906 132.050,229.917 126.950 C 227.020 119.519,226.156 117.262,226.194 117.225 C 226.274 117.144,230.042 116.477,230.417 116.477 C 230.934 116.477,230.932 116.327,230.409 115.940 C 229.690 115.408,222.096 109.069,221.930 108.862 C 221.844 108.753,221.745 108.665,221.711 108.665 C 221.676 108.665,221.375 111.078,221.041 114.027 M260.565 113.641 C 255.590 114.512,250.999 116.297,247.984 118.531 C 246.704 119.479,244.602 121.392,244.602 121.609 C 244.602 121.906,244.986 121.673,245.866 120.844 C 249.544 117.373,257.402 113.920,261.620 113.920 C 262.071 113.920,262.341 113.696,262.125 113.501 C 262.058 113.439,261.356 113.503,260.565 113.641 M167.543 114.896 C 173.650 116.370,183.291 119.533,191.193 122.655 C 199.372 125.887,199.287 125.866,204.835 125.989 C 204.956 125.992,205.560 126.314,206.179 126.705 L 207.304 127.415 210.157 127.415 L 213.010 127.415 213.823 130.291 C 217.114 141.930,217.579 152.326,215.321 163.707 C 214.774 166.462,215.106 166.126,212.578 166.481 C 211.413 166.645,209.856 166.903,209.119 167.054 C 206.141 167.667,204.670 167.756,197.518 167.754 C 183.876 167.751,180.381 166.768,172.822 160.802 C 170.071 158.632,169.119 157.972,168.324 157.685 C 167.894 157.530,166.360 156.981,164.915 156.464 C 162.240 155.507,160.161 154.732,156.605 153.366 C 155.511 152.946,154.022 152.390,153.296 152.131 C 152.527 151.857,152.003 151.596,152.042 151.505 C 152.079 151.419,152.598 150.263,153.196 148.935 C 157.910 138.472,162.071 126.822,163.713 119.495 C 163.840 118.928,163.990 118.492,164.047 118.527 C 164.104 118.563,165.553 118.921,167.267 119.324 C 181.087 122.571,193.345 127.608,196.469 131.324 C 196.988 131.942,197.484 132.471,197.570 132.500 C 197.873 132.601,197.723 132.215,197.203 131.558 C 195.570 129.493,194.005 128.321,190.782 126.751 C 189.719 126.234,188.823 125.788,188.790 125.760 C 188.617 125.614,189.120 125.545,191.600 125.375 C 194.189 125.196,194.630 125.123,194.412 124.904 C 194.193 124.686,189.742 124.875,188.481 125.156 C 187.859 125.295,187.742 125.265,185.970 124.511 C 180.351 122.121,171.630 119.445,164.844 118.030 C 163.693 117.791,163.714 117.847,164.135 116.187 C 164.575 114.451,164.687 114.211,165.019 114.289 C 165.157 114.322,166.293 114.595,167.543 114.896 M114.205 114.766 C 114.205 114.960,114.496 115.213,115.163 115.599 C 116.836 116.567,119.176 117.338,119.176 116.921 C 119.176 116.797,119.060 116.745,117.699 116.260 C 116.896 115.973,114.673 114.815,114.553 114.620 C 114.412 114.391,114.205 114.478,114.205 114.766 M136.634 117.275 C 134.996 119.249,132.300 119.813,128.587 118.960 C 128.362 118.908,128.267 118.951,128.267 119.106 C 128.267 119.567,131.311 120.086,132.741 119.869 C 134.493 119.603,138.433 117.045,137.091 117.045 C 136.945 117.045,136.739 117.149,136.634 117.275 M284.339 120.776 C 283.793 121.609,282.983 123.429,282.177 125.636 C 280.829 129.321,279.622 131.590,277.657 134.132 C 277.063 134.902,276.847 135.285,276.950 135.388 C 277.606 136.043,281.211 130.038,282.675 125.852 C 283.071 124.719,283.743 123.075,284.169 122.199 C 284.595 121.322,284.943 120.571,284.943 120.530 C 284.943 120.323,284.524 120.494,284.339 120.776 M239.579 123.962 C 239.530 124.012,239.489 124.636,239.489 125.349 C 239.489 127.287,238.787 129.351,237.581 130.960 C 237.260 131.388,237.242 131.466,237.438 131.576 C 237.872 131.819,238.645 130.668,239.438 128.599 C 240.001 127.129,240.114 123.427,239.579 123.962 M274.787 125.388 C 273.785 125.637,271.300 126.548,269.459 127.340 C 266.817 128.476,264.716 129.200,263.494 129.396 C 260.605 129.858,255.044 129.274,251.958 128.185 C 251.335 127.965,251.198 127.994,251.322 128.317 C 251.523 128.843,255.589 129.750,258.833 129.994 C 263.015 130.309,264.264 130.045,269.912 127.656 C 272.029 126.761,273.638 126.183,274.695 125.938 C 275.689 125.707,275.782 125.658,275.645 125.436 C 275.549 125.279,275.282 125.265,274.787 125.388 M231.276 125.803 C 231.309 125.869,231.482 126.243,231.660 126.634 C 231.839 127.024,232.163 127.727,232.380 128.196 C 232.597 128.665,232.816 129.224,232.867 129.439 C 233.010 130.041,233.271 129.920,233.172 129.298 C 233.045 128.498,231.743 125.790,231.458 125.732 C 231.326 125.705,231.244 125.737,231.276 125.803 M219.637 127.406 C 219.520 127.597,219.310 127.699,219.033 127.699 C 218.579 127.699,218.462 127.897,218.833 128.039 C 219.263 128.204,220.104 128.117,220.703 127.845 C 221.368 127.543,221.494 127.273,220.969 127.273 C 220.784 127.273,220.448 127.237,220.224 127.193 C 219.910 127.132,219.774 127.181,219.637 127.406 M222.727 128.033 C 222.727 128.061,223.040 128.748,223.423 129.560 C 223.806 130.372,224.261 131.505,224.435 132.078 C 224.661 132.823,224.794 133.075,224.904 132.966 C 225.246 132.623,223.395 127.983,222.917 127.983 C 222.812 127.983,222.727 128.005,222.727 128.033 M117.614 128.737 C 117.614 128.857,117.998 128.986,118.712 129.106 C 121.321 129.545,124.492 130.712,128.443 132.688 C 130.979 133.957,131.392 134.107,131.392 133.760 C 131.392 133.542,127.103 131.424,124.764 130.486 C 121.103 129.019,117.614 128.165,117.614 128.737 M209.659 128.745 C 209.659 128.774,210.005 130.196,210.428 131.906 C 213.344 143.687,213.660 155.587,211.299 164.737 C 211.117 165.443,211.121 165.483,211.377 165.483 C 211.526 165.483,211.648 165.454,211.648 165.419 C 211.648 165.383,211.868 164.249,212.138 162.897 C 214.102 153.064,213.679 143.282,210.779 131.395 C 210.465 130.107,210.140 128.972,210.058 128.873 C 209.920 128.707,209.659 128.624,209.659 128.745 M250.015 133.542 C 251.176 135.007,254.940 137.213,256.286 137.215 C 256.780 137.216,256.518 136.949,255.788 136.708 C 253.815 136.054,252.235 135.125,250.736 133.737 C 249.739 132.814,249.357 132.710,250.015 133.542 M233.239 135.094 C 231.368 136.630,229.311 137.553,227.095 137.852 C 226.614 137.917,226.420 138.008,226.420 138.168 C 226.420 138.652,229.602 137.977,231.250 137.143 C 232.440 136.541,234.801 134.621,234.801 134.255 C 234.801 133.921,234.416 134.128,233.239 135.094 M247.443 136.979 C 247.443 137.807,253.127 141.906,253.481 141.334 C 253.621 141.108,253.440 140.936,252.734 140.624 C 251.539 140.095,249.322 138.511,248.552 137.637 C 247.830 136.817,247.443 136.587,247.443 136.979 M240.057 146.523 L 240.057 154.267 239.666 154.174 C 239.451 154.122,238.414 153.865,237.360 153.603 C 236.307 153.340,235.392 153.125,235.328 153.125 C 235.226 153.125,235.852 154.373,237.569 157.599 C 240.202 162.546,240.957 163.920,241.038 163.920 C 241.090 163.920,241.893 162.498,242.821 160.760 C 243.749 159.022,245.044 156.617,245.699 155.416 C 246.353 154.215,246.857 153.201,246.818 153.163 C 246.780 153.125,245.706 153.349,244.433 153.662 C 243.159 153.975,242.069 154.202,242.010 154.167 C 241.951 154.131,241.903 150.655,241.903 146.440 L 241.903 138.778 240.980 138.778 L 240.057 138.778 240.057 146.523 M217.614 140.742 C 217.614 140.964,218.256 141.429,219.602 142.182 C 221.816 143.421,222.880 144.367,223.564 145.708 C 223.929 146.423,224.224 146.509,224.094 145.862 C 223.841 144.596,222.033 142.826,219.907 141.765 C 219.232 141.428,218.509 141.033,218.302 140.888 C 217.902 140.609,217.614 140.548,217.614 140.742 M246.192 142.009 C 246.273 142.434,249.204 144.318,249.782 144.318 C 250.197 144.318,249.995 144.103,249.183 143.679 C 248.734 143.445,247.919 142.918,247.373 142.508 C 246.302 141.703,246.118 141.626,246.192 142.009 M151.984 149.822 C 151.975 149.996,151.573 150.652,151.569 150.497 C 151.563 150.196,151.743 149.716,151.863 149.716 C 151.932 149.716,151.986 149.764,151.984 149.822 M274.654 151.818 C 271.799 152.891,269.480 153.261,267.237 153.000 C 266.004 152.857,265.702 152.858,265.609 153.008 C 264.816 154.292,274.026 153.210,275.913 151.797 C 276.498 151.358,275.846 151.369,274.654 151.818 M217.562 167.323 C 218.723 167.476,219.961 167.625,220.313 167.654 C 220.664 167.682,218.651 167.712,215.838 167.720 C 213.026 167.727,210.792 167.705,210.875 167.671 C 211.063 167.592,214.566 167.085,215.076 167.062 C 215.282 167.053,216.400 167.171,217.562 167.323 " stroke="none" fill="#ffffff" fill-rule="evenodd"></path></g></svg>