<svg id="svg" xmlns="http://www.w3.org/2000/svg" xmlns:xlink="http://www.w3.org/1999/xlink" width="400" height="218.1818181818182" viewBox="0, 0, 400,218.1818181818182"><g id="svgg"><path id="path0" d="M206.037 9.667 C 198.567 10.828,194.404 15.453,194.405 22.585 C 194.406 25.828,194.639 26.659,196.651 30.609 C 198.665 34.562,199.035 36.902,198.158 40.128 C 197.605 42.163,197.493 42.348,195.121 45.168 C 189.933 51.337,187.064 59.804,187.652 67.206 C 187.942 70.849,189.105 77.500,190.182 81.676 C 191.059 85.075,191.504 88.181,191.332 89.702 C 191.202 90.851,191.348 93.085,191.757 96.240 C 192.100 98.876,192.113 99.757,191.834 101.602 C 191.467 104.040,191.258 104.625,190.068 106.534 C 188.288 109.393,187.952 109.988,187.075 111.835 C 184.180 117.933,183.791 124.040,185.924 129.916 C 186.980 132.825,186.987 133.014,186.135 135.938 C 183.996 143.282,183.426 145.671,182.953 149.290 C 182.528 152.532,182.361 155.010,182.411 157.316 L 182.457 159.448 181.534 158.468 C 176.821 153.463,171.724 150.612,163.991 148.657 C 158.408 147.245,151.400 144.492,147.443 142.156 C 145.359 140.926,145.152 140.748,145.259 140.284 C 145.478 139.339,145.329 138.643,144.548 136.959 C 144.124 136.045,143.699 135.043,143.603 134.730 C 143.328 133.839,142.915 133.083,142.297 132.341 C 141.981 131.960,141.420 130.951,141.035 130.068 C 140.332 128.457,139.866 127.853,139.303 127.826 C 137.244 127.726,134.197 129.221,129.671 132.551 C 127.442 134.190,125.924 135.110,123.139 136.509 C 118.262 138.958,114.633 141.479,111.699 144.454 C 109.252 146.936,108.810 148.455,110.106 149.931 L 110.541 150.426 100.370 150.426 L 90.199 150.426 90.199 125.099 C 90.199 105.590,90.160 99.734,90.028 99.602 C 89.807 99.381,82.645 99.359,82.235 99.579 C 81.964 99.724,81.960 100.445,81.960 150.358 L 81.960 200.991 76.811 201.028 L 71.662 201.065 71.662 201.420 L 71.662 201.776 162.997 201.847 L 254.332 201.918 254.370 206.269 C 254.407 210.594,254.409 210.622,254.714 210.702 C 255.243 210.840,255.256 210.736,255.256 206.244 L 255.256 201.851 272.812 201.849 C 291.432 201.847,290.625 201.870,290.625 201.341 L 290.625 200.994 284.170 200.994 C 280.620 200.994,277.681 200.939,277.639 200.870 C 277.597 200.802,277.961 200.605,278.447 200.432 C 281.039 199.512,282.169 197.565,281.233 195.632 C 280.679 194.487,279.770 194.115,275.748 193.383 C 271.415 192.595,267.104 190.539,263.849 187.710 C 263.303 187.235,262.674 186.689,262.453 186.498 C 262.231 186.307,261.573 185.597,260.990 184.921 C 260.352 184.182,259.783 183.655,259.560 183.599 L 259.190 183.507 259.280 181.988 C 259.582 176.886,260.745 170.567,262.711 163.352 C 264.418 157.088,265.448 152.239,265.833 148.651 C 266.157 145.639,266.416 144.101,266.969 141.903 C 267.886 138.264,268.288 135.036,268.119 132.674 C 267.714 127.018,265.902 125.207,256.428 120.988 L 255.257 120.466 255.221 108.493 L 255.185 96.520 254.794 96.475 L 254.403 96.430 254.403 108.229 C 254.403 114.719,254.351 120.028,254.287 120.028 C 254.223 120.028,252.335 119.295,250.091 118.399 C 243.348 115.706,236.377 113.792,229.119 112.640 C 228.065 112.473,226.275 112.185,225.142 112.001 C 224.009 111.818,222.347 111.591,221.449 111.498 C 220.550 111.405,219.761 111.279,219.695 111.219 C 219.542 111.079,219.810 108.463,220.168 106.605 C 220.623 104.249,221.165 97.978,221.165 95.079 C 221.165 94.270,221.299 93.044,221.508 91.940 C 222.912 84.526,223.083 82.576,222.707 78.267 C 222.547 76.436,222.552 76.324,222.830 75.781 C 224.837 71.857,222.664 63.756,217.306 55.185 C 216.720 54.247,215.883 52.873,215.445 52.131 C 215.008 51.388,214.311 50.401,213.895 49.937 L 213.139 49.093 213.151 48.019 C 213.162 47.076,213.236 46.784,213.764 45.610 C 214.095 44.876,214.524 43.667,214.717 42.925 C 214.910 42.183,215.095 41.531,215.128 41.477 C 215.161 41.423,215.718 41.494,216.366 41.635 C 220.905 42.622,222.351 41.948,222.724 38.673 C 222.802 37.989,222.969 37.045,223.096 36.577 C 223.529 34.974,223.573 34.729,223.576 33.900 C 223.579 33.231,223.628 33.057,223.828 33.004 C 226.352 32.333,226.590 31.522,225.069 28.764 C 224.638 27.983,224.052 26.886,223.765 26.326 L 223.245 25.309 223.433 24.314 C 224.033 21.135,222.518 16.211,220.183 13.749 C 217.230 10.635,211.131 8.875,206.037 9.667 M212.169 10.731 C 218.241 11.969,221.406 15.047,222.368 20.651 C 222.627 22.157,222.644 23.381,222.421 24.490 L 222.257 25.307 223.731 28.201 L 225.204 31.094 224.888 31.431 C 224.715 31.615,224.237 31.874,223.828 32.006 C 222.702 32.366,222.718 32.342,222.582 33.906 C 222.515 34.685,222.330 35.816,222.172 36.418 C 222.015 37.020,221.843 38.005,221.792 38.607 C 221.578 41.095,220.807 41.435,217.025 40.708 C 212.809 39.899,210.027 38.290,209.267 36.222 C 208.936 35.319,208.426 35.085,208.483 35.861 C 208.619 37.721,210.383 39.314,213.679 40.554 C 214.153 40.733,214.337 40.872,214.283 41.013 C 214.240 41.124,214.073 41.738,213.911 42.376 C 213.749 43.015,213.325 44.176,212.968 44.957 C 211.818 47.476,211.909 49.126,213.282 50.639 C 213.708 51.108,214.260 51.875,214.509 52.344 C 214.758 52.813,215.538 54.123,216.242 55.256 C 221.652 63.964,223.670 70.749,222.139 75.082 C 221.650 76.466,221.637 76.554,221.744 77.780 C 222.090 81.742,221.838 85.459,220.905 90.128 C 220.485 92.229,220.314 93.486,220.248 94.957 C 219.949 101.634,219.380 107.105,218.986 107.101 C 218.895 107.100,218.310 106.972,217.685 106.816 C 213.202 105.701,207.017 104.403,206.181 104.403 C 205.404 104.403,205.398 104.385,205.398 102.222 C 205.397 99.776,205.094 97.040,204.529 94.389 C 203.561 89.849,203.561 90.212,204.527 88.715 C 206.838 85.133,208.036 79.532,208.461 70.313 L 208.556 68.253 209.510 66.548 C 211.177 63.570,211.332 63.068,210.589 63.068 C 210.350 63.068,210.205 63.219,210.010 63.672 C 209.867 64.004,209.282 65.115,208.710 66.140 C 207.749 67.863,207.670 68.068,207.669 68.839 C 207.669 69.298,207.573 70.952,207.456 72.514 C 206.849 80.653,205.898 84.625,203.663 88.356 L 202.802 89.795 202.887 90.671 C 202.935 91.154,203.200 92.568,203.477 93.814 C 204.462 98.242,204.669 101.233,204.426 107.493 C 204.221 112.745,204.513 116.557,205.398 120.201 C 206.002 122.690,206.390 123.312,208.368 124.969 C 210.267 126.561,210.693 127.239,211.301 129.637 C 211.795 131.582,211.782 132.985,211.268 133.462 C 210.615 134.067,210.573 133.958,210.119 130.491 C 209.961 129.282,209.844 129.057,209.450 129.208 C 209.150 129.324,209.194 130.428,209.610 133.206 C 209.901 135.148,209.808 135.709,209.118 136.173 C 207.262 137.420,200.839 136.938,199.437 135.446 C 198.545 134.496,197.971 127.800,198.590 125.567 C 199.135 123.596,198.462 120.417,195.459 110.795 C 194.070 106.345,193.393 103.143,192.966 99.006 C 192.841 97.795,192.647 96.069,192.534 95.170 C 192.179 92.345,192.137 90.442,192.386 88.471 C 192.667 86.250,192.670 84.613,192.400 81.321 C 191.747 73.364,191.777 72.316,192.796 67.543 C 193.359 64.903,193.374 64.761,193.471 61.080 C 193.525 59.009,193.616 57.156,193.673 56.960 C 194.854 52.906,196.116 51.334,199.148 50.134 C 200.522 49.590,200.868 49.355,200.750 49.046 C 200.613 48.690,199.407 48.924,198.103 49.560 C 194.070 51.525,192.578 54.655,192.541 61.222 C 192.526 63.951,192.472 64.885,192.290 65.554 C 191.122 69.846,190.868 73.792,191.400 79.403 C 191.903 84.713,191.821 84.816,190.777 80.185 C 189.769 75.711,189.444 73.877,188.773 68.892 C 187.695 60.871,190.347 52.314,196.016 45.526 C 198.179 42.935,198.634 42.168,199.058 40.387 C 199.984 36.508,199.694 34.630,197.492 30.219 C 194.930 25.085,194.559 21.446,196.202 17.543 C 198.413 12.290,205.334 9.337,212.169 10.731 M228.073 87.904 C 225.881 91.941,224.842 94.034,225.028 94.034 C 225.133 94.034,225.984 93.847,226.920 93.619 C 227.855 93.391,228.653 93.236,228.693 93.276 C 228.732 93.315,228.783 96.755,228.806 100.920 C 228.845 108.147,228.859 108.496,229.109 108.561 C 229.768 108.734,229.759 108.852,229.759 100.821 L 229.759 93.253 230.114 93.301 C 230.309 93.327,231.076 93.470,231.818 93.619 C 233.652 93.986,233.587 94.009,233.151 93.146 C 232.328 91.517,229.312 86.270,229.135 86.160 C 229.087 86.131,228.609 86.916,228.073 87.904 M89.276 125.888 L 89.276 151.278 89.702 151.287 C 89.936 151.292,101.218 151.308,114.773 151.322 L 139.418 151.349 139.418 176.136 L 139.418 200.923 136.257 200.962 L 133.097 201.000 133.097 179.406 L 133.097 157.813 111.222 157.813 L 89.348 157.813 89.312 179.368 L 89.276 200.923 86.080 200.923 L 82.884 200.923 82.850 150.852 C 82.831 123.313,82.846 100.700,82.882 100.601 C 82.933 100.461,83.656 100.429,86.112 100.459 L 89.276 100.497 89.276 125.888 M192.754 103.871 C 192.755 104.124,192.681 104.261,192.543 104.261 C 192.317 104.261,192.276 103.979,192.422 103.433 C 192.535 103.012,192.750 103.298,192.754 103.871 M193.289 106.446 C 193.465 107.257,193.987 109.094,194.449 110.529 C 197.223 119.149,198.281 123.727,197.793 125.000 C 197.451 125.891,197.344 129.985,197.617 131.691 C 197.821 132.962,197.681 133.228,197.146 132.584 C 197.056 132.475,196.893 132.386,196.784 132.386 C 196.162 132.386,193.502 130.591,192.245 129.322 C 188.335 125.376,186.837 119.410,188.278 113.520 C 189.067 110.294,191.300 105.602,192.241 105.189 C 192.942 104.882,192.952 104.894,193.289 106.446 M207.976 105.623 C 210.645 106.072,218.705 107.880,218.921 108.078 C 219.034 108.181,218.756 110.950,218.616 111.113 C 218.567 111.170,217.475 111.091,216.188 110.936 C 213.152 110.571,212.642 110.569,212.642 110.920 C 212.642 111.435,214.137 111.687,222.017 112.502 C 225.558 112.868,230.824 113.832,230.823 114.113 C 230.814 116.083,229.229 123.286,227.881 127.486 C 226.771 130.944,223.736 137.162,223.186 137.104 C 221.730 136.950,218.238 136.435,216.690 136.144 C 215.675 135.954,213.901 135.627,212.749 135.418 C 210.451 135.001,210.356 134.942,211.290 134.503 C 213.660 133.389,212.581 127.330,209.568 124.837 C 206.985 122.700,206.854 122.513,206.251 120.127 C 205.304 116.377,204.826 105.256,205.612 105.256 C 205.713 105.256,206.777 105.421,207.976 105.623 M175.282 118.492 C 175.279 126.970,175.336 126.538,174.272 126.230 C 173.255 125.937,171.411 125.558,171.341 125.629 C 171.290 125.680,173.488 129.715,175.049 132.434 C 175.679 133.533,175.690 133.543,175.897 133.215 C 177.580 130.552,180.417 125.568,180.250 125.568 C 180.176 125.568,179.363 125.728,178.445 125.923 C 177.527 126.117,176.632 126.277,176.457 126.278 L 176.139 126.278 176.102 118.643 L 176.065 111.009 175.675 110.964 L 175.284 110.919 175.282 118.492 M187.063 115.358 C 185.755 122.888,190.102 130.925,196.767 133.301 C 197.838 133.682,197.870 133.707,198.018 134.282 C 198.326 135.481,198.453 135.755,198.902 136.189 C 201.026 138.245,209.203 138.307,210.297 136.276 C 210.559 135.790,210.795 135.647,210.795 135.973 C 210.796 136.739,206.544 150.180,206.189 150.534 C 205.726 150.998,198.016 149.599,194.125 148.345 C 191.154 147.388,184.801 144.637,184.801 144.307 C 184.801 144.118,186.024 139.640,186.703 137.340 C 187.919 133.225,187.925 132.964,186.881 129.901 C 185.119 124.729,185.054 120.045,186.677 115.235 C 187.397 113.099,187.453 113.117,187.063 115.358 M235.227 114.786 C 241.062 116.006,246.582 117.799,252.592 120.426 L 254.403 121.218 254.403 129.442 C 254.403 133.965,254.355 137.641,254.297 137.611 C 252.236 136.550,247.211 136.261,242.045 136.906 C 236.060 137.654,232.732 137.789,227.557 137.492 C 226.112 137.410,224.852 137.317,224.757 137.286 C 224.646 137.249,225.025 136.316,225.835 134.630 C 228.791 128.479,230.735 121.971,231.539 115.526 L 231.720 114.078 232.160 114.157 C 232.402 114.201,233.782 114.483,235.227 114.786 M256.731 122.159 C 263.386 125.234,265.047 126.317,266.112 128.274 C 267.567 130.947,267.572 135.833,266.126 141.406 C 265.478 143.903,265.224 145.375,264.851 148.814 C 264.489 152.142,263.838 155.375,262.552 160.227 C 259.776 170.702,258.970 174.797,258.453 181.050 C 258.246 183.553,258.237 183.598,257.854 183.878 C 256.727 184.702,256.326 185.662,256.596 186.890 C 256.697 187.350,256.511 187.582,255.717 187.984 L 255.256 188.218 255.256 154.904 C 255.256 136.401,255.310 121.591,255.378 121.591 C 255.445 121.591,256.054 121.847,256.731 122.159 M139.942 129.936 C 140.262 130.620,140.545 131.219,140.572 131.267 C 140.598 131.316,140.125 131.534,139.521 131.751 C 137.583 132.448,135.857 133.323,132.918 135.100 C 129.818 136.975,128.618 137.574,126.634 138.241 C 122.336 139.683,120.198 140.761,116.087 143.553 C 112.320 146.112,111.065 147.330,110.735 148.749 L 110.560 149.503 110.395 148.935 C 110.026 147.671,110.333 147.075,112.398 145.047 C 115.339 142.159,119.542 139.246,123.534 137.331 C 126.133 136.085,127.482 135.286,129.570 133.762 C 133.193 131.115,135.685 129.639,137.549 129.035 C 139.246 128.485,139.266 128.493,139.942 129.936 M141.668 132.992 C 142.156 133.644,142.441 134.245,142.776 135.331 C 142.937 135.851,143.349 136.797,143.693 137.432 C 145.070 139.979,144.488 140.903,141.904 140.270 C 139.359 139.646,137.494 140.792,135.928 143.942 C 134.941 145.927,134.884 146.444,135.574 147.150 C 136.054 147.642,136.103 147.765,136.110 148.489 C 136.122 149.801,135.627 149.985,133.594 149.426 C 129.921 148.416,126.520 147.964,123.580 148.095 C 120.798 148.219,118.774 148.653,113.982 150.154 C 110.984 151.092,110.574 148.967,113.329 146.770 C 115.947 144.682,118.359 143.062,121.378 141.366 C 122.837 140.547,123.414 140.305,126.278 139.319 C 129.072 138.358,130.578 137.625,133.549 135.783 C 136.268 134.097,138.086 133.174,139.773 132.625 C 140.961 132.237,141.127 132.270,141.668 132.992 M214.651 136.712 C 223.717 138.518,232.042 138.914,240.909 137.963 C 246.723 137.339,247.407 137.302,249.508 137.499 C 250.521 137.594,251.366 137.687,251.387 137.706 C 251.408 137.725,250.820 139.123,250.081 140.812 C 246.073 149.971,245.408 154.554,246.957 162.358 C 247.786 166.534,247.812 176.251,247.011 182.315 C 246.856 183.487,246.689 184.846,246.640 185.334 C 246.555 186.172,246.529 186.222,246.180 186.222 C 245.274 186.223,244.426 187.223,244.234 188.517 C 244.184 188.856,243.952 189.773,243.718 190.554 C 243.378 191.694,243.272 192.381,243.183 194.034 C 243.112 195.362,242.966 196.493,242.772 197.217 C 242.254 199.155,242.630 200.710,243.618 200.710 C 243.691 200.710,243.750 200.774,243.750 200.852 C 243.750 200.947,226.420 200.994,192.045 200.994 L 140.341 200.994 140.341 176.136 C 140.341 162.464,140.384 151.278,140.436 151.278 C 141.498 151.278,152.961 158.279,159.535 162.944 C 164.273 166.305,166.513 167.735,170.241 169.779 C 173.221 171.412,174.208 172.055,177.148 174.281 C 179.148 175.795,180.429 176.386,183.795 177.345 C 188.529 178.694,190.704 178.405,193.433 176.062 C 197.019 172.984,205.170 157.357,208.290 147.581 C 209.948 142.384,210.488 140.627,211.094 138.461 C 211.575 136.739,211.772 136.226,211.952 136.224 C 212.081 136.223,213.295 136.442,214.651 136.712 M253.942 138.252 L 254.403 138.409 254.403 163.577 L 254.403 188.744 253.516 189.078 C 251.322 189.905,249.603 189.240,247.788 186.860 L 247.423 186.381 247.711 184.277 C 248.695 177.099,248.834 167.709,248.021 163.210 C 247.137 158.313,247.142 158.352,247.143 155.895 C 247.146 151.504,248.026 147.924,250.532 142.119 C 251.274 140.399,251.948 138.800,252.030 138.565 C 252.266 137.883,252.665 137.818,253.942 138.252 M239.205 141.102 C 238.540 141.889,237.453 143.174,236.787 143.958 C 236.122 144.742,235.348 145.671,235.067 146.023 L 234.556 146.662 236.454 146.615 C 237.498 146.590,238.352 146.605,238.352 146.650 C 238.352 146.695,238.073 147.579,237.732 148.614 C 233.600 161.168,220.549 171.092,207.198 171.833 L 205.661 171.919 205.761 171.364 C 205.884 170.683,206.332 168.912,206.467 168.570 C 206.659 168.086,203.917 169.489,199.527 172.123 L 198.699 172.620 199.527 173.082 C 204.333 175.766,206.301 176.843,206.336 176.808 C 206.359 176.785,206.222 176.001,206.031 175.066 C 205.553 172.719,205.517 172.869,206.551 172.869 C 212.524 172.869,221.041 169.690,226.844 165.295 C 232.315 161.152,237.981 152.986,239.106 147.626 C 239.244 146.965,239.298 146.885,239.554 146.963 C 240.022 147.106,241.940 148.040,242.373 148.337 C 242.593 148.488,242.794 148.588,242.820 148.560 C 242.938 148.434,240.704 139.955,240.501 139.758 C 240.452 139.710,239.869 140.315,239.205 141.102 M143.324 141.310 C 144.503 141.404,144.566 141.428,146.036 142.352 C 150.490 145.154,157.445 147.963,164.276 149.720 C 168.281 150.750,169.403 151.135,171.669 152.256 C 175.748 154.274,182.768 160.112,182.436 161.212 C 182.320 161.597,182.344 163.073,182.469 163.198 C 182.999 163.728,183.209 162.461,183.230 158.594 C 183.254 154.273,183.592 150.656,184.386 146.214 L 184.543 145.340 186.554 146.262 C 193.581 149.485,198.711 150.937,204.555 151.358 L 205.915 151.456 205.157 153.320 C 201.209 163.032,195.151 173.586,192.277 175.759 C 190.035 177.455,188.359 177.626,184.463 176.558 C 180.531 175.479,179.481 175.003,177.411 173.355 C 175.405 171.758,173.016 170.197,171.031 169.186 C 168.073 167.679,165.408 165.985,160.457 162.463 C 152.218 156.606,143.567 151.440,139.106 149.716 C 136.954 148.884,136.940 148.874,136.935 148.145 C 136.932 147.537,136.522 146.723,136.084 146.451 C 135.390 146.022,137.916 141.952,139.276 141.309 C 139.873 141.026,139.771 141.026,143.324 141.310 M129.711 149.475 C 131.659 149.866,133.214 150.272,133.300 150.410 C 133.329 150.458,129.560 150.497,124.923 150.497 C 120.285 150.497,116.536 150.455,116.591 150.404 C 116.819 150.190,120.240 149.332,121.804 149.097 C 123.156 148.893,127.962 149.123,129.711 149.475 M215.770 149.965 C 214.448 150.629,214.085 152.636,215.082 153.771 C 215.778 154.564,216.916 154.680,217.633 154.031 C 217.952 153.742,217.976 153.940,217.702 154.597 C 217.446 155.210,216.889 155.635,216.189 155.754 C 215.660 155.843,215.625 155.879,215.625 156.335 L 215.625 156.822 216.229 156.729 C 218.047 156.450,218.905 155.352,219.006 153.174 C 219.128 150.561,217.600 149.045,215.770 149.965 M221.365 149.976 C 219.762 150.986,219.489 155.049,220.935 156.383 C 221.418 156.828,222.697 156.953,223.469 156.631 C 225.095 155.951,225.172 151.295,223.578 150.116 C 223.026 149.709,221.902 149.637,221.365 149.976 M226.465 149.859 C 225.466 150.262,225.742 152.101,226.838 152.342 C 227.319 152.447,228.040 152.129,228.263 151.712 C 228.857 150.602,227.667 149.375,226.465 149.859 M137.642 150.213 L 137.997 150.416 137.571 150.419 C 136.984 150.423,136.493 150.277,136.587 150.126 C 136.703 149.938,137.239 149.983,137.642 150.213 M227.613 150.651 C 227.894 151.384,227.379 151.900,226.766 151.498 C 226.163 151.103,226.401 150.426,227.144 150.426 C 227.362 150.426,227.564 150.523,227.613 150.651 M217.209 150.864 C 217.556 151.050,217.898 151.820,217.898 152.417 C 217.898 153.353,216.699 153.885,216.078 153.225 C 215.043 152.123,215.966 150.198,217.209 150.864 M223.210 151.183 C 223.851 152.047,223.528 155.724,222.795 155.908 C 221.530 156.226,220.910 154.759,221.229 152.204 C 221.409 150.767,222.488 150.210,223.210 151.183 M132.105 158.949 C 132.188 159.081,132.235 167.132,132.227 180.078 L 132.214 200.994 111.206 200.994 L 90.199 200.994 90.199 179.840 L 90.199 158.685 111.085 158.711 C 129.477 158.733,131.987 158.761,132.105 158.949 M260.534 185.813 C 264.696 190.289,269.600 193.105,275.108 194.182 C 279.848 195.109,280.353 195.362,279.633 196.450 C 279.025 197.368,278.375 197.700,276.589 198.007 C 271.675 198.850,267.675 198.747,260.938 197.603 C 259.570 197.371,258.004 197.142,257.457 197.094 C 256.911 197.046,256.191 196.974,255.859 196.932 L 255.256 196.858 255.256 193.107 L 255.256 189.357 256.095 188.787 C 257.392 187.907,257.573 187.609,257.460 186.551 C 257.348 185.508,257.464 185.237,258.267 184.655 C 259.031 184.101,258.862 184.014,260.534 185.813 M247.846 188.301 C 249.735 190.216,251.637 190.792,253.518 190.021 C 253.852 189.885,254.188 189.773,254.264 189.773 C 254.351 189.773,254.403 191.108,254.403 193.346 L 254.403 196.920 251.269 196.826 C 248.018 196.728,246.841 196.566,245.091 195.972 L 244.105 195.638 244.121 194.090 C 244.134 192.821,244.215 192.274,244.568 191.051 C 244.805 190.231,245.078 189.208,245.175 188.778 C 245.651 186.662,246.142 186.574,247.846 188.301 M280.619 197.534 C 279.963 200.147,271.599 201.636,262.403 200.776 C 260.058 200.557,256.438 200.460,255.611 200.593 C 255.345 200.636,255.324 200.549,255.286 199.254 L 255.245 197.869 255.800 197.869 C 256.378 197.869,259.178 198.236,262.216 198.710 C 268.212 199.645,272.198 199.668,277.177 198.794 C 279.089 198.459,280.155 197.711,280.508 196.457 C 280.642 195.981,280.749 197.016,280.619 197.534 M246.520 197.317 C 247.506 197.537,248.555 197.621,251.101 197.685 L 254.403 197.768 254.403 199.232 L 254.403 200.697 253.871 200.798 C 252.484 201.059,247.701 200.926,246.236 200.584 C 243.634 199.978,243.188 199.596,243.523 198.260 C 243.648 197.762,243.750 197.225,243.750 197.067 C 243.750 196.634,243.849 196.605,244.574 196.828 C 244.941 196.941,245.817 197.161,246.520 197.317 " stroke="none" fill="#ffffff" fill-rule="evenodd"></path></g></svg>