<svg id="svg" xmlns="http://www.w3.org/2000/svg" xmlns:xlink="http://www.w3.org/1999/xlink" width="400" height="218.1818181818182" viewBox="0, 0, 400,218.1818181818182"><g id="svgg"><path id="path0" d="M307.670 53.701 C 299.177 54.713,293.113 61.854,292.541 71.520 C 292.312 75.378,292.289 75.456,290.912 76.904 C 288.167 79.789,287.700 79.866,282.315 78.331 C 274.713 76.163,270.541 76.369,262.358 79.315 C 255.805 81.674,252.069 83.750,246.730 88.003 C 244.601 89.699,240.918 91.912,233.097 96.195 C 219.377 103.708,211.636 105.195,204.688 101.652 C 198.259 98.375,190.296 97.857,182.699 100.222 C 179.751 101.140,178.100 101.862,173.576 104.213 C 171.083 105.508,169.913 105.885,166.589 106.460 C 165.082 106.721,162.124 107.232,160.014 107.597 C 156.072 108.279,151.759 109.115,150.817 109.380 C 150.362 109.508,150.284 109.589,150.284 109.932 C 150.284 110.329,150.260 110.340,148.473 110.784 C 146.706 111.223,142.131 112.461,138.707 113.426 C 132.721 115.115,130.011 115.008,120.881 112.722 C 110.374 110.092,105.380 109.991,95.944 112.221 C 87.178 114.292,81.979 114.969,74.787 114.977 C 69.195 114.982,68.514 114.840,66.406 113.232 C 63.810 111.250,63.192 110.817,62.287 110.344 C 59.022 108.639,55.641 110.140,53.275 114.347 C 50.532 119.221,47.899 122.065,43.753 124.632 C 40.896 126.400,38.921 128.266,36.333 131.642 C 35.831 132.297,35.486 132.593,34.956 132.820 C 33.185 133.582,31.898 135.754,32.525 136.925 C 32.659 137.176,32.594 137.310,32.055 137.891 C 29.920 140.191,30.924 142.017,34.402 142.161 C 36.288 142.238,36.737 142.131,39.276 140.994 C 40.369 140.504,41.456 140.029,41.690 139.938 C 42.417 139.655,47.202 138.691,50.284 138.207 C 52.088 137.924,53.666 137.522,56.108 136.726 C 67.467 133.022,77.170 132.492,93.963 134.659 C 98.380 135.229,99.416 135.366,101.420 135.644 C 102.553 135.800,104.471 136.028,105.682 136.150 C 106.893 136.271,108.714 136.461,109.730 136.572 C 110.746 136.683,112.056 136.813,112.642 136.862 C 117.996 137.308,119.711 137.683,126.034 139.790 C 131.424 141.586,132.353 141.731,138.453 141.733 C 140.734 141.734,142.875 141.781,143.211 141.837 C 143.546 141.894,145.738 141.980,148.082 142.028 C 150.803 142.085,152.318 142.167,152.273 142.256 C 152.226 142.348,127.487 142.405,80.824 142.420 C 41.566 142.434,9.398 142.451,9.339 142.458 C 9.281 142.466,9.233 142.567,9.233 142.685 C 9.233 142.948,-3.162 142.905,96.733 142.992 C 199.059 143.081,179.578 143.080,235.258 142.996 L 281.950 142.926 283.220 144.368 C 284.547 145.874,285.115 146.431,286.648 147.726 C 287.156 148.156,287.603 148.541,287.642 148.583 C 287.681 148.625,288.129 148.965,288.636 149.338 C 289.144 149.711,289.656 150.094,289.773 150.189 C 290.162 150.504,293.091 152.106,294.482 152.765 C 298.812 154.815,304.729 155.820,309.162 155.260 C 309.787 155.181,310.692 155.075,311.172 155.025 L 312.046 154.933 312.150 156.811 C 312.262 158.846,312.397 159.134,312.941 158.504 C 313.511 157.844,314.989 156.294,320.064 151.036 C 322.004 149.027,322.133 148.797,321.413 148.649 C 320.653 148.492,315.081 147.158,310.904 146.132 C 309.909 145.887,309.058 145.724,309.013 145.769 C 308.968 145.814,309.289 146.635,309.728 147.592 C 310.668 149.647,310.788 149.448,308.310 149.951 C 303.453 150.938,297.681 150.378,293.111 148.478 C 290.291 147.305,284.517 143.668,284.517 143.064 C 284.517 143.012,293.908 142.969,305.386 142.969 L 326.255 142.969 326.586 143.272 C 327.866 144.442,333.798 144.791,339.560 144.036 C 342.573 143.640,343.591 143.650,346.875 144.107 C 350.757 144.646,352.177 144.654,352.956 144.139 C 353.417 143.835,353.670 143.761,354.083 143.810 C 356.621 144.114,357.399 144.045,358.155 143.451 C 358.699 143.023,358.562 143.027,374.219 142.974 C 391.587 142.915,389.915 142.946,389.915 142.685 C 389.915 142.499,389.136 142.471,383.771 142.468 C 380.392 142.466,373.810 142.463,369.144 142.460 L 360.661 142.456 360.744 141.848 C 360.913 140.617,360.525 140.249,358.515 139.730 C 357.777 139.539,356.502 139.183,355.682 138.937 C 354.862 138.692,352.258 137.982,349.896 137.360 C 347.534 136.738,345.268 136.060,344.861 135.854 C 343.970 135.402,342.848 135.276,339.418 135.244 C 338.089 135.232,336.715 135.191,336.364 135.153 C 336.012 135.116,334.446 135.019,332.884 134.939 C 330.195 134.802,329.020 134.643,327.554 134.220 L 326.918 134.036 327.841 133.930 C 330.666 133.605,330.801 133.609,332.652 134.075 C 336.036 134.926,338.009 134.527,338.233 132.944 C 338.311 132.390,340.475 132.479,343.963 133.181 C 347.280 133.849,349.489 133.941,350.213 133.442 C 350.447 133.280,350.906 133.071,351.232 132.978 C 351.975 132.765,352.558 132.105,352.552 131.488 C 352.543 130.582,352.185 130.379,349.606 129.817 C 348.534 129.584,346.282 129.050,344.602 128.631 C 342.923 128.212,340.951 127.763,340.221 127.633 C 339.453 127.495,338.448 127.192,337.834 126.913 C 336.185 126.161,336.828 126.279,328.125 125.133 C 323.210 124.487,321.450 124.048,318.466 122.725 C 317.802 122.430,315.852 121.567,314.134 120.807 C 310.293 119.107,309.579 118.751,305.623 116.557 C 299.037 112.904,296.710 111.779,293.253 110.577 L 291.122 109.837 290.781 108.691 L 290.441 107.546 291.134 105.229 C 292.229 101.573,293.056 101.010,299.759 99.349 C 300.332 99.207,301.084 98.877,301.606 98.540 C 304.037 96.967,305.239 97.166,309.164 99.788 C 312.060 101.723,313.002 102.033,314.316 101.484 C 315.281 101.081,316.257 99.773,316.536 98.509 C 316.695 97.787,317.075 97.428,317.827 97.287 C 318.688 97.126,318.989 96.857,319.229 96.037 C 319.393 95.472,319.478 95.377,319.893 95.292 C 320.461 95.176,320.716 94.866,320.830 94.155 C 321.044 92.811,321.577 92.459,322.794 92.855 C 324.098 93.279,325.003 93.088,325.457 92.294 C 325.587 92.065,325.663 90.845,325.722 87.997 C 325.814 83.551,325.791 83.659,326.893 82.426 C 329.820 79.148,331.035 71.078,329.282 66.548 C 326.346 58.964,315.854 52.727,307.670 53.701 M311.460 54.556 C 318.912 55.582,326.112 60.645,328.484 66.529 C 330.231 70.860,329.147 78.641,326.355 81.818 C 325.012 83.346,325.080 83.052,325.000 87.663 C 324.915 92.545,324.819 92.791,323.255 92.139 C 321.574 91.437,320.693 91.857,320.159 93.615 C 319.880 94.531,319.862 94.553,319.277 94.683 C 318.847 94.778,318.667 94.895,318.633 95.099 C 318.447 96.234,318.327 96.436,317.787 96.525 C 316.528 96.733,316.161 97.091,315.631 98.634 C 314.585 101.674,313.444 101.734,309.333 98.961 C 305.482 96.364,303.480 96.111,301.103 97.921 C 300.848 98.115,300.160 98.407,299.574 98.569 C 298.988 98.731,297.685 99.092,296.679 99.371 C 294.340 100.019,293.404 100.437,292.631 101.179 L 292.009 101.776 292.102 101.065 C 292.940 94.615,291.196 89.361,287.292 86.575 C 285.653 85.406,283.426 84.560,283.544 85.153 C 283.577 85.321,283.945 85.528,284.659 85.780 C 290.525 87.854,293.318 95.782,290.919 103.551 C 290.690 104.293,290.391 105.268,290.254 105.717 C 289.935 106.762,289.957 106.775,289.205 105.114 C 288.754 104.118,288.492 103.702,288.317 103.698 C 287.971 103.691,287.989 103.765,288.689 105.270 C 290.304 108.742,292.034 114.967,292.043 117.340 L 292.045 118.131 291.300 118.025 C 290.083 117.851,289.631 117.873,289.631 118.104 C 289.631 118.234,289.830 118.342,290.163 118.395 C 292.067 118.695,292.684 118.830,293.854 119.200 C 297.244 120.271,300.908 122.134,305.540 125.142 C 308.852 127.293,311.445 128.605,316.903 130.891 C 318.349 131.496,320.011 132.202,320.597 132.458 C 321.655 132.921,326.180 134.629,327.131 134.924 C 328.877 135.467,332.800 135.819,339.844 136.065 C 343.063 136.178,343.475 136.221,344.247 136.523 C 345.150 136.876,345.047 137.033,344.057 136.811 C 343.594 136.707,343.466 136.719,343.466 136.866 C 343.466 137.102,343.595 137.140,345.597 137.489 C 350.217 138.295,353.712 139.088,356.605 139.987 C 357.464 140.255,358.486 140.543,358.876 140.628 C 359.687 140.806,360.087 141.107,360.081 141.535 C 360.068 142.395,358.780 142.702,358.504 141.911 C 358.301 141.330,357.622 141.040,354.830 140.342 C 353.540 140.020,351.937 139.602,351.267 139.414 C 349.914 139.034,347.477 138.508,345.099 138.083 C 344.240 137.930,343.425 137.761,343.288 137.708 C 342.957 137.580,342.965 137.876,343.298 138.054 C 343.440 138.130,344.702 138.427,346.103 138.713 C 347.504 139.000,349.354 139.414,350.213 139.634 C 358.793 141.831,358.746 141.812,357.730 142.766 C 357.133 143.327,353.848 143.281,353.527 142.707 C 353.158 142.048,352.744 141.891,349.574 141.205 C 344.986 140.213,342.388 139.587,341.553 139.272 C 340.726 138.961,340.483 138.947,340.483 139.212 C 340.483 139.317,341.559 139.766,342.521 140.062 C 343.234 140.281,347.390 141.235,349.983 141.775 C 353.039 142.410,353.403 142.633,352.634 143.401 C 352.160 143.876,351.275 143.863,346.946 143.324 C 342.858 142.814,342.632 142.811,339.956 143.216 C 334.969 143.971,328.062 143.656,326.918 142.622 C 326.368 142.125,324.324 141.675,321.449 141.416 C 319.528 141.243,318.907 141.173,316.903 140.902 C 315.771 140.749,314.109 140.532,313.210 140.419 C 301.292 138.927,294.224 137.159,287.216 133.917 C 286.864 133.755,285.490 133.155,284.162 132.585 C 281.180 131.305,280.925 131.114,280.542 129.873 C 280.381 129.353,280.007 128.539,279.710 128.064 C 277.136 123.947,274.976 118.223,273.870 112.587 C 273.465 110.521,273.317 110.109,273.043 110.279 C 272.874 110.383,273.422 113.337,274.074 115.838 C 275.244 120.322,276.780 124.147,279.381 129.048 C 279.547 129.361,279.824 129.936,279.998 130.327 C 280.171 130.717,280.337 131.085,280.367 131.145 C 280.434 131.276,278.536 130.605,277.829 130.248 C 276.677 129.665,275.536 128.086,273.163 123.793 C 272.558 122.699,271.734 121.229,271.332 120.526 C 270.155 118.472,269.553 116.748,268.849 113.423 C 268.582 112.163,268.547 111.523,268.542 107.741 C 268.538 105.398,268.483 103.399,268.420 103.300 C 268.266 103.061,268.040 103.215,268.040 103.560 C 268.040 103.925,267.824 103.909,267.554 103.524 C 267.434 103.353,267.294 103.255,267.243 103.307 C 267.099 103.450,267.591 104.119,267.840 104.119 C 267.982 104.119,268.033 104.207,267.986 104.368 C 267.799 105.005,267.733 109.812,267.893 111.151 C 268.435 115.702,269.296 118.312,271.521 122.159 C 272.131 123.214,272.796 124.385,272.998 124.762 L 273.366 125.448 272.940 125.800 C 270.997 127.404,268.340 128.788,265.341 129.757 C 264.442 130.047,263.020 130.507,262.181 130.779 C 261.196 131.098,259.181 132.015,256.499 133.364 C 249.664 136.803,247.781 137.312,240.412 137.711 C 237.557 137.866,235.750 138.076,233.097 138.562 C 226.623 139.747,225.630 139.826,217.623 139.794 C 213.995 139.779,210.999 139.740,210.966 139.707 C 210.933 139.674,211.011 138.764,211.139 137.686 C 211.330 136.073,211.636 130.266,211.645 128.078 L 211.648 127.534 218.643 127.618 C 222.491 127.664,228.420 127.733,231.818 127.770 C 240.963 127.872,249.638 128.013,249.693 128.061 C 249.736 128.099,249.719 131.190,249.666 132.813 C 249.649 133.325,249.691 133.448,249.878 133.435 C 250.107 133.418,264.500 123.896,264.915 123.486 C 265.187 123.218,264.946 123.016,262.429 121.398 C 261.413 120.745,259.464 119.491,258.097 118.610 C 256.729 117.730,254.684 116.434,253.551 115.730 C 252.418 115.027,251.119 114.204,250.664 113.902 C 250.209 113.600,249.780 113.352,249.711 113.352 C 249.639 113.352,249.622 114.566,249.673 116.193 L 249.761 119.034 248.140 119.044 C 247.249 119.049,246.360 119.073,246.165 119.097 C 245.969 119.121,244.499 119.182,242.898 119.233 C 241.296 119.283,239.315 119.356,238.494 119.394 C 237.674 119.431,235.373 119.525,233.381 119.602 C 231.388 119.679,229.055 119.774,228.196 119.812 C 227.337 119.851,225.835 119.914,224.858 119.953 C 222.446 120.050,219.981 120.154,216.264 120.316 C 214.545 120.391,212.772 120.452,212.322 120.453 L 211.506 120.455 211.506 119.638 C 211.507 117.560,210.756 110.164,209.997 104.774 L 209.899 104.079 211.164 104.176 C 216.567 104.589,222.756 102.674,231.889 97.764 C 240.570 93.097,244.822 90.525,248.153 87.925 C 253.560 83.706,259.003 81.012,266.477 78.856 C 272.454 77.131,275.436 77.196,282.568 79.209 C 287.570 80.620,288.478 80.505,290.797 78.166 C 293.119 75.825,293.118 75.826,293.319 71.875 C 293.881 60.806,301.817 53.229,311.460 54.556 M261.648 69.195 C 261.296 69.350,260.082 69.882,258.949 70.378 C 257.021 71.222,256.183 71.584,252.202 73.292 C 251.342 73.661,249.840 74.317,248.864 74.749 C 247.887 75.182,246.033 75.997,244.744 76.561 C 243.455 77.125,241.997 77.772,241.503 77.998 C 241.009 78.224,240.582 78.409,240.554 78.409 C 240.526 78.409,240.099 78.595,239.605 78.822 C 237.227 79.914,234.496 81.108,234.376 81.108 C 234.253 81.108,234.011 80.395,233.485 78.480 L 233.290 77.770 232.363 79.190 C 230.136 82.602,227.435 87.142,227.559 87.265 C 227.619 87.326,230.194 87.555,237.492 88.150 C 238.364 88.221,238.525 88.202,238.404 88.045 C 238.324 87.941,237.832 87.303,237.312 86.628 L 236.365 85.401 240.874 82.690 C 243.354 81.200,246.119 79.528,247.017 78.975 C 247.915 78.422,249.386 77.521,250.284 76.972 C 251.183 76.423,252.917 75.355,254.138 74.599 C 255.360 73.843,257.773 72.362,259.501 71.307 C 261.471 70.104,262.629 69.314,262.607 69.188 C 262.553 68.884,262.350 68.886,261.648 69.195 M257.884 71.532 C 257.422 71.877,256.728 72.311,254.434 73.694 C 252.467 74.880,249.471 76.723,247.230 78.126 C 246.761 78.419,246.058 78.839,245.668 79.059 C 244.915 79.483,239.795 82.599,237.102 84.271 L 235.496 85.269 235.906 85.710 C 236.132 85.952,236.566 86.464,236.872 86.847 L 237.428 87.544 236.221 87.455 C 233.459 87.252,229.576 86.908,229.022 86.817 L 228.427 86.719 230.714 82.978 C 232.147 80.635,233.037 79.308,233.098 79.427 C 233.151 79.531,233.341 80.144,233.520 80.788 C 233.939 82.295,232.882 82.563,241.193 78.840 C 245.040 77.117,248.133 75.753,254.616 72.922 C 255.945 72.342,257.255 71.743,257.528 71.590 C 258.118 71.262,258.280 71.235,257.884 71.532 M306.055 72.502 C 303.916 73.294,302.773 75.816,302.932 79.392 C 303.035 81.724,304.176 83.199,305.513 82.726 C 306.066 82.531,306.107 82.191,305.563 82.310 C 303.012 82.870,302.561 76.097,304.995 73.764 C 306.717 72.113,309.375 72.994,309.375 75.216 C 309.375 75.447,309.455 75.568,309.606 75.568 C 309.970 75.568,309.794 74.345,309.330 73.648 C 308.568 72.505,307.272 72.051,306.055 72.502 M270.455 80.489 C 270.259 80.517,269.620 80.611,269.034 80.696 C 263.270 81.537,257.009 84.215,251.069 88.382 C 250.973 88.449,250.973 88.530,251.068 88.625 C 251.164 88.721,251.644 88.490,252.522 87.926 C 258.955 83.794,265.365 81.405,271.121 80.994 C 272.285 80.911,272.519 80.854,272.558 80.646 C 272.606 80.398,271.589 80.322,270.455 80.489 M266.761 83.874 C 263.887 84.361,262.379 85.010,260.769 86.451 C 254.278 92.265,251.886 94.979,250.653 97.928 C 249.355 101.036,252.691 102.321,257.265 100.476 C 261.396 98.810,264.881 98.198,266.969 98.773 C 268.705 99.251,269.191 99.144,270.282 98.043 C 270.807 97.514,271.423 96.951,271.652 96.792 C 271.910 96.614,272.028 96.439,271.962 96.332 C 271.816 96.096,270.292 97.176,269.626 97.989 L 269.116 98.611 268.258 98.534 C 267.787 98.491,267.018 98.356,266.551 98.233 C 264.891 97.797,260.417 98.586,257.508 99.829 C 253.757 101.432,251.151 101.229,250.894 99.315 C 250.688 97.773,253.570 93.681,257.090 90.519 C 257.839 89.846,259.143 88.639,259.988 87.837 C 262.370 85.576,263.481 84.968,266.154 84.461 C 269.999 83.733,270.938 84.086,270.967 86.272 C 270.980 87.266,271.047 87.564,271.442 88.388 C 271.695 88.916,271.936 89.602,271.978 89.914 L 272.054 90.481 271.148 89.983 C 270.649 89.709,269.474 89.110,268.537 88.651 C 267.161 87.978,266.647 87.635,265.869 86.876 C 265.088 86.114,264.889 85.982,264.814 86.177 C 264.661 86.574,266.572 88.250,267.875 88.862 C 270.301 90.001,271.987 90.965,274.128 92.439 C 276.746 94.242,277.277 94.927,276.899 96.009 C 276.475 97.225,273.610 95.546,272.519 93.442 C 271.479 91.438,270.855 90.918,267.674 89.410 C 266.630 88.915,265.438 88.258,265.026 87.951 C 263.933 87.136,263.385 86.890,262.885 86.990 C 262.364 87.094,261.222 87.651,261.222 87.801 C 261.222 88.072,261.526 88.037,262.134 87.697 C 263.000 87.213,263.479 87.306,264.649 88.188 C 265.628 88.925,266.302 89.301,268.206 90.174 C 270.420 91.188,271.150 91.817,271.964 93.411 C 273.617 96.648,277.415 98.075,277.415 95.458 C 277.415 94.326,276.994 93.837,274.593 92.181 L 272.514 90.748 272.429 90.012 C 272.383 89.607,272.143 88.817,271.897 88.257 C 271.526 87.414,271.449 87.058,271.449 86.183 C 271.449 83.924,270.175 83.296,266.761 83.874 M304.294 85.973 C 304.045 86.280,303.409 88.485,303.409 89.042 C 303.409 90.171,307.394 97.159,308.038 97.159 C 308.347 97.159,308.285 96.965,307.688 96.069 C 305.675 93.045,304.060 90.171,303.911 89.347 C 303.846 88.992,303.945 88.447,304.254 87.447 C 304.774 85.765,304.785 85.368,304.294 85.973 M248.360 93.636 C 244.583 97.169,241.623 102.849,241.620 106.570 C 241.619 107.226,242.029 107.627,242.056 106.996 C 242.062 106.859,242.087 106.619,242.112 106.463 C 242.137 106.307,242.200 105.733,242.251 105.188 C 242.534 102.180,245.561 96.940,248.821 93.815 C 249.313 93.344,249.716 92.912,249.716 92.857 C 249.716 92.555,249.194 92.855,248.360 93.636 M273.011 98.924 C 273.011 99.275,273.659 99.656,274.811 99.986 C 278.311 100.987,278.987 101.212,279.789 101.644 C 280.287 101.912,280.709 102.060,280.756 101.983 C 281.065 101.483,279.068 100.640,275.046 99.573 C 274.407 99.403,273.774 99.142,273.639 98.993 C 273.350 98.673,273.011 98.636,273.011 98.924 M195.141 99.727 C 198.686 100.122,200.998 100.769,203.982 102.203 C 206.013 103.179,207.935 103.835,208.762 103.835 C 208.976 103.835,209.145 103.951,209.229 104.155 C 209.752 105.417,211.158 120.172,210.788 120.503 C 210.753 120.534,209.382 120.602,207.741 120.653 C 206.101 120.705,204.215 120.776,203.551 120.811 C 202.142 120.886,199.542 120.986,195.952 121.103 C 194.545 121.150,193.315 121.212,193.217 121.243 C 193.083 121.285,193.040 122.020,193.040 124.290 C 193.040 126.559,193.083 127.295,193.217 127.337 C 193.390 127.390,205.066 127.552,209.004 127.555 L 210.976 127.557 210.897 131.143 C 210.828 134.285,210.525 138.513,210.287 139.660 C 210.181 140.173,209.968 140.237,207.532 140.495 C 205.676 140.692,204.269 140.922,202.000 141.402 C 198.255 142.194,198.135 142.201,187.145 142.242 C 174.404 142.290,153.324 142.150,153.191 142.017 C 153.098 141.924,152.847 140.383,152.339 136.790 C 151.191 128.663,150.605 119.127,151.038 115.617 L 151.153 114.686 153.666 114.233 C 170.840 111.138,170.191 111.320,176.485 107.826 C 180.464 105.617,183.856 104.243,186.849 103.628 C 188.125 103.366,188.210 103.329,188.210 103.044 C 188.210 101.954,180.718 104.638,175.492 107.601 C 170.378 110.500,169.169 110.859,158.594 112.630 C 157.188 112.865,154.950 113.278,153.622 113.546 C 152.294 113.815,151.191 114.019,151.171 114.001 C 151.151 113.982,151.119 113.082,151.100 112.000 L 151.065 110.034 152.131 109.845 C 152.717 109.741,153.995 109.500,154.972 109.309 C 155.948 109.119,157.546 108.829,158.523 108.666 C 159.499 108.503,161.289 108.183,162.500 107.956 C 163.711 107.728,165.820 107.349,167.188 107.114 C 170.436 106.555,171.411 106.220,174.645 104.553 C 182.716 100.390,188.617 99.001,195.141 99.727 M225.710 104.778 C 222.159 106.593,216.769 107.594,213.459 107.053 C 212.737 106.935,212.426 107.269,213.104 107.433 C 216.145 108.172,223.082 106.900,226.319 105.009 C 227.468 104.338,226.952 104.143,225.710 104.778 M61.836 110.984 C 62.492 111.321,63.438 111.911,63.937 112.293 C 68.324 115.654,68.685 115.774,74.452 115.772 C 81.318 115.771,88.911 114.780,96.165 112.940 C 100.695 111.790,102.948 111.461,106.392 111.447 C 110.365 111.430,115.452 112.090,119.460 113.142 C 123.936 114.317,125.289 114.616,128.150 115.061 C 131.743 115.619,134.852 115.330,139.560 113.998 C 144.395 112.630,145.990 112.193,147.907 111.708 C 149.061 111.417,150.048 111.222,150.102 111.276 C 150.459 111.633,150.528 115.199,150.178 115.199 C 150.041 115.200,149.194 115.427,148.295 115.704 C 147.397 115.982,145.959 116.423,145.099 116.685 C 144.240 116.947,142.578 117.460,141.406 117.824 C 132.706 120.528,130.752 120.499,117.543 117.475 C 109.041 115.528,103.450 115.526,95.526 117.466 C 91.194 118.527,87.792 119.063,81.463 119.681 C 77.270 120.090,70.392 120.053,68.699 119.612 C 67.304 119.249,66.902 119.005,65.102 117.428 C 59.308 112.350,56.225 112.790,51.933 119.308 C 49.225 123.422,46.968 125.477,42.110 128.254 C 39.606 129.685,37.879 131.371,36.863 133.375 C 36.560 133.973,36.431 134.080,35.674 134.356 C 34.559 134.763,34.278 135.013,33.975 135.866 C 33.695 136.652,33.210 136.872,33.122 136.252 C 33.012 135.479,34.320 133.977,35.680 133.314 C 36.313 133.005,36.641 132.679,37.713 131.295 C 39.846 128.541,41.283 127.229,44.531 125.070 C 48.700 122.298,50.582 120.326,53.272 115.909 C 54.866 113.293,55.095 112.977,56.083 112.036 C 57.990 110.222,59.734 109.902,61.836 110.984 M294.105 111.722 C 296.344 112.567,299.479 114.029,301.705 115.265 C 302.525 115.721,303.548 116.286,303.977 116.520 C 304.407 116.755,305.350 117.292,306.073 117.715 C 307.612 118.614,311.842 120.691,314.276 121.742 C 321.442 124.837,321.638 124.905,325.022 125.484 C 326.143 125.676,328.658 126.033,330.611 126.278 C 335.277 126.862,336.012 127.023,337.554 127.797 C 338.319 128.181,339.415 128.582,340.264 128.788 C 341.049 128.979,342.489 129.382,343.466 129.686 C 344.442 129.989,345.777 130.372,346.432 130.538 C 348.944 131.174,350.402 131.913,350.198 132.446 C 349.882 133.269,348.466 133.257,344.225 132.398 C 341.867 131.921,341.075 131.818,339.740 131.818 C 338.199 131.818,338.101 131.801,337.789 131.468 C 337.390 131.044,336.365 130.701,333.736 130.112 C 331.705 129.657,330.841 129.353,330.121 128.840 C 329.697 128.539,329.261 128.458,329.261 128.681 C 329.261 129.140,331.478 130.067,333.837 130.594 C 336.843 131.266,337.599 131.719,337.473 132.772 C 337.342 133.863,335.534 134.037,332.546 133.246 L 330.788 132.780 328.979 133.009 C 325.517 133.448,323.645 133.125,321.898 131.785 C 320.774 130.923,320.809 130.938,319.532 130.808 C 317.029 130.555,311.259 127.956,306.321 124.857 C 300.454 121.176,297.032 119.466,293.658 118.528 L 292.795 118.288 292.702 117.063 C 292.577 115.428,292.256 113.622,291.828 112.145 C 291.635 111.478,291.477 110.898,291.477 110.855 C 291.477 110.746,291.823 110.860,294.105 111.722 M253.011 116.065 C 254.363 116.941,256.012 118.009,256.676 118.438 C 257.340 118.867,258.395 119.551,259.020 119.957 C 259.645 120.363,261.035 121.256,262.109 121.940 C 264.174 123.256,264.248 123.331,263.743 123.594 C 263.567 123.686,260.459 125.740,256.836 128.160 L 250.248 132.558 250.352 130.075 C 250.409 128.709,250.401 127.559,250.334 127.519 C 250.181 127.427,243.603 127.296,234.375 127.202 C 230.430 127.161,225.476 127.097,223.366 127.059 C 221.257 127.022,214.737 126.950,208.878 126.900 C 203.018 126.851,197.202 126.797,195.952 126.782 L 193.679 126.754 193.679 124.292 C 193.679 122.213,193.712 121.826,193.892 121.801 C 194.009 121.785,195.699 121.725,197.646 121.668 C 199.594 121.611,201.288 121.546,201.411 121.524 C 201.533 121.502,203.040 121.442,204.759 121.391 C 206.477 121.340,208.267 121.270,208.736 121.236 C 209.205 121.202,210.579 121.139,211.790 121.096 C 214.215 121.010,216.578 120.910,218.537 120.810 C 219.240 120.774,220.934 120.710,222.301 120.668 C 223.668 120.626,225.362 120.562,226.065 120.526 C 226.768 120.490,228.271 120.425,229.403 120.381 C 230.536 120.338,231.911 120.275,232.457 120.242 C 233.004 120.208,234.538 120.144,235.866 120.100 C 237.195 120.056,238.729 119.991,239.276 119.957 C 239.822 119.923,241.612 119.852,243.253 119.801 C 244.893 119.750,246.396 119.689,246.591 119.665 C 246.786 119.641,247.734 119.611,248.697 119.598 L 250.448 119.574 250.355 117.209 C 250.304 115.908,250.228 114.722,250.186 114.574 C 250.075 114.183,250.230 114.265,253.011 116.065 M60.931 115.240 C 61.788 115.684,63.237 116.785,64.915 118.266 C 67.215 120.296,68.249 120.588,73.516 120.696 C 79.998 120.828,89.309 119.814,95.308 118.323 C 103.766 116.220,108.972 116.235,118.253 118.391 C 121.180 119.071,122.938 119.448,124.858 119.807 C 132.405 121.220,133.939 121.017,147.017 116.878 C 148.001 116.567,150.171 115.909,150.214 115.909 C 150.216 115.909,150.221 117.619,150.228 119.709 C 150.243 125.156,151.211 135.434,152.223 140.895 L 152.312 141.378 148.422 141.279 C 146.282 141.225,144.403 141.156,144.247 141.126 C 144.091 141.097,143.756 141.068,143.504 141.062 C 143.094 141.052,143.002 140.967,142.651 140.279 C 141.524 138.062,138.346 135.532,136.353 135.265 C 135.776 135.187,135.551 135.436,136.044 135.606 C 138.237 136.363,139.697 137.243,140.768 138.455 C 141.349 139.113,142.614 140.812,142.614 140.935 C 142.614 141.075,133.656 140.935,132.599 140.779 C 131.060 140.551,129.890 140.228,126.136 138.996 C 119.337 136.762,118.750 136.642,111.231 135.933 C 106.272 135.466,105.418 135.367,97.727 134.373 C 94.798 133.995,91.985 133.646,91.477 133.598 C 90.969 133.550,90.394 133.483,90.199 133.449 C 82.544 132.113,70.442 132.426,62.145 134.175 C 60.794 134.460,58.041 135.246,55.469 136.081 C 52.766 136.959,52.055 137.137,49.786 137.505 C 45.451 138.209,41.780 139.039,40.405 139.626 C 39.668 139.941,39.024 140.199,38.973 140.199 C 38.923 140.199,38.350 140.457,37.700 140.774 C 34.679 142.242,30.542 141.145,31.991 139.259 C 32.477 138.626,32.567 138.616,32.878 139.163 C 33.269 139.851,33.965 140.199,34.951 140.199 C 36.354 140.199,39.063 139.295,39.063 138.826 C 39.063 138.570,38.956 138.593,37.705 139.117 C 35.841 139.898,34.005 139.895,33.388 139.111 C 32.881 138.466,33.037 137.764,33.810 137.214 L 34.239 136.908 34.730 137.339 C 35.854 138.326,39.437 137.726,39.607 136.523 L 39.655 136.185 39.233 136.485 C 37.338 137.835,34.801 137.733,34.801 136.307 C 34.801 135.742,35.183 135.369,36.113 135.027 C 36.844 134.758,37.028 134.561,38.049 132.955 C 38.962 131.518,40.521 130.114,42.464 128.977 C 47.663 125.935,49.687 124.099,52.563 119.817 C 55.743 115.084,58.122 113.782,60.931 115.240 M62.484 123.345 C 61.026 123.878,60.316 125.024,60.657 126.293 C 60.885 127.138,61.161 126.931,61.103 125.961 C 60.987 124.050,62.128 123.566,66.474 123.682 C 68.840 123.745,69.602 123.725,69.602 123.597 C 69.602 123.238,63.380 123.018,62.484 123.345 M273.896 126.386 C 274.037 126.926,275.632 129.313,276.257 129.918 C 277.310 130.940,278.582 131.570,280.398 131.971 C 281.028 132.111,282.425 132.649,283.949 133.340 C 286.345 134.426,288.426 135.321,289.558 135.751 C 290.262 136.019,291.030 136.323,291.264 136.427 C 295.188 138.162,305.095 140.317,312.855 141.123 C 313.324 141.172,314.826 141.365,316.193 141.552 C 318.363 141.849,320.894 142.120,322.418 142.219 C 325.049 142.389,319.981 142.448,303.320 142.442 L 283.625 142.435 282.326 141.139 C 280.850 139.668,279.359 137.921,277.852 135.897 C 277.011 134.769,276.779 134.538,276.618 134.672 C 276.449 134.812,276.459 134.904,276.683 135.281 C 276.828 135.525,277.160 136.108,277.419 136.577 C 278.083 137.774,279.135 139.331,280.351 140.917 C 280.924 141.663,281.392 142.310,281.392 142.354 C 281.392 142.398,263.430 142.427,241.477 142.417 C 219.524 142.408,201.563 142.367,201.563 142.325 C 201.562 142.203,205.384 141.482,206.463 141.401 C 208.194 141.271,209.856 141.025,210.342 140.825 C 210.710 140.674,212.208 140.628,217.302 140.610 C 223.715 140.587,225.769 140.508,228.125 140.195 C 229.362 140.030,229.854 139.943,233.665 139.218 C 235.784 138.815,236.592 138.734,243.060 138.280 C 248.444 137.901,250.928 137.139,257.173 133.951 C 260.539 132.233,261.322 131.894,263.565 131.184 C 268.629 129.581,271.094 128.407,273.082 126.649 C 273.738 126.070,273.807 126.047,273.896 126.386 M347.055 130.036 C 347.854 130.228,349.148 130.522,349.929 130.690 C 351.940 131.122,352.199 131.324,351.563 131.960 C 351.171 132.352,350.823 132.314,350.555 131.853 C 350.304 131.419,348.540 130.657,346.509 130.104 C 345.890 129.935,345.357 129.773,345.324 129.742 C 345.196 129.623,345.662 129.702,347.055 130.036 M321.000 131.626 C 321.586 132.006,321.216 131.992,320.504 131.609 C 319.948 131.309,319.898 131.254,320.241 131.324 C 320.476 131.372,320.817 131.508,321.000 131.626 M285.369 144.628 C 291.857 149.541,297.990 151.512,305.143 150.983 C 307.563 150.804,311.222 150.019,311.222 149.678 C 311.222 149.554,310.540 147.926,310.141 147.101 C 309.831 146.458,309.007 146.319,316.903 148.238 C 321.459 149.345,320.988 149.158,320.496 149.665 C 320.278 149.891,318.981 151.256,317.614 152.698 C 313.884 156.634,312.881 157.672,312.844 157.634 C 312.825 157.615,312.766 156.896,312.712 156.037 C 312.591 154.105,312.645 154.161,311.115 154.393 C 308.595 154.774,304.479 154.902,303.196 154.638 C 303.040 154.606,302.433 154.501,301.847 154.406 C 294.037 153.133,286.162 147.930,280.770 140.483 C 280.685 140.366,281.382 141.020,282.318 141.938 C 283.254 142.855,284.627 144.065,285.369 144.628 M256.117 146.200 C 256.123 146.454,256.205 147.481,256.301 148.483 C 256.397 149.484,256.441 150.323,256.398 150.347 C 256.356 150.371,255.426 150.433,254.332 150.485 C 252.195 150.587,248.431 150.815,247.159 150.920 C 246.729 150.956,245.547 151.022,244.531 151.066 C 243.516 151.110,242.269 151.174,241.761 151.208 C 241.254 151.242,240.199 151.303,239.418 151.344 C 238.636 151.386,236.911 151.485,235.582 151.565 C 234.254 151.646,229.300 151.933,224.574 152.203 C 219.847 152.474,215.533 152.728,214.986 152.768 C 213.024 152.912,199.752 153.643,194.105 153.919 C 193.011 153.972,192.021 154.034,191.903 154.057 C 191.786 154.079,191.483 154.102,191.229 154.108 C 190.840 154.118,190.767 154.173,190.767 154.457 L 190.767 154.794 195.419 154.817 C 197.978 154.830,200.806 154.867,201.705 154.900 C 202.603 154.933,206.854 154.995,211.151 155.038 C 225.921 155.184,231.893 155.260,233.736 155.327 C 234.751 155.364,240.281 155.435,246.023 155.485 C 251.765 155.535,256.471 155.583,256.480 155.593 C 256.490 155.603,256.401 156.580,256.283 157.765 C 256.016 160.447,256.028 160.490,256.919 159.959 C 257.293 159.735,258.878 158.817,260.440 157.917 C 267.852 153.650,269.042 152.936,268.993 152.788 C 268.936 152.619,268.424 152.322,264.915 150.426 C 263.704 149.772,262.489 149.112,262.216 148.959 C 261.761 148.703,261.042 148.312,257.517 146.400 C 256.066 145.613,256.105 145.618,256.117 146.200 M261.151 149.083 C 262.869 150.007,264.659 150.975,265.128 151.234 C 265.597 151.493,266.412 151.942,266.939 152.232 C 268.037 152.835,268.065 152.891,267.436 153.209 C 267.182 153.337,266.399 153.779,265.696 154.190 C 264.052 155.151,260.131 157.409,258.322 158.435 C 257.548 158.875,256.883 159.203,256.844 159.164 C 256.805 159.125,256.849 158.189,256.942 157.084 C 257.035 155.979,257.092 155.058,257.071 155.039 C 257.049 155.019,253.899 154.964,250.071 154.915 C 246.243 154.867,240.618 154.791,237.571 154.746 C 234.524 154.701,229.826 154.640,227.131 154.611 C 217.262 154.505,208.714 154.382,207.884 154.334 C 207.415 154.307,205.689 154.271,204.048 154.253 C 200.702 154.217,200.802 154.204,207.244 153.840 C 208.768 153.754,210.366 153.656,210.795 153.623 C 211.225 153.590,212.216 153.527,212.997 153.484 C 213.778 153.441,214.897 153.376,215.483 153.340 C 216.069 153.304,217.156 153.240,217.898 153.199 C 218.640 153.158,220.302 153.061,221.591 152.984 C 222.880 152.907,225.136 152.779,226.604 152.699 C 228.072 152.618,231.428 152.427,234.061 152.273 C 236.695 152.119,239.457 151.959,240.199 151.917 C 243.303 151.741,244.159 151.691,245.170 151.628 C 246.771 151.528,253.228 151.160,255.311 151.050 L 257.141 150.954 257.049 149.731 C 256.998 149.059,256.916 148.097,256.865 147.594 L 256.774 146.680 257.400 147.041 C 257.744 147.240,259.432 148.159,261.151 149.083 " stroke="none" fill="#ffffff" fill-rule="evenodd"></path></g></svg>